{
  "notes": [
    {
      "pitch": 45,
      "velocity": 40,
      "onset": 78,
      "duration": 572,
      "id_score": 0.0,
      "voice_tag": "Unassigned",
      "hue": 90.0,
      "sat": 100.0,
      "lightness": 35.0,
      "tonal_distance": 0.0,
      "regime_state": "TRANSITION SPIKE!"
    },
    {
      "pitch": 52,
      "velocity": 50,
      "onset": 536,
      "duration": 72,
      "id_score": 6.02,
      "voice_tag": "Background (Solid / Harmony)",
      "hue": 44.4,
      "sat": 80.1,
      "lightness": 52.2,
      "tonal_distance": 14.4,
      "regime_state": "TRANSITION SPIKE!"
    },
    {
      "pitch": 60,
      "velocity": 54,
      "onset": 536,
      "duration": 72,
      "id_score": 0.0,
      "voice_tag": "Background (Solid / Harmony)",
      "hue": 44.4,
      "sat": 80.1,
      "lightness": 52.2,
      "tonal_distance": 14.4,
      "regime_state": "TRANSITION SPIKE!"
    },
    {
      "pitch": 52,
      "velocity": 52,
      "onset": 958,
      "duration": 67,
      "id_score": 7.76,
      "voice_tag": "Background (Solid / Harmony)",
      "hue": 34.9,
      "sat": 82.4,
      "lightness": 55.3,
      "tonal_distance": 4.9,
      "regime_state": "Regime Locked"
    },
    {
      "pitch": 60,
      "velocity": 66,
      "onset": 958,
      "duration": 67,
      "id_score": 0.0,
      "voice_tag": "Background (Solid / Harmony)",
      "hue": 34.9,
      "sat": 82.4,
      "lightness": 55.3,
      "tonal_distance": 4.9,
      "regime_state": "Regime Locked"
    },
    {
      "pitch": 45,
      "velocity": 60,
      "onset": 1416,
      "duration": 494,
      "id_score": 15.47,
      "voice_tag": "Background (Solid / Harmony)",
      "hue": 48.8,
      "sat": 78.8,
      "lightness": 50.6,
      "tonal_distance": 11.2,
      "regime_state": "TRANSITION SPIKE!"
    },
    {
      "pitch": 52,
      "velocity": 61,
      "onset": 1880,
      "duration": 62,
      "id_score": 7.25,
      "voice_tag": "Background (Solid / Harmony)",
      "hue": 39.8,
      "sat": 80.4,
      "lightness": 53.5,
      "tonal_distance": 9.8,
      "regime_state": "TRANSITION SPIKE!"
    },
    {
      "pitch": 60,
      "velocity": 76,
      "onset": 1880,
      "duration": 57,
      "id_score": 0.0,
      "voice_tag": "Background (Solid / Harmony)",
      "hue": 39.8,
      "sat": 80.4,
      "lightness": 53.5,
      "tonal_distance": 9.8,
      "regime_state": "TRANSITION SPIKE!"
    },
    {
      "pitch": 60,
      "velocity": 82,
      "onset": 2286,
      "duration": 52,
      "id_score": 0.0,
      "voice_tag": "Background (Solid / Harmony)",
      "hue": 35.0,
      "sat": 81.9,
      "lightness": 55.1,
      "tonal_distance": 5.0,
      "regime_state": "TRANSITION SPIKE!"
    },
    {
      "pitch": 52,
      "velocity": 65,
      "onset": 2291,
      "duration": 67,
      "id_score": 818.9,
      "voice_tag": "Voice 1 (Liquid / Melody)",
      "hue": 35.2,
      "sat": 81.9,
      "lightness": 55.1,
      "tonal_distance": 5.2,
      "regime_state": "Stable"
    },
    {
      "pitch": 45,
      "velocity": 50,
      "onset": 2723,
      "duration": 494,
      "id_score": 6.38,
      "voice_tag": "Background (Solid / Harmony)",
      "hue": 44.8,
      "sat": 82.0,
      "lightness": 54.5,
      "tonal_distance": 14.8,
      "regime_state": "TRANSITION SPIKE!"
    },
    {
      "pitch": 64,
      "velocity": 71,
      "onset": 2744,
      "duration": 244,
      "id_score": 539.53,
      "voice_tag": "Voice 1 (Liquid / Melody)",
      "hue": 44.7,
      "sat": 82.0,
      "lightness": 54.6,
      "tonal_distance": 14.7,
      "regime_state": "Stable"
    },
    {
      "pitch": 66,
      "velocity": 87,
      "onset": 3171,
      "duration": 57,
      "id_score": 3.53,
      "voice_tag": "Background (Solid / Harmony)",
      "hue": 44.9,
      "sat": 57.6,
      "lightness": 56.4,
      "tonal_distance": 14.9,
      "regime_state": "TRANSITION SPIKE!"
    },
    {
      "pitch": 52,
      "velocity": 55,
      "onset": 3177,
      "duration": 72,
      "id_score": 1010.5,
      "voice_tag": "Voice 1 (Liquid / Melody)",
      "hue": 44.9,
      "sat": 57.9,
      "lightness": 56.4,
      "tonal_distance": 14.9,
      "regime_state": "Stable"
    },
    {
      "pitch": 60,
      "velocity": 50,
      "onset": 3182,
      "duration": 72,
      "id_score": 629.92,
      "voice_tag": "Voice 1 (Liquid / Melody)",
      "hue": 44.8,
      "sat": 57.8,
      "lightness": 56.5,
      "tonal_distance": 14.8,
      "regime_state": "Undefined / Gray Void"
    },
    {
      "pitch": 68,
      "velocity": 83,
      "onset": 3375,
      "duration": 67,
      "id_score": 30.7,
      "voice_tag": "Background (Solid / Harmony)",
      "hue": 30.6,
      "sat": 48.8,
      "lightness": 57.5,
      "tonal_distance": 0.6,
      "regime_state": "Undefined / Gray Void"
    },
    {
      "pitch": 52,
      "velocity": 64,
      "onset": 3593,
      "duration": 83,
      "id_score": 36.99,
      "voice_tag": "Background (Solid / Harmony)",
      "hue": 39.4,
      "sat": 55.5,
      "lightness": 58.3,
      "tonal_distance": 9.4,
      "regime_state": "TRANSITION SPIKE!"
    },
    {
      "pitch": 60,
      "velocity": 65,
      "onset": 3593,
      "duration": 62,
      "id_score": 0.0,
      "voice_tag": "Background (Solid / Harmony)",
      "hue": 39.4,
      "sat": 55.5,
      "lightness": 58.3,
      "tonal_distance": 9.4,
      "regime_state": "TRANSITION SPIKE!"
    },
    {
      "pitch": 69,
      "velocity": 83,
      "onset": 3609,
      "duration": 52,
      "id_score": 422.76,
      "voice_tag": "Voice 1 (Liquid / Melody)",
      "hue": 39.5,
      "sat": 55.6,
      "lightness": 58.2,
      "tonal_distance": 9.5,
      "regime_state": "Stable"
    },
    {
      "pitch": 45,
      "velocity": 67,
      "onset": 3984,
      "duration": 328,
      "id_score": 33.76,
      "voice_tag": "Background (Solid / Harmony)",
      "hue": 52.2,
      "sat": 58.3,
      "lightness": 57.1,
      "tonal_distance": 7.8,
      "regime_state": "TRANSITION SPIKE!"
    },
    {
      "pitch": 69,
      "velocity": 78,
      "onset": 4010,
      "duration": 364,
      "id_score": 651.97,
      "voice_tag": "Voice 1 (Liquid / Melody)",
      "hue": 52.3,
      "sat": 58.3,
      "lightness": 57.1,
      "tonal_distance": 7.7,
      "regime_state": "Regime Locked"
    },
    {
      "pitch": 71,
      "velocity": 82,
      "onset": 4458,
      "duration": 57,
      "id_score": 3.41,
      "voice_tag": "Background (Solid / Harmony)",
      "hue": 68.3,
      "sat": 54.5,
      "lightness": 58.0,
      "tonal_distance": 8.3,
      "regime_state": "TRANSITION SPIKE!"
    },
    {
      "pitch": 62,
      "velocity": 57,
      "onset": 4468,
      "duration": 83,
      "id_score": 417.4,
      "voice_tag": "Voice 1 (Liquid / Melody)",
      "hue": 68.5,
      "sat": 54.7,
      "lightness": 58.0,
      "tonal_distance": 8.5,
      "regime_state": "Stable"
    },
    {
      "pitch": 52,
      "velocity": 42,
      "onset": 4473,
      "duration": 83,
      "id_score": 661.42,
      "voice_tag": "Voice 1 (Liquid / Melody)",
      "hue": 68.5,
      "sat": 54.7,
      "lightness": 57.9,
      "tonal_distance": 8.5,
      "regime_state": "Stable"
    },
    {
      "pitch": 68,
      "velocity": 83,
      "onset": 4656,
      "duration": 62,
      "id_score": 64.76,
      "voice_tag": "Voice 1 (Liquid / Melody)",
      "hue": 59.5,
      "sat": 44.7,
      "lightness": 58.6,
      "tonal_distance": 0.5,
      "regime_state": "Undefined / Gray Void"
    },
    {
      "pitch": 62,
      "velocity": 69,
      "onset": 4864,
      "duration": 72,
      "id_score": 16.19,
      "voice_tag": "Background (Solid / Harmony)",
      "hue": 74.2,
      "sat": 38.0,
      "lightness": 59.2,
      "tonal_distance": 14.2,
      "regime_state": "Undefined / Gray Void"
    },
    {
      "pitch": 52,
      "velocity": 45,
      "onset": 4875,
      "duration": 72,
      "id_score": 322.12,
      "voice_tag": "Voice 1 (Liquid / Melody)",
      "hue": 74.3,
      "sat": 38.0,
      "lightness": 59.1,
      "tonal_distance": 14.3,
      "regime_state": "Undefined / Gray Void"
    },
    {
      "pitch": 66,
      "velocity": 87,
      "onset": 4880,
      "duration": 57,
      "id_score": 2109.92,
      "voice_tag": "Voice 1 (Liquid / Melody)",
      "hue": 74.5,
      "sat": 37.9,
      "lightness": 59.1,
      "tonal_distance": 14.5,
      "regime_state": "Undefined / Gray Void"
    },
    {
      "pitch": 69,
      "velocity": 75,
      "onset": 5239,
      "duration": 46,
      "id_score": 5.68,
      "voice_tag": "Background (Solid / Harmony)",
      "hue": 88.6,
      "sat": 36.5,
      "lightness": 58.8,
      "tonal_distance": 1.4,
      "regime_state": "TRANSITION SPIKE!"
    },
    {
      "pitch": 45,
      "velocity": 59,
      "onset": 5250,
      "duration": 463,
      "id_score": 1013.6,
      "voice_tag": "Voice 1 (Liquid / Melody)",
      "hue": 88.6,
      "sat": 36.4,
      "lightness": 58.8,
      "tonal_distance": 1.4,
      "regime_state": "Regime Locked"
    },
    {
      "pitch": 66,
      "velocity": 98,
      "onset": 5276,
      "duration": 41,
      "id_score": 685.58,
      "voice_tag": "Voice 1 (Liquid / Melody)",
      "hue": 88.5,
      "sat": 36.5,
      "lightness": 58.8,
      "tonal_distance": 1.5,
      "regime_state": "Stable"
    },
    {
      "pitch": 52,
      "velocity": 50,
      "onset": 5718,
      "duration": 72,
      "id_score": 12.47,
      "voice_tag": "Background (Solid / Harmony)",
      "hue": 75.3,
      "sat": 42.1,
      "lightness": 59.2,
      "tonal_distance": 14.7,
      "regime_state": "TRANSITION SPIKE!"
    },
    {
      "pitch": 60,
      "velocity": 49,
      "onset": 5723,
      "duration": 72,
      "id_score": 617.32,
      "voice_tag": "Voice 1 (Liquid / Melody)",
      "hue": 75.1,
      "sat": 42.2,
      "lightness": 59.2,
      "tonal_distance": 14.9,
      "regime_state": "Stable"
    },
    {
      "pitch": 64,
      "velocity": 86,
      "onset": 5734,
      "duration": 1682,
      "id_score": 262.66,
      "voice_tag": "Voice 1 (Liquid / Melody)",
      "hue": 75.4,
      "sat": 42.1,
      "lightness": 59.2,
      "tonal_distance": 14.6,
      "regime_state": "Stable"
    },
    {
      "pitch": 60,
      "velocity": 83,
      "onset": 6161,
      "duration": 52,
      "id_score": 6.12,
      "voice_tag": "Background (Solid / Harmony)",
      "hue": 64.2,
      "sat": 45.2,
      "lightness": 59.1,
      "tonal_distance": 4.2,
      "regime_state": "TRANSITION SPIKE!"
    },
    {
      "pitch": 52,
      "velocity": 78,
      "onset": 6166,
      "duration": 57,
      "id_score": 982.68,
      "voice_tag": "Voice 1 (Liquid / Melody)",
      "hue": 64.1,
      "sat": 45.2,
      "lightness": 59.1,
      "tonal_distance": 4.1,
      "regime_state": "Stable"
    },
    {
      "pitch": 45,
      "velocity": 64,
      "onset": 6656,
      "duration": 406,
      "id_score": 7.2,
      "voice_tag": "Background (Solid / Harmony)",
      "hue": 68.2,
      "sat": 47.7,
      "lightness": 57.6,
      "tonal_distance": 8.2,
      "regime_state": "TRANSITION SPIKE!"
    },
    {
      "pitch": 60,
      "velocity": 78,
      "onset": 7078,
      "duration": 57,
      "id_score": 21.83,
      "voice_tag": "Background (Solid / Harmony)",
      "hue": 60.1,
      "sat": 50.9,
      "lightness": 57.6,
      "tonal_distance": 0.1,
      "regime_state": "TRANSITION SPIKE!"
    },
    {
      "pitch": 52,
      "velocity": 71,
      "onset": 7083,
      "duration": 62,
      "id_score": 894.49,
      "voice_tag": "Voice 1 (Liquid / Melody)",
      "hue": 60.1,
      "sat": 50.8,
      "lightness": 57.6,
      "tonal_distance": 0.1,
      "regime_state": "Stable"
    },
    {
      "pitch": 60,
      "velocity": 81,
      "onset": 7494,
      "duration": 52,
      "id_score": 12.41,
      "voice_tag": "Background (Solid / Harmony)",
      "hue": 52.3,
      "sat": 54.4,
      "lightness": 57.8,
      "tonal_distance": 7.7,
      "regime_state": "TRANSITION SPIKE!"
    },
    {
      "pitch": 52,
      "velocity": 73,
      "onset": 7505,
      "duration": 52,
      "id_score": 418.04,
      "voice_tag": "Voice 1 (Liquid / Melody)",
      "hue": 52.4,
      "sat": 54.4,
      "lightness": 57.8,
      "tonal_distance": 7.6,
      "regime_state": "Stable"
    },
    {
      "pitch": 45,
      "velocity": 55,
      "onset": 7953,
      "duration": 401,
      "id_score": 6.77,
      "voice_tag": "Background (Solid / Harmony)",
      "hue": 56.9,
      "sat": 55.9,
      "lightness": 56.4,
      "tonal_distance": 3.1,
      "regime_state": "TRANSITION SPIKE!"
    },
    {
      "pitch": 64,
      "velocity": 77,
      "onset": 8192,
      "duration": 72,
      "id_score": 51.41,
      "voice_tag": "Voice 1 (Liquid / Melody)",
      "hue": 57.1,
      "sat": 59.4,
      "lightness": 57.1,
      "tonal_distance": 2.9,
      "regime_state": "TRANSITION SPIKE!"
    },
    {
      "pitch": 52,
      "velocity": 57,
      "onset": 8416,
      "duration": 78,
      "id_score": 24.04,
      "voice_tag": "Background (Solid / Harmony)",
      "hue": 56.3,
      "sat": 48.4,
      "lightness": 57.9,
      "tonal_distance": 3.7,
      "regime_state": "TRANSITION SPIKE!"
    },
    {
      "pitch": 66,
      "velocity": 87,
      "onset": 8416,
      "duration": 57,
      "id_score": 0.0,
      "voice_tag": "Background (Solid / Harmony)",
      "hue": 56.3,
      "sat": 48.4,
      "lightness": 57.9,
      "tonal_distance": 3.7,
      "regime_state": "TRANSITION SPIKE!"
    },
    {
      "pitch": 60,
      "velocity": 68,
      "onset": 8421,
      "duration": 57,
      "id_score": 642.52,
      "voice_tag": "Voice 1 (Liquid / Melody)",
      "hue": 56.3,
      "sat": 48.6,
      "lightness": 57.9,
      "tonal_distance": 3.7,
      "regime_state": "Stable"
    },
    {
      "pitch": 68,
      "velocity": 84,
      "onset": 8625,
      "duration": 57,
      "id_score": 29.4,
      "voice_tag": "Background (Solid / Harmony)",
      "hue": 46.7,
      "sat": 42.0,
      "lightness": 58.5,
      "tonal_distance": 13.3,
      "regime_state": "TRANSITION SPIKE!"
    },
    {
      "pitch": 52,
      "velocity": 54,
      "onset": 8843,
      "duration": 67,
      "id_score": 31.21,
      "voice_tag": "Background (Solid / Harmony)",
      "hue": 33.0,
      "sat": 41.1,
      "lightness": 58.9,
      "tonal_distance": 3.0,
      "regime_state": "TRANSITION SPIKE!"
    },
    {
      "pitch": 68,
      "velocity": 82,
      "onset": 8843,
      "duration": 218,
      "id_score": 0.0,
      "voice_tag": "Background (Solid / Harmony)",
      "hue": 33.0,
      "sat": 41.1,
      "lightness": 58.9,
      "tonal_distance": 3.0,
      "regime_state": "TRANSITION SPIKE!"
    },
    {
      "pitch": 60,
      "velocity": 54,
      "onset": 8848,
      "duration": 72,
      "id_score": 680.31,
      "voice_tag": "Voice 1 (Liquid / Melody)",
      "hue": 33.0,
      "sat": 41.4,
      "lightness": 58.9,
      "tonal_distance": 3.0,
      "regime_state": "Stable"
    },
    {
      "pitch": 69,
      "velocity": 70,
      "onset": 9078,
      "duration": 78,
      "id_score": 24.8,
      "voice_tag": "Background (Solid / Harmony)",
      "hue": 40.2,
      "sat": 42.3,
      "lightness": 59.3,
      "tonal_distance": 10.2,
      "regime_state": "TRANSITION SPIKE!"
    },
    {
      "pitch": 45,
      "velocity": 56,
      "onset": 9328,
      "duration": 260,
      "id_score": 42.33,
      "voice_tag": "Background (Solid / Harmony)",
      "hue": 45.4,
      "sat": 44.5,
      "lightness": 58.0,
      "tonal_distance": 14.6,
      "regime_state": "TRANSITION SPIKE!"
    },
    {
      "pitch": 69,
      "velocity": 78,
      "onset": 9541,
      "duration": 83,
      "id_score": 79.58,
      "voice_tag": "Voice 1 (Liquid / Melody)",
      "hue": 52.3,
      "sat": 47.5,
      "lightness": 58.4,
      "tonal_distance": 7.7,
      "regime_state": "TRANSITION SPIKE!"
    },
    {
      "pitch": 52,
      "velocity": 72,
      "onset": 9755,
      "duration": 72,
      "id_score": 45.04,
      "voice_tag": "Background (Solid / Harmony)",
      "hue": 68.9,
      "sat": 47.0,
      "lightness": 58.7,
      "tonal_distance": 8.9,
      "regime_state": "TRANSITION SPIKE!"
    },
    {
      "pitch": 71,
      "velocity": 85,
      "onset": 9760,
      "duration": 62,
      "id_score": 3009.58,
      "voice_tag": "Voice 1 (Liquid / Melody)",
      "hue": 68.9,
      "sat": 47.0,
      "lightness": 58.7,
      "tonal_distance": 8.9,
      "regime_state": "Stable"
    },
    {
      "pitch": 62,
      "velocity": 67,
      "onset": 9776,
      "duration": 78,
      "id_score": 306.64,
      "voice_tag": "Voice 1 (Liquid / Melody)",
      "hue": 68.5,
      "sat": 47.0,
      "lightness": 58.7,
      "tonal_distance": 8.5,
      "regime_state": "Regime Locked"
    },
    {
      "pitch": 68,
      "velocity": 85,
      "onset": 9973,
      "duration": 57,
      "id_score": 23.1,
      "voice_tag": "Background (Solid / Harmony)",
      "hue": 60.3,
      "sat": 39.5,
      "lightness": 59.2,
      "tonal_distance": 0.3,
      "regime_state": "TRANSITION SPIKE!"
    },
    {
      "pitch": 52,
      "velocity": 56,
      "onset": 10187,
      "duration": 67,
      "id_score": 32.97,
      "voice_tag": "Background (Solid / Harmony)",
      "hue": 57.0,
      "sat": 36.3,
      "lightness": 59.5,
      "tonal_distance": 3.0,
      "regime_state": "TRANSITION SPIKE!"
    },
    {
      "pitch": 62,
      "velocity": 57,
      "onset": 10192,
      "duration": 67,
      "id_score": 927.56,
      "voice_tag": "Voice 1 (Liquid / Melody)",
      "hue": 57.0,
      "sat": 36.3,
      "lightness": 59.5,
      "tonal_distance": 3.0,
      "regime_state": "Stable"
    },
    {
      "pitch": 68,
      "velocity": 81,
      "onset": 10192,
      "duration": 218,
      "id_score": 0.0,
      "voice_tag": "Background (Solid / Harmony)",
      "hue": 57.0,
      "sat": 36.3,
      "lightness": 59.5,
      "tonal_distance": 3.0,
      "regime_state": "Stable"
    },
    {
      "pitch": 66,
      "velocity": 80,
      "onset": 10395,
      "duration": 62,
      "id_score": 6.83,
      "voice_tag": "Background (Solid / Harmony)",
      "hue": 62.8,
      "sat": 28.6,
      "lightness": 59.9,
      "tonal_distance": 2.8,
      "regime_state": "Undefined / Gray Void"
    },
    {
      "pitch": 45,
      "velocity": 57,
      "onset": 10614,
      "duration": 395,
      "id_score": 43.04,
      "voice_tag": "Background (Solid / Harmony)",
      "hue": 77.4,
      "sat": 27.8,
      "lightness": 59.4,
      "tonal_distance": 12.6,
      "regime_state": "TRANSITION SPIKE!"
    },
    {
      "pitch": 69,
      "velocity": 77,
      "onset": 10614,
      "duration": 46,
      "id_score": 0.0,
      "voice_tag": "Background (Solid / Harmony)",
      "hue": 77.4,
      "sat": 27.8,
      "lightness": 59.4,
      "tonal_distance": 12.6,
      "regime_state": "TRANSITION SPIKE!"
    },
    {
      "pitch": 66,
      "velocity": 89,
      "onset": 10656,
      "duration": 52,
      "id_score": 55.06,
      "voice_tag": "Voice 1 (Liquid / Melody)",
      "hue": 77.5,
      "sat": 27.6,
      "lightness": 59.4,
      "tonal_distance": 12.5,
      "regime_state": "Stable"
    },
    {
      "pitch": 52,
      "velocity": 65,
      "onset": 11098,
      "duration": 67,
      "id_score": 16.21,
      "voice_tag": "Background (Solid / Harmony)",
      "hue": 63.5,
      "sat": 37.0,
      "lightness": 59.6,
      "tonal_distance": 3.5,
      "regime_state": "TRANSITION SPIKE!"
    },
    {
      "pitch": 60,
      "velocity": 70,
      "onset": 11104,
      "duration": 57,
      "id_score": 734.91,
      "voice_tag": "Voice 1 (Liquid / Melody)",
      "hue": 63.5,
      "sat": 36.9,
      "lightness": 59.6,
      "tonal_distance": 3.5,
      "regime_state": "Stable"
    },
    {
      "pitch": 64,
      "velocity": 90,
      "onset": 11104,
      "duration": 1442,
      "id_score": 0.0,
      "voice_tag": "Background (Solid / Harmony)",
      "hue": 63.5,
      "sat": 36.9,
      "lightness": 59.6,
      "tonal_distance": 3.5,
      "regime_state": "Stable"
    },
    {
      "pitch": 60,
      "velocity": 81,
      "onset": 11546,
      "duration": 52,
      "id_score": 5.77,
      "voice_tag": "Background (Solid / Harmony)",
      "hue": 53.7,
      "sat": 41.9,
      "lightness": 59.5,
      "tonal_distance": 6.3,
      "regime_state": "TRANSITION SPIKE!"
    },
    {
      "pitch": 52,
      "velocity": 70,
      "onset": 11552,
      "duration": 57,
      "id_score": 734.91,
      "voice_tag": "Voice 1 (Liquid / Melody)",
      "hue": 54.0,
      "sat": 41.9,
      "lightness": 59.4,
      "tonal_distance": 6.0,
      "regime_state": "Stable"
    },
    {
      "pitch": 45,
      "velocity": 69,
      "onset": 12026,
      "duration": 489,
      "id_score": 8.02,
      "voice_tag": "Background (Solid / Harmony)",
      "hue": 59.1,
      "sat": 43.7,
      "lightness": 57.9,
      "tonal_distance": 0.9,
      "regime_state": "TRANSITION SPIKE!"
    },
    {
      "pitch": 60,
      "velocity": 84,
      "onset": 12494,
      "duration": 52,
      "id_score": 21.2,
      "voice_tag": "Background (Solid / Harmony)",
      "hue": 52.0,
      "sat": 47.8,
      "lightness": 58.0,
      "tonal_distance": 8.0,
      "regime_state": "TRANSITION SPIKE!"
    },
    {
      "pitch": 52,
      "velocity": 74,
      "onset": 12500,
      "duration": 57,
      "id_score": 776.9,
      "voice_tag": "Voice 1 (Liquid / Melody)",
      "hue": 52.0,
      "sat": 47.9,
      "lightness": 58.0,
      "tonal_distance": 8.0,
      "regime_state": "Stable"
    },
    {
      "pitch": 60,
      "velocity": 91,
      "onset": 12921,
      "duration": 46,
      "id_score": 13.62,
      "voice_tag": "Background (Solid / Harmony)",
      "hue": 45.2,
      "sat": 52.1,
      "lightness": 58.2,
      "tonal_distance": 14.8,
      "regime_state": "TRANSITION SPIKE!"
    },
    {
      "pitch": 52,
      "velocity": 61,
      "onset": 12927,
      "duration": 62,
      "id_score": 640.42,
      "voice_tag": "Voice 1 (Liquid / Melody)",
      "hue": 45.3,
      "sat": 52.0,
      "lightness": 58.2,
      "tonal_distance": 14.7,
      "regime_state": "Stable"
    },
    {
      "pitch": 67,
      "velocity": 86,
      "onset": 13375,
      "duration": 46,
      "id_score": 25.32,
      "voice_tag": "Background (Solid / Harmony)",
      "hue": 43.2,
      "sat": 61.2,
      "lightness": 60.9,
      "tonal_distance": 13.2,
      "regime_state": "TRANSITION SPIKE!"
    },
    {
      "pitch": 76,
      "velocity": 83,
      "onset": 13380,
      "duration": 46,
      "id_score": 1490.08,
      "voice_tag": "Voice 1 (Liquid / Melody)",
      "hue": 43.3,
      "sat": 61.2,
      "lightness": 60.9,
      "tonal_distance": 13.3,
      "regime_state": "Stable"
    },
    {
      "pitch": 64,
      "velocity": 65,
      "onset": 13390,
      "duration": 78,
      "id_score": 655.12,
      "voice_tag": "Voice 1 (Liquid / Melody)",
      "hue": 43.3,
      "sat": 61.2,
      "lightness": 60.9,
      "tonal_distance": 13.3,
      "regime_state": "Regime Locked"
    },
    {
      "pitch": 60,
      "velocity": 62,
      "onset": 13395,
      "duration": 67,
      "id_score": 390.55,
      "voice_tag": "Voice 1 (Liquid / Melody)",
      "hue": 43.3,
      "sat": 61.2,
      "lightness": 60.9,
      "tonal_distance": 13.3,
      "regime_state": "Stable"
    },
    {
      "pitch": 65,
      "velocity": 85,
      "onset": 13812,
      "duration": 57,
      "id_score": 8.69,
      "voice_tag": "Background (Solid / Harmony)",
      "hue": 28.8,
      "sat": 57.8,
      "lightness": 62.9,
      "tonal_distance": 1.2,
      "regime_state": "TRANSITION SPIKE!"
    },
    {
      "pitch": 68,
      "velocity": 89,
      "onset": 13828,
      "duration": 52,
      "id_score": 148.92,
      "voice_tag": "Voice 1 (Liquid / Melody)",
      "hue": 28.9,
      "sat": 57.9,
      "lightness": 62.9,
      "tonal_distance": 1.1,
      "regime_state": "Stable"
    },
    {
      "pitch": 60,
      "velocity": 76,
      "onset": 13833,
      "duration": 57,
      "id_score": 957.48,
      "voice_tag": "Voice 1 (Liquid / Melody)",
      "hue": 28.9,
      "sat": 57.9,
      "lightness": 62.9,
      "tonal_distance": 1.1,
      "regime_state": "Stable"
    },
    {
      "pitch": 76,
      "velocity": 79,
      "onset": 13833,
      "duration": 52,
      "id_score": 0.0,
      "voice_tag": "Background (Solid / Harmony)",
      "hue": 28.9,
      "sat": 57.9,
      "lightness": 62.9,
      "tonal_distance": 1.1,
      "regime_state": "Stable"
    },
    {
      "pitch": 66,
      "velocity": 97,
      "onset": 14234,
      "duration": 46,
      "id_score": 20.95,
      "voice_tag": "Background (Solid / Harmony)",
      "hue": 34.0,
      "sat": 50.6,
      "lightness": 64.4,
      "tonal_distance": 4.0,
      "regime_state": "TRANSITION SPIKE!"
    },
    {
      "pitch": 76,
      "velocity": 95,
      "onset": 14239,
      "duration": 46,
      "id_score": 1895.01,
      "voice_tag": "Voice 1 (Liquid / Melody)",
      "hue": 33.9,
      "sat": 50.8,
      "lightness": 64.4,
      "tonal_distance": 3.9,
      "regime_state": "Undefined / Gray Void"
    },
    {
      "pitch": 69,
      "velocity": 82,
      "onset": 14255,
      "duration": 41,
      "id_score": 324.85,
      "voice_tag": "Voice 1 (Liquid / Melody)",
      "hue": 34.0,
      "sat": 50.9,
      "lightness": 64.4,
      "tonal_distance": 4.0,
      "regime_state": "Stable"
    },
    {
      "pitch": 60,
      "velocity": 87,
      "onset": 14260,
      "duration": 46,
      "id_score": 1233.07,
      "voice_tag": "Voice 1 (Liquid / Melody)",
      "hue": 34.0,
      "sat": 50.9,
      "lightness": 64.4,
      "tonal_distance": 4.0,
      "regime_state": "Stable"
    },
    {
      "pitch": 76,
      "velocity": 97,
      "onset": 14661,
      "duration": 140,
      "id_score": 38.6,
      "voice_tag": "Background (Solid / Harmony)",
      "hue": 47.1,
      "sat": 52.9,
      "lightness": 64.8,
      "tonal_distance": 12.9,
      "regime_state": "TRANSITION SPIKE!"
    },
    {
      "pitch": 67,
      "velocity": 81,
      "onset": 14671,
      "duration": 916,
      "id_score": 640.98,
      "voice_tag": "Voice 1 (Liquid / Melody)",
      "hue": 47.0,
      "sat": 52.8,
      "lightness": 64.8,
      "tonal_distance": 13.0,
      "regime_state": "Stable"
    },
    {
      "pitch": 62,
      "velocity": 86,
      "onset": 14677,
      "duration": 921,
      "id_score": 583.11,
      "voice_tag": "Voice 1 (Liquid / Melody)",
      "hue": 47.1,
      "sat": 52.8,
      "lightness": 64.8,
      "tonal_distance": 12.9,
      "regime_state": "Stable"
    },
    {
      "pitch": 71,
      "velocity": 81,
      "onset": 14682,
      "duration": 916,
      "id_score": 1358.5,
      "voice_tag": "Voice 1 (Liquid / Melody)",
      "hue": 47.0,
      "sat": 52.8,
      "lightness": 64.8,
      "tonal_distance": 13.0,
      "regime_state": "Stable"
    },
    {
      "pitch": 55,
      "velocity": 71,
      "onset": 14687,
      "duration": 947,
      "id_score": 1788.98,
      "voice_tag": "Voice 1 (Liquid / Melody)",
      "hue": 46.9,
      "sat": 52.9,
      "lightness": 64.8,
      "tonal_distance": 13.1,
      "regime_state": "Stable"
    },
    {
      "pitch": 74,
      "velocity": 83,
      "onset": 14817,
      "duration": 135,
      "id_score": 117.81,
      "voice_tag": "Voice 1 (Liquid / Melody)",
      "hue": 52.1,
      "sat": 51.8,
      "lightness": 65.6,
      "tonal_distance": 7.9,
      "regime_state": "TRANSITION SPIKE!"
    },
    {
      "pitch": 72,
      "velocity": 77,
      "onset": 14973,
      "duration": 57,
      "id_score": 9.33,
      "voice_tag": "Background (Solid / Harmony)",
      "hue": 49.0,
      "sat": 52.7,
      "lightness": 66.3,
      "tonal_distance": 11.0,
      "regime_state": "TRANSITION SPIKE!"
    },
    {
      "pitch": 74,
      "velocity": 79,
      "onset": 15098,
      "duration": 484,
      "id_score": 12.28,
      "voice_tag": "Background (Solid / Harmony)",
      "hue": 53.7,
      "sat": 51.9,
      "lightness": 67.0,
      "tonal_distance": 6.3,
      "regime_state": "Stable"
    },
    {
      "pitch": 72,
      "velocity": 85,
      "onset": 16197,
      "duration": 57,
      "id_score": 1.46,
      "voice_tag": "Background (Solid / Harmony)",
      "hue": 45.8,
      "sat": 58.5,
      "lightness": 67.3,
      "tonal_distance": 14.2,
      "regime_state": "TRANSITION SPIKE!"
    },
    {
      "pitch": 60,
      "velocity": 78,
      "onset": 16203,
      "duration": 57,
      "id_score": 1228.35,
      "voice_tag": "Voice 1 (Liquid / Melody)",
      "hue": 45.9,
      "sat": 58.5,
      "lightness": 67.3,
      "tonal_distance": 14.1,
      "regime_state": "Stable"
    },
    {
      "pitch": 64,
      "velocity": 91,
      "onset": 16203,
      "duration": 46,
      "id_score": 0.0,
      "voice_tag": "Background (Solid / Harmony)",
      "hue": 45.9,
      "sat": 58.5,
      "lightness": 67.3,
      "tonal_distance": 14.1,
      "regime_state": "Stable"
    },
    {
      "pitch": 57,
      "velocity": 47,
      "onset": 16244,
      "duration": 72,
      "id_score": 63.18,
      "voice_tag": "Voice 1 (Liquid / Melody)",
      "hue": 46.2,
      "sat": 58.6,
      "lightness": 67.3,
      "tonal_distance": 13.8,
      "regime_state": "Stable"
    },
    {
      "pitch": 62,
      "velocity": 91,
      "onset": 16630,
      "duration": 57,
      "id_score": 9.59,
      "voice_tag": "Background (Solid / Harmony)",
      "hue": 44.1,
      "sat": 56.6,
      "lightness": 67.2,
      "tonal_distance": 14.1,
      "regime_state": "Undefined / Gray Void"
    },
    {
      "pitch": 65,
      "velocity": 87,
      "onset": 16630,
      "duration": 52,
      "id_score": 0.0,
      "voice_tag": "Background (Solid / Harmony)",
      "hue": 44.1,
      "sat": 56.6,
      "lightness": 67.2,
      "tonal_distance": 14.1,
      "regime_state": "Undefined / Gray Void"
    },
    {
      "pitch": 72,
      "velocity": 85,
      "onset": 16640,
      "duration": 57,
      "id_score": 562.2,
      "voice_tag": "Voice 1 (Liquid / Melody)",
      "hue": 44.2,
      "sat": 56.6,
      "lightness": 67.2,
      "tonal_distance": 14.2,
      "regime_state": "TRANSITION SPIKE!"
    },
    {
      "pitch": 57,
      "velocity": 64,
      "onset": 16651,
      "duration": 72,
      "id_score": 687.19,
      "voice_tag": "Voice 1 (Liquid / Melody)",
      "hue": 44.2,
      "sat": 56.6,
      "lightness": 67.2,
      "tonal_distance": 14.2,
      "regime_state": "Stable"
    },
    {
      "pitch": 63,
      "velocity": 97,
      "onset": 17041,
      "duration": 46,
      "id_score": 12.34,
      "voice_tag": "Background (Solid / Harmony)",
      "hue": 37.2,
      "sat": 42.4,
      "lightness": 67.2,
      "tonal_distance": 7.2,
      "regime_state": "TRANSITION SPIKE!"
    },
    {
      "pitch": 66,
      "velocity": 90,
      "onset": 17052,
      "duration": 52,
      "id_score": 212.6,
      "voice_tag": "Voice 1 (Liquid / Melody)",
      "hue": 37.3,
      "sat": 42.4,
      "lightness": 67.2,
      "tonal_distance": 7.3,
      "regime_state": "Stable"
    },
    {
      "pitch": 72,
      "velocity": 84,
      "onset": 17057,
      "duration": 46,
      "id_score": 952.44,
      "voice_tag": "Voice 1 (Liquid / Melody)",
      "hue": 37.3,
      "sat": 42.4,
      "lightness": 67.2,
      "tonal_distance": 7.3,
      "regime_state": "Stable"
    },
    {
      "pitch": 57,
      "velocity": 41,
      "onset": 17083,
      "duration": 67,
      "id_score": 186.25,
      "voice_tag": "Voice 1 (Liquid / Melody)",
      "hue": 37.4,
      "sat": 42.3,
      "lightness": 67.2,
      "tonal_distance": 7.4,
      "regime_state": "Stable"
    },
    {
      "pitch": 72,
      "velocity": 98,
      "onset": 17453,
      "duration": 171,
      "id_score": 37.54,
      "voice_tag": "Background (Solid / Harmony)",
      "hue": 40.9,
      "sat": 47.1,
      "lightness": 66.5,
      "tonal_distance": 10.9,
      "regime_state": "TRANSITION SPIKE!"
    },
    {
      "pitch": 59,
      "velocity": 74,
      "onset": 17468,
      "duration": 1046,
      "id_score": 504.99,
      "voice_tag": "Voice 1 (Liquid / Melody)",
      "hue": 41.1,
      "sat": 47.1,
      "lightness": 66.4,
      "tonal_distance": 11.1,
      "regime_state": "Undefined / Gray Void"
    },
    {
      "pitch": 52,
      "velocity": 62,
      "onset": 17479,
      "duration": 1062,
      "id_score": 310.67,
      "voice_tag": "Voice 1 (Liquid / Melody)",
      "hue": 40.9,
      "sat": 47.1,
      "lightness": 66.5,
      "tonal_distance": 10.9,
      "regime_state": "Stable"
    },
    {
      "pitch": 64,
      "velocity": 79,
      "onset": 17479,
      "duration": 1015,
      "id_score": 0.0,
      "voice_tag": "Background (Solid / Harmony)",
      "hue": 40.9,
      "sat": 47.1,
      "lightness": 66.5,
      "tonal_distance": 10.9,
      "regime_state": "Stable"
    },
    {
      "pitch": 67,
      "velocity": 77,
      "onset": 17479,
      "duration": 1031,
      "id_score": 0.0,
      "voice_tag": "Background (Solid / Harmony)",
      "hue": 40.9,
      "sat": 47.1,
      "lightness": 66.5,
      "tonal_distance": 10.9,
      "regime_state": "Stable"
    },
    {
      "pitch": 71,
      "velocity": 80,
      "onset": 17625,
      "duration": 130,
      "id_score": 20.42,
      "voice_tag": "Background (Solid / Harmony)",
      "hue": 47.2,
      "sat": 43.2,
      "lightness": 66.5,
      "tonal_distance": 12.8,
      "regime_state": "TRANSITION SPIKE!"
    },
    {
      "pitch": 69,
      "velocity": 82,
      "onset": 17755,
      "duration": 67,
      "id_score": 11.42,
      "voice_tag": "Background (Solid / Harmony)",
      "hue": 51.5,
      "sat": 44.9,
      "lightness": 66.4,
      "tonal_distance": 8.5,
      "regime_state": "Stable"
    },
    {
      "pitch": 71,
      "velocity": 84,
      "onset": 17880,
      "duration": 604,
      "id_score": 12.52,
      "voice_tag": "Background (Solid / Harmony)",
      "hue": 58.2,
      "sat": 42.1,
      "lightness": 66.3,
      "tonal_distance": 1.8,
      "regime_state": "TRANSITION SPIKE!"
    },
    {
      "pitch": 60,
      "velocity": 64,
      "onset": 18973,
      "duration": 1052,
      "id_score": 5.07,
      "voice_tag": "Background (Solid / Harmony)",
      "hue": 48.4,
      "sat": 36.0,
      "lightness": 65.8,
      "tonal_distance": 11.6,
      "regime_state": "Undefined / Gray Void"
    },
    {
      "pitch": 71,
      "velocity": 81,
      "onset": 18973,
      "duration": 161,
      "id_score": 0.0,
      "voice_tag": "Background (Solid / Harmony)",
      "hue": 48.4,
      "sat": 36.0,
      "lightness": 65.8,
      "tonal_distance": 11.6,
      "regime_state": "Undefined / Gray Void"
    },
    {
      "pitch": 65,
      "velocity": 67,
      "onset": 18989,
      "duration": 994,
      "id_score": 214.32,
      "voice_tag": "Voice 1 (Liquid / Melody)",
      "hue": 48.2,
      "sat": 36.0,
      "lightness": 65.8,
      "tonal_distance": 11.8,
      "regime_state": "Undefined / Gray Void"
    },
    {
      "pitch": 53,
      "velocity": 58,
      "onset": 19005,
      "duration": 1031,
      "id_score": 342.52,
      "voice_tag": "Voice 1 (Liquid / Melody)",
      "hue": 48.2,
      "sat": 36.1,
      "lightness": 65.8,
      "tonal_distance": 11.8,
      "regime_state": "TRANSITION SPIKE!"
    },
    {
      "pitch": 69,
      "velocity": 70,
      "onset": 19145,
      "duration": 140,
      "id_score": 72.44,
      "voice_tag": "Voice 1 (Liquid / Melody)",
      "hue": 53.3,
      "sat": 38.2,
      "lightness": 65.7,
      "tonal_distance": 6.7,
      "regime_state": "Stable"
    },
    {
      "pitch": 67,
      "velocity": 69,
      "onset": 19286,
      "duration": 114,
      "id_score": 8.61,
      "voice_tag": "Background (Solid / Harmony)",
      "hue": 50.5,
      "sat": 41.0,
      "lightness": 65.7,
      "tonal_distance": 9.5,
      "regime_state": "TRANSITION SPIKE!"
    },
    {
      "pitch": 69,
      "velocity": 66,
      "onset": 19442,
      "duration": 557,
      "id_score": 7.66,
      "voice_tag": "Background (Solid / Harmony)",
      "hue": 55.5,
      "sat": 41.6,
      "lightness": 65.6,
      "tonal_distance": 4.5,
      "regime_state": "TRANSITION SPIKE!"
    },
    {
      "pitch": 67,
      "velocity": 70,
      "onset": 20479,
      "duration": 1625,
      "id_score": 1.19,
      "voice_tag": "Background (Solid / Harmony)",
      "hue": 37.0,
      "sat": 49.3,
      "lightness": 63.8,
      "tonal_distance": 7.0,
      "regime_state": "TRANSITION SPIKE!"
    },
    {
      "pitch": 48,
      "velocity": 54,
      "onset": 20484,
      "duration": 1390,
      "id_score": 1615.75,
      "voice_tag": "Voice 1 (Liquid / Melody)",
      "hue": 36.9,
      "sat": 49.4,
      "lightness": 63.8,
      "tonal_distance": 6.9,
      "regime_state": "Stable"
    },
    {
      "pitch": 55,
      "velocity": 51,
      "onset": 20500,
      "duration": 1359,
      "id_score": 175.69,
      "voice_tag": "Voice 1 (Liquid / Melody)",
      "hue": 36.7,
      "sat": 49.5,
      "lightness": 63.9,
      "tonal_distance": 6.7,
      "regime_state": "Regime Locked"
    },
    {
      "pitch": 60,
      "velocity": 49,
      "onset": 20500,
      "duration": 1291,
      "id_score": 0.0,
      "voice_tag": "Background (Solid / Harmony)",
      "hue": 36.7,
      "sat": 49.5,
      "lightness": 63.9,
      "tonal_distance": 6.7,
      "regime_state": "Regime Locked"
    },
    {
      "pitch": 65,
      "velocity": 60,
      "onset": 20505,
      "duration": 104,
      "id_score": 511.81,
      "voice_tag": "Voice 1 (Liquid / Melody)",
      "hue": 36.8,
      "sat": 49.4,
      "lightness": 63.9,
      "tonal_distance": 6.8,
      "regime_state": "Stable"
    },
    {
      "pitch": 64,
      "velocity": 75,
      "onset": 20656,
      "duration": 130,
      "id_score": 4.17,
      "voice_tag": "Background (Solid / Harmony)",
      "hue": 39.9,
      "sat": 52.3,
      "lightness": 63.9,
      "tonal_distance": 9.9,
      "regime_state": "TRANSITION SPIKE!"
    },
    {
      "pitch": 62,
      "velocity": 76,
      "onset": 20796,
      "duration": 145,
      "id_score": 8.83,
      "voice_tag": "Background (Solid / Harmony)",
      "hue": 45.5,
      "sat": 50.0,
      "lightness": 63.9,
      "tonal_distance": 14.5,
      "regime_state": "Stable"
    },
    {
      "pitch": 64,
      "velocity": 57,
      "onset": 20963,
      "duration": 937,
      "id_score": 5.73,
      "voice_tag": "Background (Solid / Harmony)",
      "hue": 46.1,
      "sat": 52.6,
      "lightness": 63.8,
      "tonal_distance": 13.9,
      "regime_state": "TRANSITION SPIKE!"
    },
    {
      "pitch": 50,
      "velocity": 90,
      "onset": 22161,
      "duration": 57,
      "id_score": 8.28,
      "voice_tag": "Background (Solid / Harmony)",
      "hue": 45.3,
      "sat": 51.1,
      "lightness": 61.4,
      "tonal_distance": 14.7,
      "regime_state": "TRANSITION SPIKE!"
    },
    {
      "pitch": 57,
      "velocity": 96,
      "onset": 22161,
      "duration": 46,
      "id_score": 0.0,
      "voice_tag": "Background (Solid / Harmony)",
      "hue": 45.3,
      "sat": 51.1,
      "lightness": 61.4,
      "tonal_distance": 14.7,
      "regime_state": "TRANSITION SPIKE!"
    },
    {
      "pitch": 65,
      "velocity": 98,
      "onset": 22166,
      "duration": 72,
      "id_score": 1337.53,
      "voice_tag": "Voice 1 (Liquid / Melody)",
      "hue": 45.1,
      "sat": 51.1,
      "lightness": 61.5,
      "tonal_distance": 14.9,
      "regime_state": "Stable"
    },
    {
      "pitch": 60,
      "velocity": 88,
      "onset": 22177,
      "duration": 46,
      "id_score": 314.96,
      "voice_tag": "Voice 1 (Liquid / Melody)",
      "hue": 45.1,
      "sat": 51.2,
      "lightness": 61.5,
      "tonal_distance": 14.9,
      "regime_state": "Stable"
    },
    {
      "pitch": 52,
      "velocity": 79,
      "onset": 22552,
      "duration": 67,
      "id_score": 13.27,
      "voice_tag": "Background (Solid / Harmony)",
      "hue": 45.9,
      "sat": 58.9,
      "lightness": 60.3,
      "tonal_distance": 14.1,
      "regime_state": "TRANSITION SPIKE!"
    },
    {
      "pitch": 67,
      "velocity": 87,
      "onset": 22562,
      "duration": 78,
      "id_score": 1147.44,
      "voice_tag": "Voice 1 (Liquid / Melody)",
      "hue": 45.9,
      "sat": 58.8,
      "lightness": 60.3,
      "tonal_distance": 14.1,
      "regime_state": "Stable"
    },
    {
      "pitch": 57,
      "velocity": 71,
      "onset": 22572,
      "duration": 62,
      "id_score": 559.06,
      "voice_tag": "Voice 1 (Liquid / Melody)",
      "hue": 46.0,
      "sat": 58.7,
      "lightness": 60.3,
      "tonal_distance": 14.0,
      "regime_state": "Stable"
    },
    {
      "pitch": 60,
      "velocity": 63,
      "onset": 22593,
      "duration": 67,
      "id_score": 70.87,
      "voice_tag": "Voice 1 (Liquid / Melody)",
      "hue": 45.9,
      "sat": 58.7,
      "lightness": 60.4,
      "tonal_distance": 14.1,
      "regime_state": "Stable"
    },
    {
      "pitch": 57,
      "velocity": 73,
      "onset": 22750,
      "duration": 83,
      "id_score": 10.98,
      "voice_tag": "Background (Solid / Harmony)",
      "hue": 44.7,
      "sat": 59.1,
      "lightness": 59.5,
      "tonal_distance": 14.7,
      "regime_state": "TRANSITION SPIKE!"
    },
    {
      "pitch": 53,
      "velocity": 83,
      "onset": 22770,
      "duration": 78,
      "id_score": 130.71,
      "voice_tag": "Voice 1 (Liquid / Melody)",
      "hue": 44.6,
      "sat": 59.0,
      "lightness": 59.5,
      "tonal_distance": 14.6,
      "regime_state": "Stable"
    },
    {
      "pitch": 60,
      "velocity": 62,
      "onset": 22770,
      "duration": 67,
      "id_score": 0.0,
      "voice_tag": "Background (Solid / Harmony)",
      "hue": 44.6,
      "sat": 59.0,
      "lightness": 59.5,
      "tonal_distance": 14.6,
      "regime_state": "Stable"
    },
    {
      "pitch": 69,
      "velocity": 82,
      "onset": 22776,
      "duration": 72,
      "id_score": 1113.78,
      "voice_tag": "Voice 1 (Liquid / Melody)",
      "hue": 44.7,
      "sat": 59.0,
      "lightness": 59.5,
      "tonal_distance": 14.7,
      "regime_state": "Stable"
    },
    {
      "pitch": 50,
      "velocity": 87,
      "onset": 22989,
      "duration": 52,
      "id_score": 61.11,
      "voice_tag": "Voice 1 (Liquid / Melody)",
      "hue": 44.5,
      "sat": 56.6,
      "lightness": 59.1,
      "tonal_distance": 14.5,
      "regime_state": "TRANSITION SPIKE!"
    },
    {
      "pitch": 57,
      "velocity": 88,
      "onset": 22994,
      "duration": 46,
      "id_score": 970.08,
      "voice_tag": "Voice 1 (Liquid / Melody)",
      "hue": 44.4,
      "sat": 56.6,
      "lightness": 59.1,
      "tonal_distance": 14.4,
      "regime_state": "Stable"
    },
    {
      "pitch": 65,
      "velocity": 98,
      "onset": 22994,
      "duration": 52,
      "id_score": 0.0,
      "voice_tag": "Background (Solid / Harmony)",
      "hue": 44.4,
      "sat": 56.6,
      "lightness": 59.1,
      "tonal_distance": 14.4,
      "regime_state": "Stable"
    },
    {
      "pitch": 60,
      "velocity": 84,
      "onset": 23000,
      "duration": 52,
      "id_score": 551.18,
      "voice_tag": "Voice 1 (Liquid / Melody)",
      "hue": 44.3,
      "sat": 56.5,
      "lightness": 59.1,
      "tonal_distance": 14.3,
      "regime_state": "Stable"
    },
    {
      "pitch": 53,
      "velocity": 96,
      "onset": 23463,
      "duration": 57,
      "id_score": 11.43,
      "voice_tag": "Background (Solid / Harmony)",
      "hue": 55.6,
      "sat": 51.9,
      "lightness": 57.7,
      "tonal_distance": 4.4,
      "regime_state": "TRANSITION SPIKE!"
    },
    {
      "pitch": 57,
      "velocity": 93,
      "onset": 23468,
      "duration": 46,
      "id_score": 585.83,
      "voice_tag": "Voice 1 (Liquid / Melody)",
      "hue": 55.6,
      "sat": 51.9,
      "lightness": 57.7,
      "tonal_distance": 4.4,
      "regime_state": "Stable"
    },
    {
      "pitch": 62,
      "velocity": 106,
      "onset": 23468,
      "duration": 46,
      "id_score": 0.0,
      "voice_tag": "Background (Solid / Harmony)",
      "hue": 55.6,
      "sat": 51.9,
      "lightness": 57.7,
      "tonal_distance": 4.4,
      "regime_state": "Stable"
    },
    {
      "pitch": 59,
      "velocity": 83,
      "onset": 23484,
      "duration": 46,
      "id_score": 122.54,
      "voice_tag": "Voice 1 (Liquid / Melody)",
      "hue": 55.0,
      "sat": 51.6,
      "lightness": 57.7,
      "tonal_distance": 5.0,
      "regime_state": "Stable"
    },
    {
      "pitch": 64,
      "velocity": 95,
      "onset": 24083,
      "duration": 1177,
      "id_score": 6.66,
      "voice_tag": "Background (Solid / Harmony)",
      "hue": 54.4,
      "sat": 50.4,
      "lightness": 57.0,
      "tonal_distance": 5.6,
      "regime_state": "TRANSITION SPIKE!"
    },
    {
      "pitch": 52,
      "velocity": 72,
      "onset": 24088,
      "duration": 911,
      "id_score": 1360.63,
      "voice_tag": "Voice 1 (Liquid / Melody)",
      "hue": 54.4,
      "sat": 50.3,
      "lightness": 57.0,
      "tonal_distance": 5.6,
      "regime_state": "Stable"
    },
    {
      "pitch": 56,
      "velocity": 74,
      "onset": 24088,
      "duration": 1109,
      "id_score": 0.0,
      "voice_tag": "Background (Solid / Harmony)",
      "hue": 54.4,
      "sat": 50.3,
      "lightness": 57.0,
      "tonal_distance": 5.6,
      "regime_state": "Stable"
    },
    {
      "pitch": 59,
      "velocity": 65,
      "onset": 24104,
      "duration": 1119,
      "id_score": 95.96,
      "voice_tag": "Voice 1 (Liquid / Melody)",
      "hue": 54.4,
      "sat": 50.3,
      "lightness": 57.0,
      "tonal_distance": 5.6,
      "regime_state": "Stable"
    },
    {
      "pitch": 45,
      "velocity": 64,
      "onset": 25656,
      "duration": 447,
      "id_score": 4.55,
      "voice_tag": "Background (Solid / Harmony)",
      "hue": 59.3,
      "sat": 52.8,
      "lightness": 55.3,
      "tonal_distance": 0.7,
      "regime_state": "TRANSITION SPIKE!"
    },
    {
      "pitch": 52,
      "velocity": 52,
      "onset": 26119,
      "duration": 72,
      "id_score": 6.19,
      "voice_tag": "Background (Solid / Harmony)",
      "hue": 56.0,
      "sat": 55.4,
      "lightness": 55.3,
      "tonal_distance": 4.0,
      "regime_state": "TRANSITION SPIKE!"
    },
    {
      "pitch": 60,
      "velocity": 33,
      "onset": 26145,
      "duration": 52,
      "id_score": 79.95,
      "voice_tag": "Voice 1 (Liquid / Melody)",
      "hue": 56.1,
      "sat": 55.5,
      "lightness": 55.3,
      "tonal_distance": 3.9,
      "regime_state": "Stable"
    },
    {
      "pitch": 52,
      "velocity": 63,
      "onset": 26536,
      "duration": 62,
      "id_score": 10.15,
      "voice_tag": "Background (Solid / Harmony)",
      "hue": 52.6,
      "sat": 58.7,
      "lightness": 55.5,
      "tonal_distance": 7.4,
      "regime_state": "TRANSITION SPIKE!"
    },
    {
      "pitch": 60,
      "velocity": 69,
      "onset": 26546,
      "duration": 62,
      "id_score": 434.65,
      "voice_tag": "Voice 1 (Liquid / Melody)",
      "hue": 52.7,
      "sat": 58.6,
      "lightness": 55.5,
      "tonal_distance": 7.3,
      "regime_state": "Stable"
    },
    {
      "pitch": 45,
      "velocity": 57,
      "onset": 27000,
      "duration": 458,
      "id_score": 14.83,
      "voice_tag": "Background (Solid / Harmony)",
      "hue": 55.6,
      "sat": 59.7,
      "lightness": 53.7,
      "tonal_distance": 4.4,
      "regime_state": "TRANSITION SPIKE!"
    },
    {
      "pitch": 52,
      "velocity": 70,
      "onset": 27458,
      "duration": 67,
      "id_score": 8.42,
      "voice_tag": "Background (Solid / Harmony)",
      "hue": 49.7,
      "sat": 63.2,
      "lightness": 54.4,
      "tonal_distance": 10.3,
      "regime_state": "TRANSITION SPIKE!"
    },
    {
      "pitch": 60,
      "velocity": 71,
      "onset": 27468,
      "duration": 57,
      "id_score": 447.24,
      "voice_tag": "Voice 1 (Liquid / Melody)",
      "hue": 49.9,
      "sat": 63.3,
      "lightness": 54.4,
      "tonal_distance": 10.1,
      "regime_state": "Stable"
    },
    {
      "pitch": 52,
      "velocity": 55,
      "onset": 27927,
      "duration": 72,
      "id_score": 7.55,
      "voice_tag": "Background (Solid / Harmony)",
      "hue": 45.5,
      "sat": 66.0,
      "lightness": 54.9,
      "tonal_distance": 14.5,
      "regime_state": "TRANSITION SPIKE!"
    },
    {
      "pitch": 60,
      "velocity": 65,
      "onset": 27927,
      "duration": 62,
      "id_score": 0.0,
      "voice_tag": "Background (Solid / Harmony)",
      "hue": 45.5,
      "sat": 66.0,
      "lightness": 54.9,
      "tonal_distance": 14.5,
      "regime_state": "TRANSITION SPIKE!"
    },
    {
      "pitch": 45,
      "velocity": 44,
      "onset": 28364,
      "duration": 343,
      "id_score": 11.89,
      "voice_tag": "Background (Solid / Harmony)",
      "hue": 50.8,
      "sat": 70.7,
      "lightness": 54.7,
      "tonal_distance": 9.2,
      "regime_state": "TRANSITION SPIKE!"
    },
    {
      "pitch": 64,
      "velocity": 75,
      "onset": 28369,
      "duration": 276,
      "id_score": 2393.7,
      "voice_tag": "Voice 1 (Liquid / Melody)",
      "hue": 50.8,
      "sat": 70.7,
      "lightness": 54.7,
      "tonal_distance": 9.2,
      "regime_state": "Stable"
    },
    {
      "pitch": 60,
      "velocity": 58,
      "onset": 28791,
      "duration": 78,
      "id_score": 4.33,
      "voice_tag": "Background (Solid / Harmony)",
      "hue": 50.3,
      "sat": 52.9,
      "lightness": 56.1,
      "tonal_distance": 9.7,
      "regime_state": "TRANSITION SPIKE!"
    },
    {
      "pitch": 52,
      "velocity": 44,
      "onset": 28796,
      "duration": 78,
      "id_score": 554.33,
      "voice_tag": "Voice 1 (Liquid / Melody)",
      "hue": 50.4,
      "sat": 52.9,
      "lightness": 56.1,
      "tonal_distance": 9.6,
      "regime_state": "Undefined / Gray Void"
    },
    {
      "pitch": 66,
      "velocity": 88,
      "onset": 28796,
      "duration": 62,
      "id_score": 0.0,
      "voice_tag": "Background (Solid / Harmony)",
      "hue": 50.4,
      "sat": 52.9,
      "lightness": 56.1,
      "tonal_distance": 9.6,
      "regime_state": "Undefined / Gray Void"
    },
    {
      "pitch": 68,
      "velocity": 87,
      "onset": 29000,
      "duration": 67,
      "id_score": 7.61,
      "voice_tag": "Background (Solid / Harmony)",
      "hue": 36.3,
      "sat": 45.1,
      "lightness": 57.1,
      "tonal_distance": 6.3,
      "regime_state": "TRANSITION SPIKE!"
    },
    {
      "pitch": 60,
      "velocity": 62,
      "onset": 29218,
      "duration": 67,
      "id_score": 17.92,
      "voice_tag": "Background (Solid / Harmony)",
      "hue": 43.1,
      "sat": 51.4,
      "lightness": 57.9,
      "tonal_distance": 13.1,
      "regime_state": "TRANSITION SPIKE!"
    },
    {
      "pitch": 52,
      "velocity": 53,
      "onset": 29223,
      "duration": 78,
      "id_score": 667.72,
      "voice_tag": "Voice 1 (Liquid / Melody)",
      "hue": 43.1,
      "sat": 51.3,
      "lightness": 57.9,
      "tonal_distance": 13.1,
      "regime_state": "Stable"
    },
    {
      "pitch": 69,
      "velocity": 80,
      "onset": 29234,
      "duration": 52,
      "id_score": 1119.54,
      "voice_tag": "Voice 1 (Liquid / Melody)",
      "hue": 43.0,
      "sat": 51.3,
      "lightness": 57.9,
      "tonal_distance": 13.0,
      "regime_state": "Stable"
    },
    {
      "pitch": 45,
      "velocity": 68,
      "onset": 29619,
      "duration": 239,
      "id_score": 33.38,
      "voice_tag": "Background (Solid / Harmony)",
      "hue": 54.4,
      "sat": 56.8,
      "lightness": 57.1,
      "tonal_distance": 5.6,
      "regime_state": "TRANSITION SPIKE!"
    },
    {
      "pitch": 69,
      "velocity": 93,
      "onset": 29635,
      "duration": 317,
      "id_score": 1263.19,
      "voice_tag": "Voice 1 (Liquid / Melody)",
      "hue": 54.4,
      "sat": 56.9,
      "lightness": 57.1,
      "tonal_distance": 5.6,
      "regime_state": "Regime Locked"
    },
    {
      "pitch": 71,
      "velocity": 83,
      "onset": 30067,
      "duration": 57,
      "id_score": 3.58,
      "voice_tag": "Background (Solid / Harmony)",
      "hue": 71.0,
      "sat": 54.2,
      "lightness": 58.0,
      "tonal_distance": 11.0,
      "regime_state": "TRANSITION SPIKE!"
    },
    {
      "pitch": 62,
      "velocity": 70,
      "onset": 30083,
      "duration": 88,
      "id_score": 320.37,
      "voice_tag": "Voice 1 (Liquid / Melody)",
      "hue": 71.0,
      "sat": 54.3,
      "lightness": 58.0,
      "tonal_distance": 11.0,
      "regime_state": "Stable"
    },
    {
      "pitch": 52,
      "velocity": 46,
      "onset": 30093,
      "duration": 93,
      "id_score": 362.2,
      "voice_tag": "Voice 1 (Liquid / Melody)",
      "hue": 72.2,
      "sat": 54.5,
      "lightness": 58.0,
      "tonal_distance": 12.2,
      "regime_state": "Stable"
    },
    {
      "pitch": 68,
      "velocity": 82,
      "onset": 30276,
      "duration": 62,
      "id_score": 63.98,
      "voice_tag": "Voice 1 (Liquid / Melody)",
      "hue": 63.2,
      "sat": 44.8,
      "lightness": 58.7,
      "tonal_distance": 3.2,
      "regime_state": "Undefined / Gray Void"
    },
    {
      "pitch": 62,
      "velocity": 72,
      "onset": 30484,
      "duration": 72,
      "id_score": 16.9,
      "voice_tag": "Background (Solid / Harmony)",
      "hue": 77.7,
      "sat": 38.6,
      "lightness": 59.2,
      "tonal_distance": 12.3,
      "regime_state": "Undefined / Gray Void"
    },
    {
      "pitch": 52,
      "velocity": 50,
      "onset": 30494,
      "duration": 67,
      "id_score": 393.7,
      "voice_tag": "Voice 1 (Liquid / Melody)",
      "hue": 77.7,
      "sat": 38.6,
      "lightness": 59.2,
      "tonal_distance": 12.3,
      "regime_state": "Undefined / Gray Void"
    },
    {
      "pitch": 66,
      "velocity": 90,
      "onset": 30500,
      "duration": 62,
      "id_score": 1818.9,
      "voice_tag": "Voice 1 (Liquid / Melody)",
      "hue": 77.8,
      "sat": 38.5,
      "lightness": 59.3,
      "tonal_distance": 12.2,
      "regime_state": "Undefined / Gray Void"
    },
    {
      "pitch": 69,
      "velocity": 73,
      "onset": 30859,
      "duration": 62,
      "id_score": 5.52,
      "voice_tag": "Background (Solid / Harmony)",
      "hue": 80.9,
      "sat": 45.5,
      "lightness": 58.5,
      "tonal_distance": 9.1,
      "regime_state": "TRANSITION SPIKE!"
    },
    {
      "pitch": 45,
      "velocity": 51,
      "onset": 30885,
      "duration": 427,
      "id_score": 370.68,
      "voice_tag": "Voice 1 (Liquid / Melody)",
      "hue": 89.7,
      "sat": 37.6,
      "lightness": 59.0,
      "tonal_distance": 0.3,
      "regime_state": "Regime Locked"
    },
    {
      "pitch": 66,
      "velocity": 87,
      "onset": 30911,
      "duration": 52,
      "id_score": 608.63,
      "voice_tag": "Voice 1 (Liquid / Melody)",
      "hue": 89.8,
      "sat": 37.6,
      "lightness": 59.0,
      "tonal_distance": 0.2,
      "regime_state": "Stable"
    },
    {
      "pitch": 64,
      "velocity": 86,
      "onset": 31343,
      "duration": 1348,
      "id_score": 3.34,
      "voice_tag": "Background (Solid / Harmony)",
      "hue": 75.2,
      "sat": 42.9,
      "lightness": 59.3,
      "tonal_distance": 14.8,
      "regime_state": "TRANSITION SPIKE!"
    },
    {
      "pitch": 52,
      "velocity": 53,
      "onset": 31348,
      "duration": 78,
      "id_score": 1001.57,
      "voice_tag": "Voice 1 (Liquid / Melody)",
      "hue": 75.2,
      "sat": 42.8,
      "lightness": 59.3,
      "tonal_distance": 14.8,
      "regime_state": "Regime Locked"
    },
    {
      "pitch": 60,
      "velocity": 60,
      "onset": 31354,
      "duration": 67,
      "id_score": 629.92,
      "voice_tag": "Voice 1 (Liquid / Melody)",
      "hue": 75.2,
      "sat": 42.9,
      "lightness": 59.3,
      "tonal_distance": 14.8,
      "regime_state": "Stable"
    },
    {
      "pitch": 60,
      "velocity": 64,
      "onset": 31796,
      "duration": 67,
      "id_score": 0.0,
      "voice_tag": "Background (Solid / Harmony)",
      "hue": 66.0,
      "sat": 44.6,
      "lightness": 59.4,
      "tonal_distance": 6.0,
      "regime_state": "TRANSITION SPIKE!"
    },
    {
      "pitch": 52,
      "velocity": 57,
      "onset": 31802,
      "duration": 72,
      "id_score": 598.43,
      "voice_tag": "Voice 1 (Liquid / Melody)",
      "hue": 66.3,
      "sat": 44.8,
      "lightness": 59.3,
      "tonal_distance": 6.3,
      "regime_state": "Stable"
    },
    {
      "pitch": 45,
      "velocity": 57,
      "onset": 32296,
      "duration": 291,
      "id_score": 6.36,
      "voice_tag": "Background (Solid / Harmony)",
      "hue": 69.5,
      "sat": 47.3,
      "lightness": 58.0,
      "tonal_distance": 9.5,
      "regime_state": "TRANSITION SPIKE!"
    },
    {
      "pitch": 52,
      "velocity": 64,
      "onset": 32713,
      "duration": 72,
      "id_score": 8.46,
      "voice_tag": "Background (Solid / Harmony)",
      "hue": 61.8,
      "sat": 49.9,
      "lightness": 58.0,
      "tonal_distance": 1.8,
      "regime_state": "TRANSITION SPIKE!"
    },
    {
      "pitch": 60,
      "velocity": 68,
      "onset": 32718,
      "duration": 62,
      "id_score": 856.69,
      "voice_tag": "Voice 1 (Liquid / Melody)",
      "hue": 61.8,
      "sat": 49.9,
      "lightness": 58.0,
      "tonal_distance": 1.8,
      "regime_state": "Stable"
    },
    {
      "pitch": 60,
      "velocity": 75,
      "onset": 33177,
      "duration": 57,
      "id_score": 0.0,
      "voice_tag": "Background (Solid / Harmony)",
      "hue": 53.0,
      "sat": 49.9,
      "lightness": 58.7,
      "tonal_distance": 7.0,
      "regime_state": "TRANSITION SPIKE!"
    },
    {
      "pitch": 52,
      "velocity": 23,
      "onset": 33229,
      "duration": 57,
      "id_score": 27.86,
      "voice_tag": "Background (Solid / Harmony)",
      "hue": 53.2,
      "sat": 51.4,
      "lightness": 58.5,
      "tonal_distance": 6.8,
      "regime_state": "Stable"
    },
    {
      "pitch": 45,
      "velocity": 54,
      "onset": 33635,
      "duration": 322,
      "id_score": 7.33,
      "voice_tag": "Background (Solid / Harmony)",
      "hue": 58.5,
      "sat": 52.7,
      "lightness": 57.0,
      "tonal_distance": 1.5,
      "regime_state": "TRANSITION SPIKE!"
    },
    {
      "pitch": 64,
      "velocity": 73,
      "onset": 33875,
      "duration": 72,
      "id_score": 48.54,
      "voice_tag": "Background (Solid / Harmony)",
      "hue": 58.5,
      "sat": 56.9,
      "lightness": 57.7,
      "tonal_distance": 1.5,
      "regime_state": "TRANSITION SPIKE!"
    },
    {
      "pitch": 60,
      "velocity": 62,
      "onset": 34078,
      "duration": 72,
      "id_score": 9.62,
      "voice_tag": "Background (Solid / Harmony)",
      "hue": 58.1,
      "sat": 44.7,
      "lightness": 58.5,
      "tonal_distance": 1.9,
      "regime_state": "TRANSITION SPIKE!"
    },
    {
      "pitch": 52,
      "velocity": 47,
      "onset": 34083,
      "duration": 78,
      "id_score": 592.13,
      "voice_tag": "Voice 1 (Liquid / Melody)",
      "hue": 58.2,
      "sat": 44.9,
      "lightness": 58.4,
      "tonal_distance": 1.8,
      "regime_state": "Undefined / Gray Void"
    },
    {
      "pitch": 66,
      "velocity": 90,
      "onset": 34083,
      "duration": 62,
      "id_score": 0.0,
      "voice_tag": "Background (Solid / Harmony)",
      "hue": 58.2,
      "sat": 44.9,
      "lightness": 58.4,
      "tonal_distance": 1.8,
      "regime_state": "Undefined / Gray Void"
    },
    {
      "pitch": 68,
      "velocity": 85,
      "onset": 34307,
      "duration": 57,
      "id_score": 6.77,
      "voice_tag": "Background (Solid / Harmony)",
      "hue": 46.3,
      "sat": 37.3,
      "lightness": 59.1,
      "tonal_distance": 13.7,
      "regime_state": "TRANSITION SPIKE!"
    },
    {
      "pitch": 60,
      "velocity": 70,
      "onset": 34515,
      "duration": 57,
      "id_score": 21.2,
      "voice_tag": "Background (Solid / Harmony)",
      "hue": 30.0,
      "sat": 38.9,
      "lightness": 59.4,
      "tonal_distance": 0.0,
      "regime_state": "TRANSITION SPIKE!"
    },
    {
      "pitch": 68,
      "velocity": 78,
      "onset": 34515,
      "duration": 244,
      "id_score": 0.0,
      "voice_tag": "Background (Solid / Harmony)",
      "hue": 30.0,
      "sat": 38.9,
      "lightness": 59.4,
      "tonal_distance": 0.0,
      "regime_state": "TRANSITION SPIKE!"
    },
    {
      "pitch": 52,
      "velocity": 56,
      "onset": 34526,
      "duration": 67,
      "id_score": 641.37,
      "voice_tag": "Voice 1 (Liquid / Melody)",
      "hue": 30.5,
      "sat": 38.8,
      "lightness": 59.4,
      "tonal_distance": 0.5,
      "regime_state": "Stable"
    },
    {
      "pitch": 69,
      "velocity": 76,
      "onset": 34755,
      "duration": 145,
      "id_score": 51.09,
      "voice_tag": "Voice 1 (Liquid / Melody)",
      "hue": 38.8,
      "sat": 40.2,
      "lightness": 59.8,
      "tonal_distance": 8.8,
      "regime_state": "TRANSITION SPIKE!"
    },
    {
      "pitch": 45,
      "velocity": 60,
      "onset": 34984,
      "duration": 281,
      "id_score": 49.51,
      "voice_tag": "Background (Solid / Harmony)",
      "hue": 44.8,
      "sat": 42.5,
      "lightness": 58.4,
      "tonal_distance": 14.8,
      "regime_state": "TRANSITION SPIKE!"
    },
    {
      "pitch": 69,
      "velocity": 83,
      "onset": 35218,
      "duration": 72,
      "id_score": 77.08,
      "voice_tag": "Voice 1 (Liquid / Melody)",
      "hue": 53.4,
      "sat": 46.0,
      "lightness": 58.8,
      "tonal_distance": 6.6,
      "regime_state": "TRANSITION SPIKE!"
    },
    {
      "pitch": 52,
      "velocity": 72,
      "onset": 35421,
      "duration": 67,
      "id_score": 47.48,
      "voice_tag": "Background (Solid / Harmony)",
      "hue": 72.6,
      "sat": 46.4,
      "lightness": 59.2,
      "tonal_distance": 12.6,
      "regime_state": "TRANSITION SPIKE!"
    },
    {
      "pitch": 71,
      "velocity": 91,
      "onset": 35421,
      "duration": 72,
      "id_score": 0.0,
      "voice_tag": "Background (Solid / Harmony)",
      "hue": 72.6,
      "sat": 46.4,
      "lightness": 59.2,
      "tonal_distance": 12.6,
      "regime_state": "TRANSITION SPIKE!"
    },
    {
      "pitch": 62,
      "velocity": 87,
      "onset": 35427,
      "duration": 52,
      "id_score": 1061.81,
      "voice_tag": "Voice 1 (Liquid / Melody)",
      "hue": 72.4,
      "sat": 46.2,
      "lightness": 59.2,
      "tonal_distance": 12.4,
      "regime_state": "Stable"
    },
    {
      "pitch": 68,
      "velocity": 90,
      "onset": 35625,
      "duration": 52,
      "id_score": 24.34,
      "voice_tag": "Background (Solid / Harmony)",
      "hue": 63.6,
      "sat": 37.8,
      "lightness": 59.8,
      "tonal_distance": 3.6,
      "regime_state": "TRANSITION SPIKE!"
    },
    {
      "pitch": 62,
      "velocity": 74,
      "onset": 35838,
      "duration": 67,
      "id_score": 16.96,
      "voice_tag": "Background (Solid / Harmony)",
      "hue": 61.0,
      "sat": 34.5,
      "lightness": 60.0,
      "tonal_distance": 1.0,
      "regime_state": "Undefined / Gray Void"
    },
    {
      "pitch": 52,
      "velocity": 52,
      "onset": 35843,
      "duration": 67,
      "id_score": 818.9,
      "voice_tag": "Voice 1 (Liquid / Melody)",
      "hue": 61.0,
      "sat": 34.5,
      "lightness": 60.0,
      "tonal_distance": 1.0,
      "regime_state": "Undefined / Gray Void"
    },
    {
      "pitch": 68,
      "velocity": 88,
      "onset": 35848,
      "duration": 192,
      "id_score": 2512.97,
      "voice_tag": "Voice 1 (Liquid / Melody)",
      "hue": 61.1,
      "sat": 34.5,
      "lightness": 60.0,
      "tonal_distance": 1.1,
      "regime_state": "Undefined / Gray Void"
    },
    {
      "pitch": 66,
      "velocity": 82,
      "onset": 36057,
      "duration": 62,
      "id_score": 6.8,
      "voice_tag": "Background (Solid / Harmony)",
      "hue": 67.9,
      "sat": 26.9,
      "lightness": 60.3,
      "tonal_distance": 7.9,
      "regime_state": "Undefined / Gray Void"
    },
    {
      "pitch": 45,
      "velocity": 58,
      "onset": 36281,
      "duration": 375,
      "id_score": 42.81,
      "voice_tag": "Background (Solid / Harmony)",
      "hue": 84.0,
      "sat": 26.6,
      "lightness": 59.8,
      "tonal_distance": 6.0,
      "regime_state": "TRANSITION SPIKE!"
    },
    {
      "pitch": 69,
      "velocity": 65,
      "onset": 36302,
      "duration": 52,
      "id_score": 672.67,
      "voice_tag": "Voice 1 (Liquid / Melody)",
      "hue": 84.0,
      "sat": 26.6,
      "lightness": 59.8,
      "tonal_distance": 6.0,
      "regime_state": "Stable"
    },
    {
      "pitch": 66,
      "velocity": 96,
      "onset": 36322,
      "duration": 41,
      "id_score": 124.72,
      "voice_tag": "Voice 1 (Liquid / Melody)",
      "hue": 83.6,
      "sat": 26.6,
      "lightness": 59.8,
      "tonal_distance": 6.4,
      "regime_state": "Stable"
    },
    {
      "pitch": 52,
      "velocity": 54,
      "onset": 36765,
      "duration": 72,
      "id_score": 13.44,
      "voice_tag": "Background (Solid / Harmony)",
      "hue": 67.2,
      "sat": 33.7,
      "lightness": 59.9,
      "tonal_distance": 7.2,
      "regime_state": "TRANSITION SPIKE!"
    },
    {
      "pitch": 60,
      "velocity": 64,
      "onset": 36765,
      "duration": 62,
      "id_score": 0.0,
      "voice_tag": "Background (Solid / Harmony)",
      "hue": 67.2,
      "sat": 33.7,
      "lightness": 59.9,
      "tonal_distance": 7.2,
      "regime_state": "TRANSITION SPIKE!"
    },
    {
      "pitch": 64,
      "velocity": 79,
      "onset": 36776,
      "duration": 1312,
      "id_score": 241.28,
      "voice_tag": "Voice 1 (Liquid / Melody)",
      "hue": 67.3,
      "sat": 33.8,
      "lightness": 59.9,
      "tonal_distance": 7.3,
      "regime_state": "Stable"
    },
    {
      "pitch": 60,
      "velocity": 82,
      "onset": 37218,
      "duration": 52,
      "id_score": 5.84,
      "voice_tag": "Background (Solid / Harmony)",
      "hue": 56.0,
      "sat": 38.0,
      "lightness": 59.8,
      "tonal_distance": 4.0,
      "regime_state": "TRANSITION SPIKE!"
    },
    {
      "pitch": 52,
      "velocity": 58,
      "onset": 37229,
      "duration": 67,
      "id_score": 332.14,
      "voice_tag": "Voice 1 (Liquid / Melody)",
      "hue": 56.1,
      "sat": 37.9,
      "lightness": 59.8,
      "tonal_distance": 3.9,
      "regime_state": "Stable"
    },
    {
      "pitch": 45,
      "velocity": 72,
      "onset": 37703,
      "duration": 437,
      "id_score": 8.37,
      "voice_tag": "Background (Solid / Harmony)",
      "hue": 61.7,
      "sat": 40.3,
      "lightness": 58.2,
      "tonal_distance": 1.7,
      "regime_state": "TRANSITION SPIKE!"
    },
    {
      "pitch": 52,
      "velocity": 72,
      "onset": 38161,
      "duration": 62,
      "id_score": 8.66,
      "voice_tag": "Background (Solid / Harmony)",
      "hue": 54.0,
      "sat": 44.7,
      "lightness": 58.1,
      "tonal_distance": 6.0,
      "regime_state": "TRANSITION SPIKE!"
    },
    {
      "pitch": 60,
      "velocity": 76,
      "onset": 38171,
      "duration": 57,
      "id_score": 478.74,
      "voice_tag": "Voice 1 (Liquid / Melody)",
      "hue": 54.1,
      "sat": 44.7,
      "lightness": 58.1,
      "tonal_distance": 5.9,
      "regime_state": "Stable"
    },
    {
      "pitch": 52,
      "velocity": 60,
      "onset": 38598,
      "duration": 62,
      "id_score": 8.85,
      "voice_tag": "Background (Solid / Harmony)",
      "hue": 47.0,
      "sat": 49.2,
      "lightness": 58.4,
      "tonal_distance": 13.0,
      "regime_state": "TRANSITION SPIKE!"
    },
    {
      "pitch": 60,
      "velocity": 84,
      "onset": 38609,
      "duration": 52,
      "id_score": 481.03,
      "voice_tag": "Voice 1 (Liquid / Melody)",
      "hue": 47.0,
      "sat": 49.0,
      "lightness": 58.4,
      "tonal_distance": 13.0,
      "regime_state": "Stable"
    },
    {
      "pitch": 67,
      "velocity": 84,
      "onset": 39052,
      "duration": 52,
      "id_score": 11.67,
      "voice_tag": "Background (Solid / Harmony)",
      "hue": 43.8,
      "sat": 58.9,
      "lightness": 61.0,
      "tonal_distance": 13.8,
      "regime_state": "TRANSITION SPIKE!"
    },
    {
      "pitch": 60,
      "velocity": 68,
      "onset": 39062,
      "duration": 62,
      "id_score": 374.8,
      "voice_tag": "Voice 1 (Liquid / Melody)",
      "hue": 43.8,
      "sat": 58.9,
      "lightness": 61.0,
      "tonal_distance": 13.8,
      "regime_state": "Stable"
    },
    {
      "pitch": 76,
      "velocity": 79,
      "onset": 39062,
      "duration": 52,
      "id_score": 0.0,
      "voice_tag": "Background (Solid / Harmony)",
      "hue": 43.8,
      "sat": 58.9,
      "lightness": 61.0,
      "tonal_distance": 13.8,
      "regime_state": "Stable"
    },
    {
      "pitch": 64,
      "velocity": 63,
      "onset": 39078,
      "duration": 78,
      "id_score": 396.85,
      "voice_tag": "Voice 1 (Liquid / Melody)",
      "hue": 43.7,
      "sat": 59.1,
      "lightness": 61.0,
      "tonal_distance": 13.7,
      "regime_state": "Stable"
    },
    {
      "pitch": 65,
      "velocity": 82,
      "onset": 39520,
      "duration": 62,
      "id_score": 1.58,
      "voice_tag": "Background (Solid / Harmony)",
      "hue": 28.6,
      "sat": 56.0,
      "lightness": 63.0,
      "tonal_distance": 1.4,
      "regime_state": "TRANSITION SPIKE!"
    },
    {
      "pitch": 68,
      "velocity": 97,
      "onset": 39520,
      "duration": 46,
      "id_score": 0.0,
      "voice_tag": "Background (Solid / Harmony)",
      "hue": 28.6,
      "sat": 56.0,
      "lightness": 63.0,
      "tonal_distance": 1.4,
      "regime_state": "TRANSITION SPIKE!"
    },
    {
      "pitch": 76,
      "velocity": 83,
      "onset": 39526,
      "duration": 46,
      "id_score": 1103.76,
      "voice_tag": "Voice 1 (Liquid / Melody)",
      "hue": 28.7,
      "sat": 56.0,
      "lightness": 63.0,
      "tonal_distance": 1.3,
      "regime_state": "Stable"
    },
    {
      "pitch": 60,
      "velocity": 72,
      "onset": 39541,
      "duration": 67,
      "id_score": 604.72,
      "voice_tag": "Voice 1 (Liquid / Melody)",
      "hue": 28.5,
      "sat": 55.9,
      "lightness": 62.9,
      "tonal_distance": 1.5,
      "regime_state": "Stable"
    },
    {
      "pitch": 66,
      "velocity": 96,
      "onset": 39953,
      "duration": 41,
      "id_score": 12.11,
      "voice_tag": "Background (Solid / Harmony)",
      "hue": 33.9,
      "sat": 49.1,
      "lightness": 64.5,
      "tonal_distance": 3.9,
      "regime_state": "TRANSITION SPIKE!"
    },
    {
      "pitch": 76,
      "velocity": 96,
      "onset": 39958,
      "duration": 41,
      "id_score": 1914.96,
      "voice_tag": "Voice 1 (Liquid / Melody)",
      "hue": 33.9,
      "sat": 49.2,
      "lightness": 64.5,
      "tonal_distance": 3.9,
      "regime_state": "Undefined / Gray Void"
    },
    {
      "pitch": 60,
      "velocity": 86,
      "onset": 39973,
      "duration": 46,
      "id_score": 722.31,
      "voice_tag": "Voice 1 (Liquid / Melody)",
      "hue": 34.0,
      "sat": 49.3,
      "lightness": 64.5,
      "tonal_distance": 4.0,
      "regime_state": "Stable"
    },
    {
      "pitch": 69,
      "velocity": 81,
      "onset": 39973,
      "duration": 46,
      "id_score": 0.0,
      "voice_tag": "Background (Solid / Harmony)",
      "hue": 34.0,
      "sat": 49.3,
      "lightness": 64.5,
      "tonal_distance": 4.0,
      "regime_state": "Stable"
    },
    {
      "pitch": 76,
      "velocity": 95,
      "onset": 40395,
      "duration": 156,
      "id_score": 15.72,
      "voice_tag": "Background (Solid / Harmony)",
      "hue": 47.5,
      "sat": 51.5,
      "lightness": 64.9,
      "tonal_distance": 12.5,
      "regime_state": "TRANSITION SPIKE!"
    },
    {
      "pitch": 71,
      "velocity": 83,
      "onset": 40411,
      "duration": 1041,
      "id_score": 241.67,
      "voice_tag": "Voice 1 (Liquid / Melody)",
      "hue": 47.6,
      "sat": 51.5,
      "lightness": 64.9,
      "tonal_distance": 12.4,
      "regime_state": "Stable"
    },
    {
      "pitch": 62,
      "velocity": 84,
      "onset": 40416,
      "duration": 1041,
      "id_score": 1230.24,
      "voice_tag": "Voice 1 (Liquid / Melody)",
      "hue": 47.4,
      "sat": 51.5,
      "lightness": 64.9,
      "tonal_distance": 12.6,
      "regime_state": "Stable"
    },
    {
      "pitch": 67,
      "velocity": 74,
      "onset": 40421,
      "duration": 1020,
      "id_score": 650.66,
      "voice_tag": "Voice 1 (Liquid / Melody)",
      "hue": 47.4,
      "sat": 51.5,
      "lightness": 64.9,
      "tonal_distance": 12.6,
      "regime_state": "Stable"
    },
    {
      "pitch": 55,
      "velocity": 72,
      "onset": 40427,
      "duration": 1052,
      "id_score": 1133.86,
      "voice_tag": "Voice 1 (Liquid / Melody)",
      "hue": 47.7,
      "sat": 51.5,
      "lightness": 64.9,
      "tonal_distance": 12.3,
      "regime_state": "Stable"
    },
    {
      "pitch": 74,
      "velocity": 78,
      "onset": 40562,
      "duration": 135,
      "id_score": 106.61,
      "voice_tag": "Voice 1 (Liquid / Melody)",
      "hue": 53.6,
      "sat": 51.0,
      "lightness": 65.7,
      "tonal_distance": 6.4,
      "regime_state": "TRANSITION SPIKE!"
    },
    {
      "pitch": 72,
      "velocity": 78,
      "onset": 40708,
      "duration": 52,
      "id_score": 10.1,
      "voice_tag": "Background (Solid / Harmony)",
      "hue": 49.2,
      "sat": 51.7,
      "lightness": 66.4,
      "tonal_distance": 10.8,
      "regime_state": "Stable"
    },
    {
      "pitch": 74,
      "velocity": 92,
      "onset": 40807,
      "duration": 625,
      "id_score": 18.05,
      "voice_tag": "Background (Solid / Harmony)",
      "hue": 55.0,
      "sat": 50.7,
      "lightness": 67.2,
      "tonal_distance": 5.0,
      "regime_state": "TRANSITION SPIKE!"
    },
    {
      "pitch": 60,
      "velocity": 79,
      "onset": 42015,
      "duration": 62,
      "id_score": 7.21,
      "voice_tag": "Background (Solid / Harmony)",
      "hue": 47.0,
      "sat": 58.3,
      "lightness": 67.3,
      "tonal_distance": 13.0,
      "regime_state": "TRANSITION SPIKE!"
    },
    {
      "pitch": 64,
      "velocity": 93,
      "onset": 42020,
      "duration": 52,
      "id_score": 624.88,
      "voice_tag": "Voice 1 (Liquid / Melody)",
      "hue": 47.0,
      "sat": 58.2,
      "lightness": 67.3,
      "tonal_distance": 13.0,
      "regime_state": "Stable"
    },
    {
      "pitch": 72,
      "velocity": 90,
      "onset": 42020,
      "duration": 57,
      "id_score": 0.0,
      "voice_tag": "Background (Solid / Harmony)",
      "hue": 47.0,
      "sat": 58.2,
      "lightness": 67.3,
      "tonal_distance": 13.0,
      "regime_state": "Stable"
    },
    {
      "pitch": 57,
      "velocity": 67,
      "onset": 42041,
      "duration": 67,
      "id_score": 376.83,
      "voice_tag": "Voice 1 (Liquid / Melody)",
      "hue": 47.0,
      "sat": 58.1,
      "lightness": 67.2,
      "tonal_distance": 13.0,
      "regime_state": "Stable"
    },
    {
      "pitch": 62,
      "velocity": 94,
      "onset": 42442,
      "duration": 72,
      "id_score": 9.54,
      "voice_tag": "Background (Solid / Harmony)",
      "hue": 45.0,
      "sat": 57.1,
      "lightness": 67.0,
      "tonal_distance": 15.0,
      "regime_state": "Undefined / Gray Void"
    },
    {
      "pitch": 65,
      "velocity": 97,
      "onset": 42442,
      "duration": 83,
      "id_score": 0.0,
      "voice_tag": "Background (Solid / Harmony)",
      "hue": 45.0,
      "sat": 57.1,
      "lightness": 67.0,
      "tonal_distance": 15.0,
      "regime_state": "Undefined / Gray Void"
    },
    {
      "pitch": 72,
      "velocity": 80,
      "onset": 42458,
      "duration": 98,
      "id_score": 330.71,
      "voice_tag": "Voice 1 (Liquid / Melody)",
      "hue": 44.9,
      "sat": 57.2,
      "lightness": 67.0,
      "tonal_distance": 14.9,
      "regime_state": "TRANSITION SPIKE!"
    },
    {
      "pitch": 57,
      "velocity": 71,
      "onset": 42468,
      "duration": 67,
      "id_score": 838.58,
      "voice_tag": "Voice 1 (Liquid / Melody)",
      "hue": 45.0,
      "sat": 57.2,
      "lightness": 67.0,
      "tonal_distance": 15.0,
      "regime_state": "Stable"
    },
    {
      "pitch": 63,
      "velocity": 98,
      "onset": 42901,
      "duration": 46,
      "id_score": 11.23,
      "voice_tag": "Background (Solid / Harmony)",
      "hue": 40.4,
      "sat": 41.3,
      "lightness": 66.7,
      "tonal_distance": 10.4,
      "regime_state": "TRANSITION SPIKE!"
    },
    {
      "pitch": 66,
      "velocity": 92,
      "onset": 42901,
      "duration": 46,
      "id_score": 0.0,
      "voice_tag": "Background (Solid / Harmony)",
      "hue": 40.4,
      "sat": 41.3,
      "lightness": 66.7,
      "tonal_distance": 10.4,
      "regime_state": "TRANSITION SPIKE!"
    },
    {
      "pitch": 72,
      "velocity": 91,
      "onset": 42901,
      "duration": 52,
      "id_score": 0.0,
      "voice_tag": "Background (Solid / Harmony)",
      "hue": 40.4,
      "sat": 41.3,
      "lightness": 66.7,
      "tonal_distance": 10.4,
      "regime_state": "TRANSITION SPIKE!"
    },
    {
      "pitch": 57,
      "velocity": 80,
      "onset": 42916,
      "duration": 52,
      "id_score": 629.92,
      "voice_tag": "Voice 1 (Liquid / Melody)",
      "hue": 40.5,
      "sat": 41.5,
      "lightness": 66.7,
      "tonal_distance": 10.5,
      "regime_state": "Undefined / Gray Void"
    },
    {
      "pitch": 72,
      "velocity": 91,
      "onset": 43333,
      "duration": 208,
      "id_score": 30.93,
      "voice_tag": "Background (Solid / Harmony)",
      "hue": 43.4,
      "sat": 45.8,
      "lightness": 66.2,
      "tonal_distance": 13.4,
      "regime_state": "TRANSITION SPIKE!"
    },
    {
      "pitch": 59,
      "velocity": 65,
      "onset": 43348,
      "duration": 1015,
      "id_score": 443.57,
      "voice_tag": "Voice 1 (Liquid / Melody)",
      "hue": 43.6,
      "sat": 45.9,
      "lightness": 66.2,
      "tonal_distance": 13.6,
      "regime_state": "Stable"
    },
    {
      "pitch": 64,
      "velocity": 73,
      "onset": 43348,
      "duration": 1010,
      "id_score": 0.0,
      "voice_tag": "Background (Solid / Harmony)",
      "hue": 43.6,
      "sat": 45.9,
      "lightness": 66.2,
      "tonal_distance": 13.6,
      "regime_state": "Stable"
    },
    {
      "pitch": 52,
      "velocity": 54,
      "onset": 43354,
      "duration": 1020,
      "id_score": 850.39,
      "voice_tag": "Voice 1 (Liquid / Melody)",
      "hue": 43.5,
      "sat": 45.9,
      "lightness": 66.2,
      "tonal_distance": 13.5,
      "regime_state": "Stable"
    },
    {
      "pitch": 67,
      "velocity": 51,
      "onset": 43369,
      "duration": 963,
      "id_score": 448.43,
      "voice_tag": "Voice 1 (Liquid / Melody)",
      "hue": 43.3,
      "sat": 45.7,
      "lightness": 66.2,
      "tonal_distance": 13.3,
      "regime_state": "Stable"
    },
    {
      "pitch": 71,
      "velocity": 73,
      "onset": 43526,
      "duration": 145,
      "id_score": 17.33,
      "voice_tag": "Background (Solid / Harmony)",
      "hue": 49.1,
      "sat": 42.7,
      "lightness": 66.2,
      "tonal_distance": 10.9,
      "regime_state": "TRANSITION SPIKE!"
    },
    {
      "pitch": 69,
      "velocity": 82,
      "onset": 43671,
      "duration": 135,
      "id_score": 10.24,
      "voice_tag": "Background (Solid / Harmony)",
      "hue": 53.5,
      "sat": 44.3,
      "lightness": 66.1,
      "tonal_distance": 6.5,
      "regime_state": "Stable"
    },
    {
      "pitch": 71,
      "velocity": 71,
      "onset": 43828,
      "duration": 489,
      "id_score": 8.43,
      "voice_tag": "Background (Solid / Harmony)",
      "hue": 59.0,
      "sat": 42.0,
      "lightness": 66.2,
      "tonal_distance": 1.0,
      "regime_state": "TRANSITION SPIKE!"
    },
    {
      "pitch": 71,
      "velocity": 64,
      "onset": 44942,
      "duration": 171,
      "id_score": 0.0,
      "voice_tag": "Background (Solid / Harmony)",
      "hue": 51.7,
      "sat": 36.6,
      "lightness": 65.5,
      "tonal_distance": 8.3,
      "regime_state": "TRANSITION SPIKE!"
    },
    {
      "pitch": 53,
      "velocity": 59,
      "onset": 44963,
      "duration": 1041,
      "id_score": 398.2,
      "voice_tag": "Voice 1 (Liquid / Melody)",
      "hue": 51.4,
      "sat": 36.6,
      "lightness": 65.5,
      "tonal_distance": 8.6,
      "regime_state": "Undefined / Gray Void"
    },
    {
      "pitch": 60,
      "velocity": 48,
      "onset": 44968,
      "duration": 1161,
      "id_score": 529.13,
      "voice_tag": "Voice 1 (Liquid / Melody)",
      "hue": 51.5,
      "sat": 36.7,
      "lightness": 65.5,
      "tonal_distance": 8.5,
      "regime_state": "Stable"
    },
    {
      "pitch": 65,
      "velocity": 38,
      "onset": 44968,
      "duration": 1083,
      "id_score": 0.0,
      "voice_tag": "Background (Solid / Harmony)",
      "hue": 51.5,
      "sat": 36.7,
      "lightness": 65.5,
      "tonal_distance": 8.5,
      "regime_state": "Stable"
    },
    {
      "pitch": 69,
      "velocity": 60,
      "onset": 45119,
      "duration": 151,
      "id_score": 14.39,
      "voice_tag": "Background (Solid / Harmony)",
      "hue": 57.5,
      "sat": 37.4,
      "lightness": 65.3,
      "tonal_distance": 2.5,
      "regime_state": "TRANSITION SPIKE!"
    },
    {
      "pitch": 67,
      "velocity": 65,
      "onset": 45276,
      "duration": 83,
      "id_score": 7.28,
      "voice_tag": "Background (Solid / Harmony)",
      "hue": 53.4,
      "sat": 40.1,
      "lightness": 65.4,
      "tonal_distance": 6.6,
      "regime_state": "TRANSITION SPIKE!"
    },
    {
      "pitch": 69,
      "velocity": 63,
      "onset": 45421,
      "duration": 552,
      "id_score": 7.87,
      "voice_tag": "Background (Solid / Harmony)",
      "hue": 57.5,
      "sat": 42.5,
      "lightness": 65.3,
      "tonal_distance": 2.5,
      "regime_state": "Regime Locked"
    },
    {
      "pitch": 67,
      "velocity": 86,
      "onset": 46385,
      "duration": 1333,
      "id_score": 1.57,
      "voice_tag": "Background (Solid / Harmony)",
      "hue": 33.3,
      "sat": 52.0,
      "lightness": 63.4,
      "tonal_distance": 3.3,
      "regime_state": "TRANSITION SPIKE!"
    },
    {
      "pitch": 65,
      "velocity": 87,
      "onset": 46390,
      "duration": 166,
      "id_score": 296.85,
      "voice_tag": "Voice 1 (Liquid / Melody)",
      "hue": 33.3,
      "sat": 52.0,
      "lightness": 63.4,
      "tonal_distance": 3.3,
      "regime_state": "Stable"
    },
    {
      "pitch": 48,
      "velocity": 62,
      "onset": 46395,
      "duration": 1229,
      "id_score": 1659.84,
      "voice_tag": "Voice 1 (Liquid / Melody)",
      "hue": 33.3,
      "sat": 52.0,
      "lightness": 63.4,
      "tonal_distance": 3.3,
      "regime_state": "Stable"
    },
    {
      "pitch": 55,
      "velocity": 64,
      "onset": 46395,
      "duration": 1223,
      "id_score": 0.0,
      "voice_tag": "Background (Solid / Harmony)",
      "hue": 33.3,
      "sat": 52.0,
      "lightness": 63.4,
      "tonal_distance": 3.3,
      "regime_state": "Stable"
    },
    {
      "pitch": 60,
      "velocity": 70,
      "onset": 46395,
      "duration": 1161,
      "id_score": 0.0,
      "voice_tag": "Background (Solid / Harmony)",
      "hue": 33.3,
      "sat": 52.0,
      "lightness": 63.4,
      "tonal_distance": 3.3,
      "regime_state": "Stable"
    },
    {
      "pitch": 64,
      "velocity": 94,
      "onset": 46557,
      "duration": 145,
      "id_score": 19.49,
      "voice_tag": "Background (Solid / Harmony)",
      "hue": 35.3,
      "sat": 55.3,
      "lightness": 63.4,
      "tonal_distance": 5.3,
      "regime_state": "TRANSITION SPIKE!"
    },
    {
      "pitch": 62,
      "velocity": 92,
      "onset": 46697,
      "duration": 104,
      "id_score": 10.69,
      "voice_tag": "Background (Solid / Harmony)",
      "hue": 42.9,
      "sat": 52.4,
      "lightness": 63.4,
      "tonal_distance": 12.9,
      "regime_state": "Stable"
    },
    {
      "pitch": 64,
      "velocity": 87,
      "onset": 46838,
      "duration": 807,
      "id_score": 10.36,
      "voice_tag": "Background (Solid / Harmony)",
      "hue": 44.8,
      "sat": 55.7,
      "lightness": 63.3,
      "tonal_distance": 14.8,
      "regime_state": "TRANSITION SPIKE!"
    },
    {
      "pitch": 50,
      "velocity": 84,
      "onset": 48052,
      "duration": 239,
      "id_score": 7.63,
      "voice_tag": "Background (Solid / Harmony)",
      "hue": 44.3,
      "sat": 52.7,
      "lightness": 61.3,
      "tonal_distance": 14.3,
      "regime_state": "TRANSITION SPIKE!"
    },
    {
      "pitch": 57,
      "velocity": 91,
      "onset": 48052,
      "duration": 208,
      "id_score": 0.0,
      "voice_tag": "Background (Solid / Harmony)",
      "hue": 44.3,
      "sat": 52.7,
      "lightness": 61.3,
      "tonal_distance": 14.3,
      "regime_state": "TRANSITION SPIKE!"
    },
    {
      "pitch": 60,
      "velocity": 93,
      "onset": 48052,
      "duration": 166,
      "id_score": 0.0,
      "voice_tag": "Background (Solid / Harmony)",
      "hue": 44.3,
      "sat": 52.7,
      "lightness": 61.3,
      "tonal_distance": 14.3,
      "regime_state": "TRANSITION SPIKE!"
    },
    {
      "pitch": 65,
      "velocity": 93,
      "onset": 48052,
      "duration": 250,
      "id_score": 0.0,
      "voice_tag": "Background (Solid / Harmony)",
      "hue": 44.3,
      "sat": 52.7,
      "lightness": 61.3,
      "tonal_distance": 14.3,
      "regime_state": "TRANSITION SPIKE!"
    },
    {
      "pitch": 52,
      "velocity": 72,
      "onset": 48442,
      "duration": 72,
      "id_score": 18.9,
      "voice_tag": "Background (Solid / Harmony)",
      "hue": 43.9,
      "sat": 60.3,
      "lightness": 60.5,
      "tonal_distance": 13.9,
      "regime_state": "TRANSITION SPIKE!"
    },
    {
      "pitch": 67,
      "velocity": 86,
      "onset": 48453,
      "duration": 78,
      "id_score": 1031.14,
      "voice_tag": "Voice 1 (Liquid / Melody)",
      "hue": 44.0,
      "sat": 60.9,
      "lightness": 60.4,
      "tonal_distance": 14.0,
      "regime_state": "Stable"
    },
    {
      "pitch": 57,
      "velocity": 72,
      "onset": 48463,
      "duration": 62,
      "id_score": 566.93,
      "voice_tag": "Voice 1 (Liquid / Melody)",
      "hue": 44.3,
      "sat": 60.8,
      "lightness": 60.3,
      "tonal_distance": 14.3,
      "regime_state": "Stable"
    },
    {
      "pitch": 60,
      "velocity": 79,
      "onset": 48463,
      "duration": 57,
      "id_score": 0.0,
      "voice_tag": "Background (Solid / Harmony)",
      "hue": 44.3,
      "sat": 60.8,
      "lightness": 60.3,
      "tonal_distance": 14.3,
      "regime_state": "Stable"
    },
    {
      "pitch": 57,
      "velocity": 65,
      "onset": 48645,
      "duration": 98,
      "id_score": 8.44,
      "voice_tag": "Background (Solid / Harmony)",
      "hue": 43.5,
      "sat": 60.2,
      "lightness": 59.7,
      "tonal_distance": 13.5,
      "regime_state": "Stable"
    },
    {
      "pitch": 53,
      "velocity": 84,
      "onset": 48656,
      "duration": 72,
      "id_score": 240.52,
      "voice_tag": "Voice 1 (Liquid / Melody)",
      "hue": 43.5,
      "sat": 60.1,
      "lightness": 59.7,
      "tonal_distance": 13.5,
      "regime_state": "TRANSITION SPIKE!"
    },
    {
      "pitch": 69,
      "velocity": 84,
      "onset": 48656,
      "duration": 88,
      "id_score": 0.0,
      "voice_tag": "Background (Solid / Harmony)",
      "hue": 43.5,
      "sat": 60.1,
      "lightness": 59.7,
      "tonal_distance": 13.5,
      "regime_state": "TRANSITION SPIKE!"
    },
    {
      "pitch": 60,
      "velocity": 47,
      "onset": 48661,
      "duration": 72,
      "id_score": 666.14,
      "voice_tag": "Voice 1 (Liquid / Melody)",
      "hue": 43.5,
      "sat": 60.2,
      "lightness": 59.7,
      "tonal_distance": 13.5,
      "regime_state": "Regime Locked"
    },
    {
      "pitch": 60,
      "velocity": 79,
      "onset": 48875,
      "duration": 62,
      "id_score": 0.0,
      "voice_tag": "Background (Solid / Harmony)",
      "hue": 43.3,
      "sat": 57.6,
      "lightness": 59.3,
      "tonal_distance": 13.3,
      "regime_state": "TRANSITION SPIKE!"
    },
    {
      "pitch": 65,
      "velocity": 96,
      "onset": 48875,
      "duration": 46,
      "id_score": 0.0,
      "voice_tag": "Background (Solid / Harmony)",
      "hue": 43.3,
      "sat": 57.6,
      "lightness": 59.3,
      "tonal_distance": 13.3,
      "regime_state": "TRANSITION SPIKE!"
    },
    {
      "pitch": 50,
      "velocity": 80,
      "onset": 48885,
      "duration": 52,
      "id_score": 944.88,
      "voice_tag": "Voice 1 (Liquid / Melody)",
      "hue": 43.2,
      "sat": 57.6,
      "lightness": 59.3,
      "tonal_distance": 13.2,
      "regime_state": "Stable"
    },
    {
      "pitch": 57,
      "velocity": 86,
      "onset": 48885,
      "duration": 52,
      "id_score": 0.0,
      "voice_tag": "Background (Solid / Harmony)",
      "hue": 43.2,
      "sat": 57.6,
      "lightness": 59.3,
      "tonal_distance": 13.2,
      "regime_state": "Stable"
    },
    {
      "pitch": 53,
      "velocity": 86,
      "onset": 49338,
      "duration": 57,
      "id_score": 5.98,
      "voice_tag": "Background (Solid / Harmony)",
      "hue": 54.2,
      "sat": 52.8,
      "lightness": 58.0,
      "tonal_distance": 5.8,
      "regime_state": "TRANSITION SPIKE!"
    },
    {
      "pitch": 57,
      "velocity": 88,
      "onset": 49338,
      "duration": 52,
      "id_score": 0.0,
      "voice_tag": "Background (Solid / Harmony)",
      "hue": 54.2,
      "sat": 52.8,
      "lightness": 58.0,
      "tonal_distance": 5.8,
      "regime_state": "TRANSITION SPIKE!"
    },
    {
      "pitch": 62,
      "velocity": 102,
      "onset": 49343,
      "duration": 52,
      "id_score": 829.92,
      "voice_tag": "Voice 1 (Liquid / Melody)",
      "hue": 54.2,
      "sat": 52.8,
      "lightness": 58.0,
      "tonal_distance": 5.8,
      "regime_state": "Stable"
    },
    {
      "pitch": 59,
      "velocity": 82,
      "onset": 49354,
      "duration": 46,
      "id_score": 176.09,
      "voice_tag": "Voice 1 (Liquid / Melody)",
      "hue": 53.6,
      "sat": 52.8,
      "lightness": 58.0,
      "tonal_distance": 6.4,
      "regime_state": "Stable"
    },
    {
      "pitch": 56,
      "velocity": 71,
      "onset": 49947,
      "duration": 1333,
      "id_score": 2.83,
      "voice_tag": "Background (Solid / Harmony)",
      "hue": 53.4,
      "sat": 51.4,
      "lightness": 57.2,
      "tonal_distance": 6.6,
      "regime_state": "TRANSITION SPIKE!"
    },
    {
      "pitch": 64,
      "velocity": 91,
      "onset": 49947,
      "duration": 1156,
      "id_score": 0.0,
      "voice_tag": "Background (Solid / Harmony)",
      "hue": 53.4,
      "sat": 51.4,
      "lightness": 57.2,
      "tonal_distance": 6.6,
      "regime_state": "TRANSITION SPIKE!"
    },
    {
      "pitch": 52,
      "velocity": 76,
      "onset": 49953,
      "duration": 1307,
      "id_score": 1196.85,
      "voice_tag": "Voice 1 (Liquid / Melody)",
      "hue": 53.4,
      "sat": 51.3,
      "lightness": 57.2,
      "tonal_distance": 6.6,
      "regime_state": "Stable"
    },
    {
      "pitch": 59,
      "velocity": 63,
      "onset": 49963,
      "duration": 994,
      "id_score": 347.24,
      "voice_tag": "Voice 1 (Liquid / Melody)",
      "hue": 53.7,
      "sat": 51.2,
      "lightness": 57.2,
      "tonal_distance": 6.3,
      "regime_state": "Stable"
    },
    {
      "pitch": 69,
      "velocity": 71,
      "onset": 52213,
      "duration": 1213,
      "id_score": 2.86,
      "voice_tag": "Background (Solid / Harmony)",
      "hue": 59.5,
      "sat": 54.3,
      "lightness": 57.7,
      "tonal_distance": 0.5,
      "regime_state": "TRANSITION SPIKE!"
    },
    {
      "pitch": 73,
      "velocity": 53,
      "onset": 52854,
      "duration": 130,
      "id_score": 3.17,
      "voice_tag": "Background (Solid / Harmony)",
      "hue": 71.4,
      "sat": 49.1,
      "lightness": 60.8,
      "tonal_distance": 11.4,
      "regime_state": "TRANSITION SPIKE!"
    },
    {
      "pitch": 76,
      "velocity": 52,
      "onset": 52859,
      "duration": 88,
      "id_score": 311.18,
      "voice_tag": "Voice 1 (Liquid / Melody)",
      "hue": 71.2,
      "sat": 49.2,
      "lightness": 60.8,
      "tonal_distance": 11.2,
      "regime_state": "Stable"
    },
    {
      "pitch": 71,
      "velocity": 66,
      "onset": 53385,
      "duration": 307,
      "id_score": 5.85,
      "voice_tag": "Background (Solid / Harmony)",
      "hue": 92.0,
      "sat": 45.6,
      "lightness": 64.5,
      "tonal_distance": 2.0,
      "regime_state": "TRANSITION SPIKE!"
    },
    {
      "pitch": 73,
      "velocity": 70,
      "onset": 53385,
      "duration": 317,
      "id_score": 0.0,
      "voice_tag": "Background (Solid / Harmony)",
      "hue": 92.0,
      "sat": 45.6,
      "lightness": 64.5,
      "tonal_distance": 2.0,
      "regime_state": "TRANSITION SPIKE!"
    },
    {
      "pitch": 76,
      "velocity": 59,
      "onset": 53406,
      "duration": 354,
      "id_score": 84.06,
      "voice_tag": "Voice 1 (Liquid / Melody)",
      "hue": 91.9,
      "sat": 45.6,
      "lightness": 64.6,
      "tonal_distance": 1.9,
      "regime_state": "Stable"
    },
    {
      "pitch": 68,
      "velocity": 81,
      "onset": 53666,
      "duration": 78,
      "id_score": 22.24,
      "voice_tag": "Background (Solid / Harmony)",
      "hue": 82.0,
      "sat": 31.4,
      "lightness": 64.6,
      "tonal_distance": 8.0,
      "regime_state": "Undefined / Gray Void"
    },
    {
      "pitch": 68,
      "velocity": 68,
      "onset": 53880,
      "duration": 109,
      "id_score": 0.0,
      "voice_tag": "Background (Solid / Harmony)",
      "hue": 69.1,
      "sat": 22.4,
      "lightness": 64.6,
      "tonal_distance": 9.1,
      "regime_state": "TRANSITION SPIKE!"
    },
    {
      "pitch": 66,
      "velocity": 88,
      "onset": 53973,
      "duration": 229,
      "id_score": 16.39,
      "voice_tag": "Background (Solid / Harmony)",
      "hue": 99.1,
      "sat": 13.3,
      "lightness": 64.7,
      "tonal_distance": 9.1,
      "regime_state": "Stable"
    },
    {
      "pitch": 64,
      "velocity": 83,
      "onset": 54234,
      "duration": 72,
      "id_score": 5.34,
      "voice_tag": "Background (Solid / Harmony)",
      "hue": 86.1,
      "sat": 20.0,
      "lightness": 65.1,
      "tonal_distance": 3.9,
      "regime_state": "Undefined / Gray Void"
    },
    {
      "pitch": 64,
      "velocity": 73,
      "onset": 54552,
      "duration": 1145,
      "id_score": 0.0,
      "voice_tag": "Background (Solid / Harmony)",
      "hue": 77.3,
      "sat": 26.7,
      "lightness": 67.2,
      "tonal_distance": 12.7,
      "regime_state": "TRANSITION SPIKE!"
    },
    {
      "pitch": 68,
      "velocity": 52,
      "onset": 54572,
      "duration": 255,
      "id_score": 92.81,
      "voice_tag": "Voice 1 (Liquid / Melody)",
      "hue": 77.3,
      "sat": 26.6,
      "lightness": 67.2,
      "tonal_distance": 12.7,
      "regime_state": "Stable"
    },
    {
      "pitch": 74,
      "velocity": 55,
      "onset": 54588,
      "duration": 359,
      "id_score": 200.3,
      "voice_tag": "Voice 1 (Liquid / Melody)",
      "hue": 77.8,
      "sat": 26.9,
      "lightness": 67.3,
      "tonal_distance": 12.2,
      "regime_state": "Stable"
    },
    {
      "pitch": 76,
      "velocity": 60,
      "onset": 54593,
      "duration": 343,
      "id_score": 239.37,
      "voice_tag": "Voice 1 (Liquid / Melody)",
      "hue": 77.5,
      "sat": 26.9,
      "lightness": 67.2,
      "tonal_distance": 12.5,
      "regime_state": "Stable"
    },
    {
      "pitch": 68,
      "velocity": 69,
      "onset": 55161,
      "duration": 83,
      "id_score": 8.67,
      "voice_tag": "Background (Solid / Harmony)",
      "hue": 74.4,
      "sat": 25.9,
      "lightness": 69.6,
      "tonal_distance": 14.4,
      "regime_state": "TRANSITION SPIKE!"
    },
    {
      "pitch": 76,
      "velocity": 66,
      "onset": 55171,
      "duration": 260,
      "id_score": 526.61,
      "voice_tag": "Voice 1 (Liquid / Melody)",
      "hue": 74.6,
      "sat": 25.8,
      "lightness": 69.6,
      "tonal_distance": 14.6,
      "regime_state": "Stable"
    },
    {
      "pitch": 74,
      "velocity": 54,
      "onset": 55187,
      "duration": 182,
      "id_score": 65.55,
      "voice_tag": "Voice 1 (Liquid / Melody)",
      "hue": 74.8,
      "sat": 25.7,
      "lightness": 69.6,
      "tonal_distance": 14.8,
      "regime_state": "Stable"
    },
    {
      "pitch": 69,
      "velocity": 88,
      "onset": 55703,
      "duration": 484,
      "id_score": 7.72,
      "voice_tag": "Background (Solid / Harmony)",
      "hue": 78.0,
      "sat": 33.0,
      "lightness": 69.8,
      "tonal_distance": 12.0,
      "regime_state": "TRANSITION SPIKE!"
    },
    {
      "pitch": 71,
      "velocity": 68,
      "onset": 56203,
      "duration": 286,
      "id_score": 2.53,
      "voice_tag": "Background (Solid / Harmony)",
      "hue": 101.0,
      "sat": 36.2,
      "lightness": 71.9,
      "tonal_distance": 11.0,
      "regime_state": "TRANSITION SPIKE!"
    },
    {
      "pitch": 73,
      "velocity": 74,
      "onset": 56218,
      "duration": 67,
      "id_score": 94.52,
      "voice_tag": "Voice 1 (Liquid / Melody)",
      "hue": 101.2,
      "sat": 36.2,
      "lightness": 71.9,
      "tonal_distance": 11.2,
      "regime_state": "Stable"
    },
    {
      "pitch": 76,
      "velocity": 75,
      "onset": 56229,
      "duration": 140,
      "id_score": 204.01,
      "voice_tag": "Voice 1 (Liquid / Melody)",
      "hue": 101.0,
      "sat": 36.3,
      "lightness": 71.9,
      "tonal_distance": 11.0,
      "regime_state": "Stable"
    },
    {
      "pitch": 73,
      "velocity": 70,
      "onset": 56479,
      "duration": 161,
      "id_score": 8.05,
      "voice_tag": "Background (Solid / Harmony)",
      "hue": 114.5,
      "sat": 36.0,
      "lightness": 72.6,
      "tonal_distance": 5.5,
      "regime_state": "TRANSITION SPIKE!"
    },
    {
      "pitch": 73,
      "velocity": 77,
      "onset": 56744,
      "duration": 229,
      "id_score": 0.0,
      "voice_tag": "Background (Solid / Harmony)",
      "hue": 112.0,
      "sat": 42.3,
      "lightness": 73.1,
      "tonal_distance": 8.0,
      "regime_state": "TRANSITION SPIKE!"
    },
    {
      "pitch": 69,
      "velocity": 74,
      "onset": 56755,
      "duration": 291,
      "id_score": 243.66,
      "voice_tag": "Voice 1 (Liquid / Melody)",
      "hue": 111.9,
      "sat": 42.2,
      "lightness": 73.1,
      "tonal_distance": 8.1,
      "regime_state": "Stable"
    },
    {
      "pitch": 76,
      "velocity": 69,
      "onset": 56760,
      "duration": 250,
      "id_score": 963.46,
      "voice_tag": "Voice 1 (Liquid / Melody)",
      "hue": 112.0,
      "sat": 42.1,
      "lightness": 73.1,
      "tonal_distance": 8.0,
      "regime_state": "Stable"
    },
    {
      "pitch": 66,
      "velocity": 77,
      "onset": 57020,
      "duration": 130,
      "id_score": 25.65,
      "voice_tag": "Background (Solid / Harmony)",
      "hue": 124.1,
      "sat": 38.4,
      "lightness": 72.5,
      "tonal_distance": 4.1,
      "regime_state": "TRANSITION SPIKE!"
    },
    {
      "pitch": 68,
      "velocity": 90,
      "onset": 57229,
      "duration": 130,
      "id_score": 7.69,
      "voice_tag": "Background (Solid / Harmony)",
      "hue": 125.6,
      "sat": 25.8,
      "lightness": 71.8,
      "tonal_distance": 5.6,
      "regime_state": "TRANSITION SPIKE!"
    },
    {
      "pitch": 66,
      "velocity": 78,
      "onset": 57312,
      "duration": 260,
      "id_score": 16.28,
      "voice_tag": "Background (Solid / Harmony)",
      "hue": 142.4,
      "sat": 25.7,
      "lightness": 71.3,
      "tonal_distance": 7.6,
      "regime_state": "Stable"
    },
    {
      "pitch": 64,
      "velocity": 85,
      "onset": 57578,
      "duration": 57,
      "id_score": 5.37,
      "voice_tag": "Background (Solid / Harmony)",
      "hue": 124.4,
      "sat": 26.1,
      "lightness": 70.7,
      "tonal_distance": 4.4,
      "regime_state": "Undefined / Gray Void"
    },
    {
      "pitch": 64,
      "velocity": 74,
      "onset": 57880,
      "duration": 677,
      "id_score": 0.0,
      "voice_tag": "Background (Solid / Harmony)",
      "hue": 101.4,
      "sat": 27.7,
      "lightness": 71.0,
      "tonal_distance": 11.4,
      "regime_state": "TRANSITION SPIKE!"
    },
    {
      "pitch": 76,
      "velocity": 63,
      "onset": 57895,
      "duration": 333,
      "id_score": 502.68,
      "voice_tag": "Voice 1 (Liquid / Melody)",
      "hue": 101.1,
      "sat": 27.8,
      "lightness": 71.0,
      "tonal_distance": 11.1,
      "regime_state": "Regime Locked"
    },
    {
      "pitch": 68,
      "velocity": 51,
      "onset": 57906,
      "duration": 244,
      "id_score": 330.99,
      "voice_tag": "Voice 1 (Liquid / Melody)",
      "hue": 101.5,
      "sat": 27.6,
      "lightness": 71.0,
      "tonal_distance": 11.5,
      "regime_state": "Stable"
    },
    {
      "pitch": 74,
      "velocity": 47,
      "onset": 57927,
      "duration": 317,
      "id_score": 130.41,
      "voice_tag": "Voice 1 (Liquid / Melody)",
      "hue": 101.7,
      "sat": 27.6,
      "lightness": 71.0,
      "tonal_distance": 11.7,
      "regime_state": "Stable"
    },
    {
      "pitch": 68,
      "velocity": 75,
      "onset": 58494,
      "duration": 125,
      "id_score": 7.08,
      "voice_tag": "Background (Solid / Harmony)",
      "hue": 93.4,
      "sat": 25.5,
      "lightness": 71.6,
      "tonal_distance": 3.4,
      "regime_state": "Undefined / Gray Void"
    },
    {
      "pitch": 74,
      "velocity": 65,
      "onset": 58494,
      "duration": 218,
      "id_score": 0.0,
      "voice_tag": "Background (Solid / Harmony)",
      "hue": 93.4,
      "sat": 25.5,
      "lightness": 71.6,
      "tonal_distance": 3.4,
      "regime_state": "Undefined / Gray Void"
    },
    {
      "pitch": 76,
      "velocity": 57,
      "onset": 58500,
      "duration": 229,
      "id_score": 189.5,
      "voice_tag": "Voice 1 (Liquid / Melody)",
      "hue": 93.4,
      "sat": 25.6,
      "lightness": 71.6,
      "tonal_distance": 3.4,
      "regime_state": "Undefined / Gray Void"
    },
    {
      "pitch": 69,
      "velocity": 77,
      "onset": 59057,
      "duration": 947,
      "id_score": 8.76,
      "voice_tag": "Background (Solid / Harmony)",
      "hue": 92.2,
      "sat": 31.3,
      "lightness": 71.0,
      "tonal_distance": 2.2,
      "regime_state": "TRANSITION SPIKE!"
    },
    {
      "pitch": 76,
      "velocity": 60,
      "onset": 59567,
      "duration": 250,
      "id_score": 8.21,
      "voice_tag": "Background (Solid / Harmony)",
      "hue": 95.5,
      "sat": 32.6,
      "lightness": 72.1,
      "tonal_distance": 5.5,
      "regime_state": "TRANSITION SPIKE!"
    },
    {
      "pitch": 73,
      "velocity": 61,
      "onset": 59583,
      "duration": 197,
      "id_score": 109.57,
      "voice_tag": "Voice 1 (Liquid / Melody)",
      "hue": 95.7,
      "sat": 32.6,
      "lightness": 72.1,
      "tonal_distance": 5.7,
      "regime_state": "Stable"
    },
    {
      "pitch": 64,
      "velocity": 74,
      "onset": 60057,
      "duration": 291,
      "id_score": 11.8,
      "voice_tag": "Background (Solid / Harmony)",
      "hue": 93.6,
      "sat": 41.0,
      "lightness": 72.9,
      "tonal_distance": 3.6,
      "regime_state": "TRANSITION SPIKE!"
    },
    {
      "pitch": 73,
      "velocity": 71,
      "onset": 60057,
      "duration": 328,
      "id_score": 0.0,
      "voice_tag": "Background (Solid / Harmony)",
      "hue": 93.6,
      "sat": 41.0,
      "lightness": 72.9,
      "tonal_distance": 3.6,
      "regime_state": "TRANSITION SPIKE!"
    },
    {
      "pitch": 76,
      "velocity": 67,
      "onset": 60057,
      "duration": 328,
      "id_score": 0.0,
      "voice_tag": "Background (Solid / Harmony)",
      "hue": 93.6,
      "sat": 41.0,
      "lightness": 72.9,
      "tonal_distance": 3.6,
      "regime_state": "TRANSITION SPIKE!"
    },
    {
      "pitch": 66,
      "velocity": 75,
      "onset": 60338,
      "duration": 83,
      "id_score": 23.12,
      "voice_tag": "Background (Solid / Harmony)",
      "hue": 106.7,
      "sat": 34.6,
      "lightness": 72.3,
      "tonal_distance": 13.3,
      "regime_state": "TRANSITION SPIKE!"
    },
    {
      "pitch": 66,
      "velocity": 82,
      "onset": 60583,
      "duration": 307,
      "id_score": 0.0,
      "voice_tag": "Background (Solid / Harmony)",
      "hue": 124.4,
      "sat": 31.2,
      "lightness": 71.8,
      "tonal_distance": 4.4,
      "regime_state": "TRANSITION SPIKE!"
    },
    {
      "pitch": 68,
      "velocity": 83,
      "onset": 60854,
      "duration": 78,
      "id_score": 5.47,
      "voice_tag": "Background (Solid / Harmony)",
      "hue": 127.7,
      "sat": 18.8,
      "lightness": 71.1,
      "tonal_distance": 7.7,
      "regime_state": "TRANSITION SPIKE!"
    },
    {
      "pitch": 68,
      "velocity": 90,
      "onset": 61130,
      "duration": 890,
      "id_score": 0.0,
      "voice_tag": "Background (Solid / Harmony)",
      "hue": 125.4,
      "sat": 12.2,
      "lightness": 71.6,
      "tonal_distance": 5.4,
      "regime_state": "TRANSITION SPIKE!"
    },
    {
      "pitch": 73,
      "velocity": 57,
      "onset": 61156,
      "duration": 312,
      "id_score": 105.01,
      "voice_tag": "Voice 1 (Liquid / Melody)",
      "hue": 126.2,
      "sat": 12.3,
      "lightness": 71.6,
      "tonal_distance": 6.2,
      "regime_state": "Undefined / Gray Void"
    },
    {
      "pitch": 76,
      "velocity": 67,
      "onset": 61156,
      "duration": 312,
      "id_score": 0.0,
      "voice_tag": "Background (Solid / Harmony)",
      "hue": 126.2,
      "sat": 12.3,
      "lightness": 71.6,
      "tonal_distance": 6.2,
      "regime_state": "Undefined / Gray Void"
    },
    {
      "pitch": 76,
      "velocity": 53,
      "onset": 61760,
      "duration": 390,
      "id_score": 0.0,
      "voice_tag": "Background (Solid / Harmony)",
      "hue": 128.5,
      "sat": 16.2,
      "lightness": 72.6,
      "tonal_distance": 8.5,
      "regime_state": "TRANSITION SPIKE!"
    },
    {
      "pitch": 73,
      "velocity": 57,
      "onset": 61765,
      "duration": 364,
      "id_score": 327.64,
      "voice_tag": "Voice 1 (Liquid / Melody)",
      "hue": 129.3,
      "sat": 16.1,
      "lightness": 72.6,
      "tonal_distance": 9.3,
      "regime_state": "Stable"
    },
    {
      "pitch": 68,
      "velocity": 89,
      "onset": 62250,
      "duration": 317,
      "id_score": 8.19,
      "voice_tag": "Background (Solid / Harmony)",
      "hue": 170.3,
      "sat": 3.1,
      "lightness": 71.7,
      "tonal_distance": 9.7,
      "regime_state": "TRANSITION SPIKE!"
    },
    {
      "pitch": 71,
      "velocity": 82,
      "onset": 62520,
      "duration": 119,
      "id_score": 8.49,
      "voice_tag": "Background (Solid / Harmony)",
      "hue": 151.0,
      "sat": 11.7,
      "lightness": 71.0,
      "tonal_distance": 1.0,
      "regime_state": "Undefined / Gray Void"
    },
    {
      "pitch": 71,
      "velocity": 71,
      "onset": 62765,
      "duration": 296,
      "id_score": 0.0,
      "voice_tag": "Background (Solid / Harmony)",
      "hue": 144.6,
      "sat": 22.9,
      "lightness": 71.9,
      "tonal_distance": 5.4,
      "regime_state": "TRANSITION SPIKE!"
    },
    {
      "pitch": 73,
      "velocity": 86,
      "onset": 62786,
      "duration": 302,
      "id_score": 78.47,
      "voice_tag": "Voice 1 (Liquid / Melody)",
      "hue": 144.5,
      "sat": 23.1,
      "lightness": 72.0,
      "tonal_distance": 5.5,
      "regime_state": "Stable"
    },
    {
      "pitch": 76,
      "velocity": 78,
      "onset": 62791,
      "duration": 317,
      "id_score": 466.77,
      "voice_tag": "Voice 1 (Liquid / Melody)",
      "hue": 144.4,
      "sat": 23.0,
      "lightness": 72.0,
      "tonal_distance": 5.6,
      "regime_state": "Stable"
    },
    {
      "pitch": 69,
      "velocity": 76,
      "onset": 63036,
      "duration": 161,
      "id_score": 19.66,
      "voice_tag": "Background (Solid / Harmony)",
      "hue": 128.2,
      "sat": 26.7,
      "lightness": 71.5,
      "tonal_distance": 8.2,
      "regime_state": "TRANSITION SPIKE!"
    },
    {
      "pitch": 64,
      "velocity": 75,
      "onset": 63312,
      "duration": 322,
      "id_score": 11.41,
      "voice_tag": "Background (Solid / Harmony)",
      "hue": 115.9,
      "sat": 32.4,
      "lightness": 72.2,
      "tonal_distance": 4.1,
      "regime_state": "TRANSITION SPIKE!"
    },
    {
      "pitch": 73,
      "velocity": 73,
      "onset": 63322,
      "duration": 338,
      "id_score": 629.41,
      "voice_tag": "Voice 1 (Liquid / Melody)",
      "hue": 114.6,
      "sat": 32.7,
      "lightness": 72.2,
      "tonal_distance": 5.4,
      "regime_state": "Stable"
    },
    {
      "pitch": 76,
      "velocity": 64,
      "onset": 63333,
      "duration": 333,
      "id_score": 174.09,
      "voice_tag": "Voice 1 (Liquid / Melody)",
      "hue": 114.4,
      "sat": 32.8,
      "lightness": 72.3,
      "tonal_distance": 5.6,
      "regime_state": "Stable"
    },
    {
      "pitch": 66,
      "velocity": 79,
      "onset": 63583,
      "duration": 130,
      "id_score": 27.37,
      "voice_tag": "Background (Solid / Harmony)",
      "hue": 130.8,
      "sat": 30.4,
      "lightness": 71.8,
      "tonal_distance": 10.8,
      "regime_state": "TRANSITION SPIKE!"
    },
    {
      "pitch": 66,
      "velocity": 91,
      "onset": 63833,
      "duration": 359,
      "id_score": 0.0,
      "voice_tag": "Background (Solid / Harmony)",
      "hue": 147.2,
      "sat": 30.8,
      "lightness": 71.2,
      "tonal_distance": 2.8,
      "regime_state": "TRANSITION SPIKE!"
    },
    {
      "pitch": 68,
      "velocity": 97,
      "onset": 64140,
      "duration": 67,
      "id_score": 5.64,
      "voice_tag": "Background (Solid / Harmony)",
      "hue": 163.6,
      "sat": 20.6,
      "lightness": 70.6,
      "tonal_distance": 13.6,
      "regime_state": "TRANSITION SPIKE!"
    },
    {
      "pitch": 68,
      "velocity": 88,
      "onset": 64510,
      "duration": 1078,
      "id_score": 0.0,
      "voice_tag": "Background (Solid / Harmony)",
      "hue": 170.4,
      "sat": 15.4,
      "lightness": 71.2,
      "tonal_distance": 9.6,
      "regime_state": "Regime Locked"
    },
    {
      "pitch": 76,
      "velocity": 68,
      "onset": 64515,
      "duration": 281,
      "id_score": 1085.14,
      "voice_tag": "Voice 1 (Liquid / Melody)",
      "hue": 169.9,
      "sat": 15.3,
      "lightness": 71.2,
      "tonal_distance": 10.1,
      "regime_state": "TRANSITION SPIKE!"
    },
    {
      "pitch": 73,
      "velocity": 61,
      "onset": 64531,
      "duration": 239,
      "id_score": 109.57,
      "voice_tag": "Voice 1 (Liquid / Melody)",
      "hue": 169.7,
      "sat": 15.2,
      "lightness": 71.2,
      "tonal_distance": 10.3,
      "regime_state": "Undefined / Gray Void"
    },
    {
      "pitch": 73,
      "velocity": 68,
      "onset": 65374,
      "duration": 447,
      "id_score": 0.0,
      "voice_tag": "Background (Solid / Harmony)",
      "hue": 158.5,
      "sat": 18.7,
      "lightness": 72.5,
      "tonal_distance": 8.5,
      "regime_state": "TRANSITION SPIKE!"
    },
    {
      "pitch": 76,
      "velocity": 59,
      "onset": 65385,
      "duration": 463,
      "id_score": 160.49,
      "voice_tag": "Voice 1 (Liquid / Melody)",
      "hue": 158.4,
      "sat": 18.6,
      "lightness": 72.4,
      "tonal_distance": 8.4,
      "regime_state": "Stable"
    },
    {
      "pitch": 69,
      "velocity": 80,
      "onset": 66182,
      "duration": 1046,
      "id_score": 6.36,
      "voice_tag": "Background (Solid / Harmony)",
      "hue": 136.6,
      "sat": 21.8,
      "lightness": 71.4,
      "tonal_distance": 13.4,
      "regime_state": "TRANSITION SPIKE!"
    },
    {
      "pitch": 73,
      "velocity": 66,
      "onset": 66744,
      "duration": 109,
      "id_score": 4.5,
      "voice_tag": "Background (Solid / Harmony)",
      "hue": 127.5,
      "sat": 26.9,
      "lightness": 73.2,
      "tonal_distance": 7.5,
      "regime_state": "TRANSITION SPIKE!"
    },
    {
      "pitch": 76,
      "velocity": 62,
      "onset": 66750,
      "duration": 78,
      "id_score": 309.19,
      "voice_tag": "Voice 1 (Liquid / Melody)",
      "hue": 127.5,
      "sat": 26.8,
      "lightness": 73.2,
      "tonal_distance": 7.5,
      "regime_state": "Stable"
    },
    {
      "pitch": 71,
      "velocity": 73,
      "onset": 67223,
      "duration": 270,
      "id_score": 7.19,
      "voice_tag": "Background (Solid / Harmony)",
      "hue": 131.1,
      "sat": 39.9,
      "lightness": 73.6,
      "tonal_distance": 11.1,
      "regime_state": "TRANSITION SPIKE!"
    },
    {
      "pitch": 73,
      "velocity": 70,
      "onset": 67229,
      "duration": 250,
      "id_score": 223.53,
      "voice_tag": "Voice 1 (Liquid / Melody)",
      "hue": 131.0,
      "sat": 39.8,
      "lightness": 73.6,
      "tonal_distance": 11.0,
      "regime_state": "Stable"
    },
    {
      "pitch": 76,
      "velocity": 68,
      "onset": 67234,
      "duration": 286,
      "id_score": 406.93,
      "voice_tag": "Voice 1 (Liquid / Melody)",
      "hue": 130.7,
      "sat": 39.8,
      "lightness": 73.6,
      "tonal_distance": 10.7,
      "regime_state": "Stable"
    },
    {
      "pitch": 68,
      "velocity": 75,
      "onset": 67489,
      "duration": 67,
      "id_score": 21.0,
      "voice_tag": "Background (Solid / Harmony)",
      "hue": 134.4,
      "sat": 26.4,
      "lightness": 72.8,
      "tonal_distance": 14.4,
      "regime_state": "Undefined / Gray Void"
    },
    {
      "pitch": 68,
      "velocity": 79,
      "onset": 67718,
      "duration": 130,
      "id_score": 0.0,
      "voice_tag": "Background (Solid / Harmony)",
      "hue": 144.4,
      "sat": 14.7,
      "lightness": 72.1,
      "tonal_distance": 5.6,
      "regime_state": "TRANSITION SPIKE!"
    },
    {
      "pitch": 66,
      "velocity": 83,
      "onset": 67817,
      "duration": 239,
      "id_score": 14.52,
      "voice_tag": "Background (Solid / Harmony)",
      "hue": 173.5,
      "sat": 19.6,
      "lightness": 71.2,
      "tonal_distance": 6.5,
      "regime_state": "Stable"
    },
    {
      "pitch": 64,
      "velocity": 87,
      "onset": 68062,
      "duration": 57,
      "id_score": 5.96,
      "voice_tag": "Background (Solid / Harmony)",
      "hue": 138.0,
      "sat": 16.3,
      "lightness": 70.6,
      "tonal_distance": 12.0,
      "regime_state": "Undefined / Gray Void"
    },
    {
      "pitch": 64,
      "velocity": 84,
      "onset": 68354,
      "duration": 911,
      "id_score": 0.0,
      "voice_tag": "Background (Solid / Harmony)",
      "hue": 95.5,
      "sat": 21.2,
      "lightness": 71.0,
      "tonal_distance": 5.5,
      "regime_state": "TRANSITION SPIKE!"
    },
    {
      "pitch": 68,
      "velocity": 67,
      "onset": 68359,
      "duration": 250,
      "id_score": 478.32,
      "voice_tag": "Voice 1 (Liquid / Melody)",
      "hue": 95.7,
      "sat": 21.1,
      "lightness": 71.0,
      "tonal_distance": 5.7,
      "regime_state": "Stable"
    },
    {
      "pitch": 76,
      "velocity": 66,
      "onset": 68359,
      "duration": 317,
      "id_score": 0.0,
      "voice_tag": "Background (Solid / Harmony)",
      "hue": 95.7,
      "sat": 21.1,
      "lightness": 71.0,
      "tonal_distance": 5.7,
      "regime_state": "Stable"
    },
    {
      "pitch": 74,
      "velocity": 64,
      "onset": 68395,
      "duration": 302,
      "id_score": 34.53,
      "voice_tag": "Background (Solid / Harmony)",
      "hue": 95.6,
      "sat": 21.3,
      "lightness": 71.0,
      "tonal_distance": 5.6,
      "regime_state": "Stable"
    },
    {
      "pitch": 68,
      "velocity": 78,
      "onset": 68989,
      "duration": 83,
      "id_score": 7.03,
      "voice_tag": "Background (Solid / Harmony)",
      "hue": 78.4,
      "sat": 20.9,
      "lightness": 71.7,
      "tonal_distance": 11.6,
      "regime_state": "TRANSITION SPIKE!"
    },
    {
      "pitch": 76,
      "velocity": 70,
      "onset": 68989,
      "duration": 307,
      "id_score": 0.0,
      "voice_tag": "Background (Solid / Harmony)",
      "hue": 78.4,
      "sat": 20.9,
      "lightness": 71.7,
      "tonal_distance": 11.6,
      "regime_state": "TRANSITION SPIKE!"
    },
    {
      "pitch": 74,
      "velocity": 61,
      "onset": 69005,
      "duration": 255,
      "id_score": 74.05,
      "voice_tag": "Voice 1 (Liquid / Melody)",
      "hue": 78.2,
      "sat": 20.9,
      "lightness": 71.6,
      "tonal_distance": 11.8,
      "regime_state": "Stable"
    },
    {
      "pitch": 69,
      "velocity": 91,
      "onset": 69500,
      "duration": 473,
      "id_score": 8.32,
      "voice_tag": "Background (Solid / Harmony)",
      "hue": 81.0,
      "sat": 27.1,
      "lightness": 71.0,
      "tonal_distance": 9.0,
      "regime_state": "TRANSITION SPIKE!"
    },
    {
      "pitch": 71,
      "velocity": 69,
      "onset": 69994,
      "duration": 296,
      "id_score": 2.6,
      "voice_tag": "Background (Solid / Harmony)",
      "hue": 99.2,
      "sat": 32.8,
      "lightness": 72.1,
      "tonal_distance": 9.2,
      "regime_state": "TRANSITION SPIKE!"
    },
    {
      "pitch": 73,
      "velocity": 76,
      "onset": 70015,
      "duration": 62,
      "id_score": 69.34,
      "voice_tag": "Voice 1 (Liquid / Melody)",
      "hue": 99.2,
      "sat": 32.9,
      "lightness": 72.1,
      "tonal_distance": 9.2,
      "regime_state": "Stable"
    },
    {
      "pitch": 76,
      "velocity": 74,
      "onset": 70020,
      "duration": 114,
      "id_score": 442.83,
      "voice_tag": "Voice 1 (Liquid / Melody)",
      "hue": 99.2,
      "sat": 32.8,
      "lightness": 72.1,
      "tonal_distance": 9.2,
      "regime_state": "Stable"
    },
    {
      "pitch": 73,
      "velocity": 74,
      "onset": 70270,
      "duration": 125,
      "id_score": 8.51,
      "voice_tag": "Background (Solid / Harmony)",
      "hue": 113.4,
      "sat": 34.1,
      "lightness": 72.8,
      "tonal_distance": 6.6,
      "regime_state": "TRANSITION SPIKE!"
    },
    {
      "pitch": 73,
      "velocity": 62,
      "onset": 70526,
      "duration": 312,
      "id_score": 0.0,
      "voice_tag": "Background (Solid / Harmony)",
      "hue": 111.6,
      "sat": 41.4,
      "lightness": 73.1,
      "tonal_distance": 8.4,
      "regime_state": "TRANSITION SPIKE!"
    },
    {
      "pitch": 69,
      "velocity": 76,
      "onset": 70541,
      "duration": 333,
      "id_score": 183.52,
      "voice_tag": "Voice 1 (Liquid / Melody)",
      "hue": 111.0,
      "sat": 41.3,
      "lightness": 73.0,
      "tonal_distance": 9.0,
      "regime_state": "Stable"
    },
    {
      "pitch": 76,
      "velocity": 58,
      "onset": 70546,
      "duration": 333,
      "id_score": 809.87,
      "voice_tag": "Voice 1 (Liquid / Melody)",
      "hue": 111.0,
      "sat": 41.3,
      "lightness": 73.0,
      "tonal_distance": 9.0,
      "regime_state": "Stable"
    },
    {
      "pitch": 66,
      "velocity": 77,
      "onset": 70817,
      "duration": 151,
      "id_score": 24.61,
      "voice_tag": "Background (Solid / Harmony)",
      "hue": 122.5,
      "sat": 37.8,
      "lightness": 72.4,
      "tonal_distance": 2.5,
      "regime_state": "TRANSITION SPIKE!"
    },
    {
      "pitch": 68,
      "velocity": 92,
      "onset": 71036,
      "duration": 140,
      "id_score": 7.5,
      "voice_tag": "Background (Solid / Harmony)",
      "hue": 122.5,
      "sat": 25.3,
      "lightness": 71.7,
      "tonal_distance": 2.5,
      "regime_state": "TRANSITION SPIKE!"
    },
    {
      "pitch": 66,
      "velocity": 78,
      "onset": 71130,
      "duration": 244,
      "id_score": 14.37,
      "voice_tag": "Background (Solid / Harmony)",
      "hue": 140.2,
      "sat": 24.8,
      "lightness": 71.2,
      "tonal_distance": 9.8,
      "regime_state": "Regime Locked"
    },
    {
      "pitch": 64,
      "velocity": 85,
      "onset": 71395,
      "duration": 62,
      "id_score": 5.39,
      "voice_tag": "Background (Solid / Harmony)",
      "hue": 122.0,
      "sat": 25.2,
      "lightness": 70.6,
      "tonal_distance": 2.0,
      "regime_state": "Undefined / Gray Void"
    },
    {
      "pitch": 64,
      "velocity": 85,
      "onset": 71703,
      "duration": 718,
      "id_score": 0.0,
      "voice_tag": "Background (Solid / Harmony)",
      "hue": 94.3,
      "sat": 24.5,
      "lightness": 70.4,
      "tonal_distance": 4.3,
      "regime_state": "TRANSITION SPIKE!"
    },
    {
      "pitch": 76,
      "velocity": 63,
      "onset": 71723,
      "duration": 286,
      "id_score": 377.01,
      "voice_tag": "Voice 1 (Liquid / Melody)",
      "hue": 97.6,
      "sat": 27.1,
      "lightness": 70.8,
      "tonal_distance": 7.6,
      "regime_state": "Regime Locked"
    },
    {
      "pitch": 68,
      "velocity": 57,
      "onset": 71734,
      "duration": 125,
      "id_score": 369.94,
      "voice_tag": "Voice 1 (Liquid / Melody)",
      "hue": 97.6,
      "sat": 27.0,
      "lightness": 70.8,
      "tonal_distance": 7.6,
      "regime_state": "Stable"
    },
    {
      "pitch": 74,
      "velocity": 44,
      "onset": 71760,
      "duration": 239,
      "id_score": 98.61,
      "voice_tag": "Voice 1 (Liquid / Melody)",
      "hue": 98.0,
      "sat": 27.0,
      "lightness": 70.8,
      "tonal_distance": 8.0,
      "regime_state": "Stable"
    },
    {
      "pitch": 68,
      "velocity": 74,
      "onset": 72328,
      "duration": 78,
      "id_score": 6.98,
      "voice_tag": "Background (Solid / Harmony)",
      "hue": 89.6,
      "sat": 25.1,
      "lightness": 71.4,
      "tonal_distance": 0.4,
      "regime_state": "TRANSITION SPIKE!"
    },
    {
      "pitch": 76,
      "velocity": 59,
      "onset": 72343,
      "duration": 88,
      "id_score": 313.84,
      "voice_tag": "Voice 1 (Liquid / Melody)",
      "hue": 89.7,
      "sat": 25.1,
      "lightness": 71.4,
      "tonal_distance": 0.3,
      "regime_state": "Stable"
    },
    {
      "pitch": 74,
      "velocity": 58,
      "onset": 72348,
      "duration": 88,
      "id_score": 225.3,
      "voice_tag": "Voice 1 (Liquid / Melody)",
      "hue": 89.7,
      "sat": 25.0,
      "lightness": 71.4,
      "tonal_distance": 0.3,
      "regime_state": "Undefined / Gray Void"
    },
    {
      "pitch": 69,
      "velocity": 64,
      "onset": 72921,
      "duration": 1031,
      "id_score": 5.06,
      "voice_tag": "Background (Solid / Harmony)",
      "hue": 89.0,
      "sat": 29.8,
      "lightness": 70.8,
      "tonal_distance": 1.0,
      "regime_state": "TRANSITION SPIKE!"
    },
    {
      "pitch": 76,
      "velocity": 49,
      "onset": 73453,
      "duration": 250,
      "id_score": 6.43,
      "voice_tag": "Background (Solid / Harmony)",
      "hue": 93.0,
      "sat": 30.9,
      "lightness": 71.9,
      "tonal_distance": 3.0,
      "regime_state": "TRANSITION SPIKE!"
    },
    {
      "pitch": 73,
      "velocity": 55,
      "onset": 73473,
      "duration": 197,
      "id_score": 79.04,
      "voice_tag": "Voice 1 (Liquid / Melody)",
      "hue": 93.1,
      "sat": 30.7,
      "lightness": 71.8,
      "tonal_distance": 3.1,
      "regime_state": "Stable"
    },
    {
      "pitch": 64,
      "velocity": 57,
      "onset": 73989,
      "duration": 322,
      "id_score": 8.35,
      "voice_tag": "Background (Solid / Harmony)",
      "hue": 90.0,
      "sat": 39.2,
      "lightness": 72.4,
      "tonal_distance": 0.0,
      "regime_state": "TRANSITION SPIKE!"
    },
    {
      "pitch": 76,
      "velocity": 50,
      "onset": 74000,
      "duration": 369,
      "id_score": 544.02,
      "voice_tag": "Voice 1 (Liquid / Melody)",
      "hue": 90.3,
      "sat": 39.4,
      "lightness": 72.5,
      "tonal_distance": 0.3,
      "regime_state": "Regime Locked"
    },
    {
      "pitch": 73,
      "velocity": 42,
      "onset": 74005,
      "duration": 380,
      "id_score": 241.42,
      "voice_tag": "Voice 1 (Liquid / Melody)",
      "hue": 90.4,
      "sat": 39.3,
      "lightness": 72.5,
      "tonal_distance": 0.4,
      "regime_state": "Stable"
    },
    {
      "pitch": 66,
      "velocity": 67,
      "onset": 74302,
      "duration": 72,
      "id_score": 13.68,
      "voice_tag": "Background (Solid / Harmony)",
      "hue": 103.9,
      "sat": 32.3,
      "lightness": 71.9,
      "tonal_distance": 13.9,
      "regime_state": "TRANSITION SPIKE!"
    },
    {
      "pitch": 66,
      "velocity": 80,
      "onset": 74609,
      "duration": 343,
      "id_score": 0.0,
      "voice_tag": "Background (Solid / Harmony)",
      "hue": 127.8,
      "sat": 28.1,
      "lightness": 71.2,
      "tonal_distance": 7.8,
      "regime_state": "Stable"
    },
    {
      "pitch": 67,
      "velocity": 77,
      "onset": 74895,
      "duration": 130,
      "id_score": 2.37,
      "voice_tag": "Background (Solid / Harmony)",
      "hue": 105.1,
      "sat": 25.8,
      "lightness": 70.6,
      "tonal_distance": 14.9,
      "regime_state": "Undefined / Gray Void"
    },
    {
      "pitch": 67,
      "velocity": 94,
      "onset": 75244,
      "duration": 968,
      "id_score": 0.0,
      "voice_tag": "Background (Solid / Harmony)",
      "hue": 94.1,
      "sat": 30.7,
      "lightness": 71.6,
      "tonal_distance": 4.1,
      "regime_state": "TRANSITION SPIKE!"
    },
    {
      "pitch": 73,
      "velocity": 85,
      "onset": 75265,
      "duration": 380,
      "id_score": 232.66,
      "voice_tag": "Voice 1 (Liquid / Melody)",
      "hue": 93.9,
      "sat": 30.8,
      "lightness": 71.6,
      "tonal_distance": 3.9,
      "regime_state": "Undefined / Gray Void"
    },
    {
      "pitch": 76,
      "velocity": 76,
      "onset": 75270,
      "duration": 364,
      "id_score": 454.8,
      "voice_tag": "Voice 1 (Liquid / Melody)",
      "hue": 93.8,
      "sat": 30.8,
      "lightness": 71.6,
      "tonal_distance": 3.8,
      "regime_state": "Stable"
    },
    {
      "pitch": 73,
      "velocity": 74,
      "onset": 76015,
      "duration": 375,
      "id_score": 2.85,
      "voice_tag": "Background (Solid / Harmony)",
      "hue": 100.1,
      "sat": 32.1,
      "lightness": 73.2,
      "tonal_distance": 10.1,
      "regime_state": "TRANSITION SPIKE!"
    },
    {
      "pitch": 76,
      "velocity": 70,
      "onset": 76020,
      "duration": 390,
      "id_score": 418.9,
      "voice_tag": "Voice 1 (Liquid / Melody)",
      "hue": 97.8,
      "sat": 32.4,
      "lightness": 73.1,
      "tonal_distance": 7.8,
      "regime_state": "Stable"
    },
    {
      "pitch": 67,
      "velocity": 80,
      "onset": 76578,
      "duration": 322,
      "id_score": 11.35,
      "voice_tag": "Background (Solid / Harmony)",
      "hue": 78.6,
      "sat": 33.6,
      "lightness": 72.0,
      "tonal_distance": 11.4,
      "regime_state": "TRANSITION SPIKE!"
    },
    {
      "pitch": 68,
      "velocity": 97,
      "onset": 76885,
      "duration": 203,
      "id_score": 2.82,
      "voice_tag": "Background (Solid / Harmony)",
      "hue": 52.9,
      "sat": 22.3,
      "lightness": 71.2,
      "tonal_distance": 7.1,
      "regime_state": "TRANSITION SPIKE!"
    },
    {
      "pitch": 68,
      "velocity": 97,
      "onset": 77208,
      "duration": 968,
      "id_score": 0.0,
      "voice_tag": "Background (Solid / Harmony)",
      "hue": 51.3,
      "sat": 16.8,
      "lightness": 72.3,
      "tonal_distance": 8.7,
      "regime_state": "Regime Locked"
    },
    {
      "pitch": 76,
      "velocity": 83,
      "onset": 77223,
      "duration": 375,
      "id_score": 441.5,
      "voice_tag": "Voice 1 (Liquid / Melody)",
      "hue": 51.5,
      "sat": 16.9,
      "lightness": 72.3,
      "tonal_distance": 8.5,
      "regime_state": "TRANSITION SPIKE!"
    },
    {
      "pitch": 73,
      "velocity": 86,
      "onset": 77229,
      "duration": 395,
      "id_score": 411.94,
      "voice_tag": "Voice 1 (Liquid / Melody)",
      "hue": 51.4,
      "sat": 16.8,
      "lightness": 72.3,
      "tonal_distance": 8.6,
      "regime_state": "Undefined / Gray Void"
    },
    {
      "pitch": 73,
      "velocity": 89,
      "onset": 78036,
      "duration": 255,
      "id_score": 0.0,
      "voice_tag": "Background (Solid / Harmony)",
      "hue": 87.0,
      "sat": 17.0,
      "lightness": 74.0,
      "tonal_distance": 3.0,
      "regime_state": "TRANSITION SPIKE!"
    },
    {
      "pitch": 76,
      "velocity": 78,
      "onset": 78041,
      "duration": 276,
      "id_score": 466.77,
      "voice_tag": "Voice 1 (Liquid / Melody)",
      "hue": 86.8,
      "sat": 17.0,
      "lightness": 74.0,
      "tonal_distance": 3.2,
      "regime_state": "Stable"
    },
    {
      "pitch": 68,
      "velocity": 102,
      "onset": 78765,
      "duration": 385,
      "id_score": 10.06,
      "voice_tag": "Background (Solid / Harmony)",
      "hue": 13.2,
      "sat": 7.7,
      "lightness": 72.7,
      "tonal_distance": 13.2,
      "regime_state": "TRANSITION SPIKE!"
    },
    {
      "pitch": 69,
      "velocity": 102,
      "onset": 79098,
      "duration": 218,
      "id_score": 2.77,
      "voice_tag": "Background (Solid / Harmony)",
      "hue": 65.7,
      "sat": 16.3,
      "lightness": 71.7,
      "tonal_distance": 5.7,
      "regime_state": "TRANSITION SPIKE!"
    },
    {
      "pitch": 69,
      "velocity": 106,
      "onset": 79463,
      "duration": 1067,
      "id_score": 0.0,
      "voice_tag": "Background (Solid / Harmony)",
      "hue": 92.9,
      "sat": 29.5,
      "lightness": 72.6,
      "tonal_distance": 2.9,
      "regime_state": "Regime Locked"
    },
    {
      "pitch": 73,
      "velocity": 98,
      "onset": 79479,
      "duration": 354,
      "id_score": 234.71,
      "voice_tag": "Voice 1 (Liquid / Melody)",
      "hue": 91.7,
      "sat": 29.7,
      "lightness": 72.5,
      "tonal_distance": 1.7,
      "regime_state": "TRANSITION SPIKE!"
    },
    {
      "pitch": 76,
      "velocity": 90,
      "onset": 79479,
      "duration": 333,
      "id_score": 0.0,
      "voice_tag": "Background (Solid / Harmony)",
      "hue": 91.7,
      "sat": 29.7,
      "lightness": 72.5,
      "tonal_distance": 1.7,
      "regime_state": "TRANSITION SPIKE!"
    },
    {
      "pitch": 73,
      "velocity": 82,
      "onset": 80515,
      "duration": 515,
      "id_score": 2.27,
      "voice_tag": "Background (Solid / Harmony)",
      "hue": 101.9,
      "sat": 32.2,
      "lightness": 74.0,
      "tonal_distance": 11.9,
      "regime_state": "TRANSITION SPIKE!"
    },
    {
      "pitch": 76,
      "velocity": 64,
      "onset": 80515,
      "duration": 1171,
      "id_score": 0.0,
      "voice_tag": "Background (Solid / Harmony)",
      "hue": 101.9,
      "sat": 32.2,
      "lightness": 74.0,
      "tonal_distance": 11.9,
      "regime_state": "TRANSITION SPIKE!"
    },
    {
      "pitch": 45,
      "velocity": 36,
      "onset": 81729,
      "duration": 359,
      "id_score": 7.24,
      "voice_tag": "Background (Solid / Harmony)",
      "hue": 101.3,
      "sat": 37.3,
      "lightness": 71.3,
      "tonal_distance": 11.3,
      "regime_state": "TRANSITION SPIKE!"
    },
    {
      "pitch": 60,
      "velocity": 64,
      "onset": 82171,
      "duration": 78,
      "id_score": 17.1,
      "voice_tag": "Background (Solid / Harmony)",
      "hue": 71.8,
      "sat": 38.9,
      "lightness": 68.2,
      "tonal_distance": 11.8,
      "regime_state": "TRANSITION SPIKE!"
    },
    {
      "pitch": 52,
      "velocity": 53,
      "onset": 82177,
      "duration": 78,
      "id_score": 556.43,
      "voice_tag": "Voice 1 (Liquid / Melody)",
      "hue": 72.2,
      "sat": 38.8,
      "lightness": 68.2,
      "tonal_distance": 12.2,
      "regime_state": "Stable"
    },
    {
      "pitch": 60,
      "velocity": 72,
      "onset": 82593,
      "duration": 62,
      "id_score": 10.9,
      "voice_tag": "Background (Solid / Harmony)",
      "hue": 54.6,
      "sat": 44.0,
      "lightness": 66.3,
      "tonal_distance": 5.4,
      "regime_state": "TRANSITION SPIKE!"
    },
    {
      "pitch": 52,
      "velocity": 46,
      "onset": 82604,
      "duration": 78,
      "id_score": 263.42,
      "voice_tag": "Voice 1 (Liquid / Melody)",
      "hue": 55.2,
      "sat": 44.2,
      "lightness": 66.3,
      "tonal_distance": 4.8,
      "regime_state": "Stable"
    },
    {
      "pitch": 45,
      "velocity": 49,
      "onset": 83057,
      "duration": 432,
      "id_score": 5.96,
      "voice_tag": "Background (Solid / Harmony)",
      "hue": 63.3,
      "sat": 50.2,
      "lightness": 63.3,
      "tonal_distance": 3.3,
      "regime_state": "TRANSITION SPIKE!"
    },
    {
      "pitch": 52,
      "velocity": 48,
      "onset": 83510,
      "duration": 72,
      "id_score": 5.84,
      "voice_tag": "Background (Solid / Harmony)",
      "hue": 53.8,
      "sat": 58.0,
      "lightness": 61.7,
      "tonal_distance": 6.2,
      "regime_state": "TRANSITION SPIKE!"
    },
    {
      "pitch": 60,
      "velocity": 54,
      "onset": 83515,
      "duration": 72,
      "id_score": 680.31,
      "voice_tag": "Voice 1 (Liquid / Melody)",
      "hue": 53.6,
      "sat": 58.2,
      "lightness": 61.7,
      "tonal_distance": 6.4,
      "regime_state": "Stable"
    },
    {
      "pitch": 52,
      "velocity": 43,
      "onset": 83947,
      "duration": 72,
      "id_score": 6.27,
      "voice_tag": "Background (Solid / Harmony)",
      "hue": 46.0,
      "sat": 62.4,
      "lightness": 61.1,
      "tonal_distance": 14.0,
      "regime_state": "TRANSITION SPIKE!"
    },
    {
      "pitch": 60,
      "velocity": 60,
      "onset": 83947,
      "duration": 67,
      "id_score": 0.0,
      "voice_tag": "Background (Solid / Harmony)",
      "hue": 46.0,
      "sat": 62.4,
      "lightness": 61.1,
      "tonal_distance": 14.0,
      "regime_state": "TRANSITION SPIKE!"
    },
    {
      "pitch": 45,
      "velocity": 40,
      "onset": 84354,
      "duration": 369,
      "id_score": 11.61,
      "voice_tag": "Background (Solid / Harmony)",
      "hue": 51.3,
      "sat": 69.0,
      "lightness": 59.0,
      "tonal_distance": 8.7,
      "regime_state": "TRANSITION SPIKE!"
    },
    {
      "pitch": 64,
      "velocity": 66,
      "onset": 84354,
      "duration": 265,
      "id_score": 0.0,
      "voice_tag": "Background (Solid / Harmony)",
      "hue": 51.3,
      "sat": 69.0,
      "lightness": 59.0,
      "tonal_distance": 8.7,
      "regime_state": "TRANSITION SPIKE!"
    },
    {
      "pitch": 52,
      "velocity": 39,
      "onset": 84776,
      "duration": 83,
      "id_score": 8.73,
      "voice_tag": "Background (Solid / Harmony)",
      "hue": 54.0,
      "sat": 51.1,
      "lightness": 59.5,
      "tonal_distance": 6.0,
      "regime_state": "TRANSITION SPIKE!"
    },
    {
      "pitch": 66,
      "velocity": 83,
      "onset": 84776,
      "duration": 62,
      "id_score": 0.0,
      "voice_tag": "Background (Solid / Harmony)",
      "hue": 54.0,
      "sat": 51.1,
      "lightness": 59.5,
      "tonal_distance": 6.0,
      "regime_state": "TRANSITION SPIKE!"
    },
    {
      "pitch": 60,
      "velocity": 42,
      "onset": 84781,
      "duration": 83,
      "id_score": 396.85,
      "voice_tag": "Voice 1 (Liquid / Melody)",
      "hue": 53.9,
      "sat": 51.1,
      "lightness": 59.6,
      "tonal_distance": 6.1,
      "regime_state": "Undefined / Gray Void"
    },
    {
      "pitch": 68,
      "velocity": 81,
      "onset": 84973,
      "duration": 62,
      "id_score": 30.12,
      "voice_tag": "Background (Solid / Harmony)",
      "hue": 38.3,
      "sat": 41.6,
      "lightness": 60.2,
      "tonal_distance": 8.3,
      "regime_state": "TRANSITION SPIKE!"
    },
    {
      "pitch": 69,
      "velocity": 83,
      "onset": 85203,
      "duration": 57,
      "id_score": 3.27,
      "voice_tag": "Background (Solid / Harmony)",
      "hue": 45.6,
      "sat": 48.4,
      "lightness": 60.4,
      "tonal_distance": 14.4,
      "regime_state": "Undefined / Gray Void"
    },
    {
      "pitch": 52,
      "velocity": 41,
      "onset": 85213,
      "duration": 78,
      "id_score": 548.82,
      "voice_tag": "Voice 1 (Liquid / Melody)",
      "hue": 45.6,
      "sat": 48.3,
      "lightness": 60.4,
      "tonal_distance": 14.4,
      "regime_state": "TRANSITION SPIKE!"
    },
    {
      "pitch": 60,
      "velocity": 39,
      "onset": 85213,
      "duration": 62,
      "id_score": 0.0,
      "voice_tag": "Background (Solid / Harmony)",
      "hue": 45.6,
      "sat": 48.3,
      "lightness": 60.4,
      "tonal_distance": 14.4,
      "regime_state": "TRANSITION SPIKE!"
    },
    {
      "pitch": 45,
      "velocity": 60,
      "onset": 85588,
      "duration": 244,
      "id_score": 18.9,
      "voice_tag": "Background (Solid / Harmony)",
      "hue": 56.6,
      "sat": 54.4,
      "lightness": 58.2,
      "tonal_distance": 3.4,
      "regime_state": "TRANSITION SPIKE!"
    },
    {
      "pitch": 69,
      "velocity": 80,
      "onset": 85604,
      "duration": 322,
      "id_score": 1086.61,
      "voice_tag": "Voice 1 (Liquid / Melody)",
      "hue": 56.4,
      "sat": 54.1,
      "lightness": 58.3,
      "tonal_distance": 3.6,
      "regime_state": "Regime Locked"
    },
    {
      "pitch": 71,
      "velocity": 79,
      "onset": 86036,
      "duration": 67,
      "id_score": 3.41,
      "voice_tag": "Background (Solid / Harmony)",
      "hue": 73.8,
      "sat": 52.9,
      "lightness": 58.9,
      "tonal_distance": 13.8,
      "regime_state": "TRANSITION SPIKE!"
    },
    {
      "pitch": 62,
      "velocity": 58,
      "onset": 86041,
      "duration": 93,
      "id_score": 849.45,
      "voice_tag": "Voice 1 (Liquid / Melody)",
      "hue": 73.9,
      "sat": 53.0,
      "lightness": 58.9,
      "tonal_distance": 13.9,
      "regime_state": "Stable"
    },
    {
      "pitch": 52,
      "velocity": 49,
      "onset": 86046,
      "duration": 88,
      "id_score": 771.65,
      "voice_tag": "Voice 1 (Liquid / Melody)",
      "hue": 73.8,
      "sat": 52.9,
      "lightness": 58.8,
      "tonal_distance": 13.8,
      "regime_state": "Stable"
    },
    {
      "pitch": 68,
      "velocity": 78,
      "onset": 86270,
      "duration": 67,
      "id_score": 49.72,
      "voice_tag": "Background (Solid / Harmony)",
      "hue": 64.8,
      "sat": 42.3,
      "lightness": 59.4,
      "tonal_distance": 4.8,
      "regime_state": "Undefined / Gray Void"
    },
    {
      "pitch": 62,
      "velocity": 64,
      "onset": 86468,
      "duration": 78,
      "id_score": 15.78,
      "voice_tag": "Background (Solid / Harmony)",
      "hue": 79.5,
      "sat": 37.5,
      "lightness": 59.8,
      "tonal_distance": 10.5,
      "regime_state": "Undefined / Gray Void"
    },
    {
      "pitch": 52,
      "velocity": 47,
      "onset": 86473,
      "duration": 67,
      "id_score": 740.16,
      "voice_tag": "Voice 1 (Liquid / Melody)",
      "hue": 79.1,
      "sat": 37.4,
      "lightness": 59.8,
      "tonal_distance": 10.9,
      "regime_state": "Undefined / Gray Void"
    },
    {
      "pitch": 66,
      "velocity": 77,
      "onset": 86489,
      "duration": 62,
      "id_score": 583.56,
      "voice_tag": "Voice 1 (Liquid / Melody)",
      "hue": 79.3,
      "sat": 37.4,
      "lightness": 59.8,
      "tonal_distance": 10.7,
      "regime_state": "Undefined / Gray Void"
    },
    {
      "pitch": 69,
      "velocity": 73,
      "onset": 86828,
      "duration": 52,
      "id_score": 5.85,
      "voice_tag": "Background (Solid / Harmony)",
      "hue": 81.6,
      "sat": 45.7,
      "lightness": 58.4,
      "tonal_distance": 8.4,
      "regime_state": "TRANSITION SPIKE!"
    },
    {
      "pitch": 45,
      "velocity": 57,
      "onset": 86848,
      "duration": 369,
      "id_score": 538.58,
      "voice_tag": "Voice 1 (Liquid / Melody)",
      "hue": 90.3,
      "sat": 38.2,
      "lightness": 58.9,
      "tonal_distance": 0.3,
      "regime_state": "Regime Locked"
    },
    {
      "pitch": 66,
      "velocity": 78,
      "onset": 86880,
      "duration": 57,
      "id_score": 443.36,
      "voice_tag": "Voice 1 (Liquid / Melody)",
      "hue": 90.7,
      "sat": 38.0,
      "lightness": 58.9,
      "tonal_distance": 0.7,
      "regime_state": "Stable"
    },
    {
      "pitch": 60,
      "velocity": 62,
      "onset": 87286,
      "duration": 78,
      "id_score": 7.21,
      "voice_tag": "Background (Solid / Harmony)",
      "hue": 75.4,
      "sat": 42.5,
      "lightness": 59.3,
      "tonal_distance": 14.6,
      "regime_state": "TRANSITION SPIKE!"
    },
    {
      "pitch": 52,
      "velocity": 45,
      "onset": 87296,
      "duration": 78,
      "id_score": 283.46,
      "voice_tag": "Voice 1 (Liquid / Melody)",
      "hue": 75.6,
      "sat": 42.4,
      "lightness": 59.3,
      "tonal_distance": 14.4,
      "regime_state": "Stable"
    },
    {
      "pitch": 64,
      "velocity": 70,
      "onset": 87322,
      "duration": 1244,
      "id_score": 271.35,
      "voice_tag": "Voice 1 (Liquid / Melody)",
      "hue": 75.4,
      "sat": 42.5,
      "lightness": 59.3,
      "tonal_distance": 14.6,
      "regime_state": "Stable"
    },
    {
      "pitch": 60,
      "velocity": 71,
      "onset": 87708,
      "duration": 62,
      "id_score": 5.79,
      "voice_tag": "Background (Solid / Harmony)",
      "hue": 65.2,
      "sat": 44.4,
      "lightness": 59.2,
      "tonal_distance": 5.2,
      "regime_state": "TRANSITION SPIKE!"
    },
    {
      "pitch": 52,
      "velocity": 50,
      "onset": 87723,
      "duration": 67,
      "id_score": 209.97,
      "voice_tag": "Voice 1 (Liquid / Melody)",
      "hue": 65.2,
      "sat": 44.4,
      "lightness": 59.2,
      "tonal_distance": 5.2,
      "regime_state": "Stable"
    },
    {
      "pitch": 45,
      "velocity": 71,
      "onset": 88161,
      "duration": 411,
      "id_score": 8.93,
      "voice_tag": "Background (Solid / Harmony)",
      "hue": 68.8,
      "sat": 47.7,
      "lightness": 57.5,
      "tonal_distance": 8.8,
      "regime_state": "TRANSITION SPIKE!"
    },
    {
      "pitch": 60,
      "velocity": 73,
      "onset": 88593,
      "duration": 62,
      "id_score": 19.96,
      "voice_tag": "Background (Solid / Harmony)",
      "hue": 60.4,
      "sat": 50.0,
      "lightness": 57.7,
      "tonal_distance": 0.4,
      "regime_state": "TRANSITION SPIKE!"
    },
    {
      "pitch": 52,
      "velocity": 54,
      "onset": 88609,
      "duration": 67,
      "id_score": 212.6,
      "voice_tag": "Voice 1 (Liquid / Melody)",
      "hue": 61.3,
      "sat": 50.2,
      "lightness": 57.6,
      "tonal_distance": 1.3,
      "regime_state": "Stable"
    },
    {
      "pitch": 60,
      "velocity": 78,
      "onset": 89015,
      "duration": 57,
      "id_score": 12.1,
      "voice_tag": "Background (Solid / Harmony)",
      "hue": 53.2,
      "sat": 53.0,
      "lightness": 57.9,
      "tonal_distance": 6.8,
      "regime_state": "TRANSITION SPIKE!"
    },
    {
      "pitch": 52,
      "velocity": 57,
      "onset": 89020,
      "duration": 67,
      "id_score": 718.11,
      "voice_tag": "Voice 1 (Liquid / Melody)",
      "hue": 53.5,
      "sat": 53.0,
      "lightness": 57.8,
      "tonal_distance": 6.5,
      "regime_state": "Stable"
    },
    {
      "pitch": 45,
      "velocity": 54,
      "onset": 89416,
      "duration": 333,
      "id_score": 7.52,
      "voice_tag": "Background (Solid / Harmony)",
      "hue": 56.9,
      "sat": 54.8,
      "lightness": 56.6,
      "tonal_distance": 3.1,
      "regime_state": "TRANSITION SPIKE!"
    },
    {
      "pitch": 64,
      "velocity": 80,
      "onset": 89635,
      "duration": 78,
      "id_score": 58.29,
      "voice_tag": "Voice 1 (Liquid / Melody)",
      "hue": 57.8,
      "sat": 58.7,
      "lightness": 57.3,
      "tonal_distance": 2.2,
      "regime_state": "TRANSITION SPIKE!"
    },
    {
      "pitch": 52,
      "velocity": 57,
      "onset": 89828,
      "duration": 78,
      "id_score": 27.91,
      "voice_tag": "Background (Solid / Harmony)",
      "hue": 56.2,
      "sat": 48.6,
      "lightness": 58.0,
      "tonal_distance": 3.8,
      "regime_state": "TRANSITION SPIKE!"
    },
    {
      "pitch": 60,
      "velocity": 64,
      "onset": 89833,
      "duration": 67,
      "id_score": 806.3,
      "voice_tag": "Voice 1 (Liquid / Melody)",
      "hue": 56.3,
      "sat": 48.5,
      "lightness": 58.0,
      "tonal_distance": 3.7,
      "regime_state": "Stable"
    },
    {
      "pitch": 66,
      "velocity": 82,
      "onset": 89843,
      "duration": 62,
      "id_score": 426.14,
      "voice_tag": "Voice 1 (Liquid / Melody)",
      "hue": 56.4,
      "sat": 48.6,
      "lightness": 58.0,
      "tonal_distance": 3.6,
      "regime_state": "Stable"
    },
    {
      "pitch": 68,
      "velocity": 84,
      "onset": 90062,
      "duration": 57,
      "id_score": 6.85,
      "voice_tag": "Background (Solid / Harmony)",
      "hue": 46.7,
      "sat": 41.3,
      "lightness": 58.6,
      "tonal_distance": 13.3,
      "regime_state": "TRANSITION SPIKE!"
    },
    {
      "pitch": 68,
      "velocity": 83,
      "onset": 90260,
      "duration": 250,
      "id_score": 0.0,
      "voice_tag": "Background (Solid / Harmony)",
      "hue": 32.8,
      "sat": 42.2,
      "lightness": 59.0,
      "tonal_distance": 2.8,
      "regime_state": "TRANSITION SPIKE!"
    },
    {
      "pitch": 52,
      "velocity": 60,
      "onset": 90270,
      "duration": 88,
      "id_score": 755.91,
      "voice_tag": "Voice 1 (Liquid / Melody)",
      "hue": 32.8,
      "sat": 42.1,
      "lightness": 59.0,
      "tonal_distance": 2.8,
      "regime_state": "Stable"
    },
    {
      "pitch": 60,
      "velocity": 70,
      "onset": 90270,
      "duration": 57,
      "id_score": 0.0,
      "voice_tag": "Background (Solid / Harmony)",
      "hue": 32.8,
      "sat": 42.1,
      "lightness": 59.0,
      "tonal_distance": 2.8,
      "regime_state": "Stable"
    },
    {
      "pitch": 69,
      "velocity": 80,
      "onset": 90500,
      "duration": 72,
      "id_score": 28.35,
      "voice_tag": "Background (Solid / Harmony)",
      "hue": 39.9,
      "sat": 42.8,
      "lightness": 59.4,
      "tonal_distance": 9.9,
      "regime_state": "TRANSITION SPIKE!"
    },
    {
      "pitch": 45,
      "velocity": 64,
      "onset": 90713,
      "duration": 270,
      "id_score": 56.78,
      "voice_tag": "Voice 1 (Liquid / Melody)",
      "hue": 45.3,
      "sat": 44.4,
      "lightness": 58.1,
      "tonal_distance": 14.7,
      "regime_state": "TRANSITION SPIKE!"
    },
    {
      "pitch": 69,
      "velocity": 84,
      "onset": 90937,
      "duration": 62,
      "id_score": 81.5,
      "voice_tag": "Voice 1 (Liquid / Melody)",
      "hue": 51.8,
      "sat": 47.4,
      "lightness": 58.5,
      "tonal_distance": 8.2,
      "regime_state": "TRANSITION SPIKE!"
    },
    {
      "pitch": 62,
      "velocity": 83,
      "onset": 91145,
      "duration": 72,
      "id_score": 22.73,
      "voice_tag": "Background (Solid / Harmony)",
      "hue": 69.2,
      "sat": 48.2,
      "lightness": 58.9,
      "tonal_distance": 9.2,
      "regime_state": "TRANSITION SPIKE!"
    },
    {
      "pitch": 71,
      "velocity": 83,
      "onset": 91145,
      "duration": 57,
      "id_score": 0.0,
      "voice_tag": "Background (Solid / Harmony)",
      "hue": 69.2,
      "sat": 48.2,
      "lightness": 58.9,
      "tonal_distance": 9.2,
      "regime_state": "TRANSITION SPIKE!"
    },
    {
      "pitch": 52,
      "velocity": 64,
      "onset": 91151,
      "duration": 78,
      "id_score": 1595.8,
      "voice_tag": "Voice 1 (Liquid / Melody)",
      "hue": 69.1,
      "sat": 48.3,
      "lightness": 58.9,
      "tonal_distance": 9.1,
      "regime_state": "Stable"
    },
    {
      "pitch": 68,
      "velocity": 81,
      "onset": 91369,
      "duration": 57,
      "id_score": 53.05,
      "voice_tag": "Voice 1 (Liquid / Melody)",
      "hue": 62.0,
      "sat": 40.4,
      "lightness": 59.3,
      "tonal_distance": 2.0,
      "regime_state": "TRANSITION SPIKE!"
    },
    {
      "pitch": 68,
      "velocity": 73,
      "onset": 91567,
      "duration": 203,
      "id_score": 0.0,
      "voice_tag": "Background (Solid / Harmony)",
      "hue": 60.2,
      "sat": 38.6,
      "lightness": 59.5,
      "tonal_distance": 0.2,
      "regime_state": "TRANSITION SPIKE!"
    },
    {
      "pitch": 52,
      "velocity": 57,
      "onset": 91588,
      "duration": 62,
      "id_score": 341.96,
      "voice_tag": "Voice 1 (Liquid / Melody)",
      "hue": 60.6,
      "sat": 38.5,
      "lightness": 59.4,
      "tonal_distance": 0.6,
      "regime_state": "Stable"
    },
    {
      "pitch": 62,
      "velocity": 58,
      "onset": 91588,
      "duration": 67,
      "id_score": 0.0,
      "voice_tag": "Background (Solid / Harmony)",
      "hue": 60.6,
      "sat": 38.5,
      "lightness": 59.4,
      "tonal_distance": 0.6,
      "regime_state": "Stable"
    },
    {
      "pitch": 66,
      "velocity": 75,
      "onset": 91786,
      "duration": 72,
      "id_score": 13.12,
      "voice_tag": "Background (Solid / Harmony)",
      "hue": 64.8,
      "sat": 30.6,
      "lightness": 59.9,
      "tonal_distance": 4.8,
      "regime_state": "Undefined / Gray Void"
    },
    {
      "pitch": 45,
      "velocity": 60,
      "onset": 92000,
      "duration": 255,
      "id_score": 46.36,
      "voice_tag": "Background (Solid / Harmony)",
      "hue": 78.9,
      "sat": 30.6,
      "lightness": 59.4,
      "tonal_distance": 11.1,
      "regime_state": "TRANSITION SPIKE!"
    },
    {
      "pitch": 69,
      "velocity": 75,
      "onset": 92000,
      "duration": 46,
      "id_score": 0.0,
      "voice_tag": "Background (Solid / Harmony)",
      "hue": 78.9,
      "sat": 30.6,
      "lightness": 59.4,
      "tonal_distance": 11.1,
      "regime_state": "TRANSITION SPIKE!"
    },
    {
      "pitch": 66,
      "velocity": 83,
      "onset": 92046,
      "duration": 57,
      "id_score": 46.88,
      "voice_tag": "Background (Solid / Harmony)",
      "hue": 77.4,
      "sat": 30.1,
      "lightness": 59.3,
      "tonal_distance": 12.6,
      "regime_state": "Stable"
    },
    {
      "pitch": 52,
      "velocity": 55,
      "onset": 92458,
      "duration": 72,
      "id_score": 14.72,
      "voice_tag": "Background (Solid / Harmony)",
      "hue": 68.3,
      "sat": 37.7,
      "lightness": 59.5,
      "tonal_distance": 8.3,
      "regime_state": "TRANSITION SPIKE!"
    },
    {
      "pitch": 64,
      "velocity": 85,
      "onset": 92463,
      "duration": 1218,
      "id_score": 1713.39,
      "voice_tag": "Voice 1 (Liquid / Melody)",
      "hue": 68.3,
      "sat": 37.7,
      "lightness": 59.5,
      "tonal_distance": 8.3,
      "regime_state": "Regime Locked"
    },
    {
      "pitch": 60,
      "velocity": 46,
      "onset": 92473,
      "duration": 67,
      "id_score": 144.88,
      "voice_tag": "Voice 1 (Liquid / Melody)",
      "hue": 67.5,
      "sat": 37.4,
      "lightness": 59.5,
      "tonal_distance": 7.5,
      "regime_state": "Stable"
    },
    {
      "pitch": 60,
      "velocity": 75,
      "onset": 92895,
      "duration": 52,
      "id_score": 0.0,
      "voice_tag": "Background (Solid / Harmony)",
      "hue": 57.3,
      "sat": 41.5,
      "lightness": 59.5,
      "tonal_distance": 2.7,
      "regime_state": "TRANSITION SPIKE!"
    },
    {
      "pitch": 52,
      "velocity": 52,
      "onset": 92906,
      "duration": 67,
      "id_score": 297.78,
      "voice_tag": "Voice 1 (Liquid / Melody)",
      "hue": 57.3,
      "sat": 41.6,
      "lightness": 59.5,
      "tonal_distance": 2.7,
      "regime_state": "Stable"
    },
    {
      "pitch": 45,
      "velocity": 51,
      "onset": 93395,
      "duration": 375,
      "id_score": 5.75,
      "voice_tag": "Background (Solid / Harmony)",
      "hue": 61.6,
      "sat": 42.8,
      "lightness": 58.3,
      "tonal_distance": 1.6,
      "regime_state": "TRANSITION SPIKE!"
    },
    {
      "pitch": 60,
      "velocity": 77,
      "onset": 93848,
      "duration": 62,
      "id_score": 20.08,
      "voice_tag": "Background (Solid / Harmony)",
      "hue": 54.3,
      "sat": 47.2,
      "lightness": 58.2,
      "tonal_distance": 5.7,
      "regime_state": "TRANSITION SPIKE!"
    },
    {
      "pitch": 52,
      "velocity": 72,
      "onset": 93869,
      "duration": 57,
      "id_score": 215.97,
      "voice_tag": "Voice 1 (Liquid / Melody)",
      "hue": 54.4,
      "sat": 47.1,
      "lightness": 58.2,
      "tonal_distance": 5.6,
      "regime_state": "Stable"
    },
    {
      "pitch": 52,
      "velocity": 74,
      "onset": 94296,
      "duration": 52,
      "id_score": 0.0,
      "voice_tag": "Background (Solid / Harmony)",
      "hue": 46.5,
      "sat": 52.1,
      "lightness": 58.4,
      "tonal_distance": 13.5,
      "regime_state": "TRANSITION SPIKE!"
    },
    {
      "pitch": 60,
      "velocity": 93,
      "onset": 94302,
      "duration": 46,
      "id_score": 976.38,
      "voice_tag": "Voice 1 (Liquid / Melody)",
      "hue": 46.4,
      "sat": 52.1,
      "lightness": 58.4,
      "tonal_distance": 13.6,
      "regime_state": "Stable"
    },
    {
      "pitch": 60,
      "velocity": 83,
      "onset": 94744,
      "duration": 46,
      "id_score": 0.0,
      "voice_tag": "Background (Solid / Harmony)",
      "hue": 43.1,
      "sat": 61.9,
      "lightness": 61.2,
      "tonal_distance": 13.1,
      "regime_state": "Regime Locked"
    },
    {
      "pitch": 64,
      "velocity": 69,
      "onset": 94744,
      "duration": 72,
      "id_score": 0.0,
      "voice_tag": "Background (Solid / Harmony)",
      "hue": 43.1,
      "sat": 61.9,
      "lightness": 61.2,
      "tonal_distance": 13.1,
      "regime_state": "Regime Locked"
    },
    {
      "pitch": 67,
      "velocity": 87,
      "onset": 94744,
      "duration": 41,
      "id_score": 0.0,
      "voice_tag": "Background (Solid / Harmony)",
      "hue": 43.1,
      "sat": 61.9,
      "lightness": 61.2,
      "tonal_distance": 13.1,
      "regime_state": "Regime Locked"
    },
    {
      "pitch": 76,
      "velocity": 86,
      "onset": 94750,
      "duration": 41,
      "id_score": 1286.61,
      "voice_tag": "Voice 1 (Liquid / Melody)",
      "hue": 43.1,
      "sat": 62.0,
      "lightness": 61.2,
      "tonal_distance": 13.1,
      "regime_state": "TRANSITION SPIKE!"
    },
    {
      "pitch": 65,
      "velocity": 90,
      "onset": 95177,
      "duration": 62,
      "id_score": 19.78,
      "voice_tag": "Background (Solid / Harmony)",
      "hue": 28.0,
      "sat": 58.4,
      "lightness": 63.1,
      "tonal_distance": 2.0,
      "regime_state": "TRANSITION SPIKE!"
    },
    {
      "pitch": 60,
      "velocity": 83,
      "onset": 95197,
      "duration": 57,
      "id_score": 163.39,
      "voice_tag": "Voice 1 (Liquid / Melody)",
      "hue": 28.2,
      "sat": 58.5,
      "lightness": 63.0,
      "tonal_distance": 1.8,
      "regime_state": "Stable"
    },
    {
      "pitch": 68,
      "velocity": 90,
      "onset": 95197,
      "duration": 46,
      "id_score": 0.0,
      "voice_tag": "Background (Solid / Harmony)",
      "hue": 28.2,
      "sat": 58.5,
      "lightness": 63.0,
      "tonal_distance": 1.8,
      "regime_state": "Stable"
    },
    {
      "pitch": 76,
      "velocity": 75,
      "onset": 95208,
      "duration": 52,
      "id_score": 544.02,
      "voice_tag": "Voice 1 (Liquid / Melody)",
      "hue": 28.3,
      "sat": 58.5,
      "lightness": 63.0,
      "tonal_distance": 1.7,
      "regime_state": "Stable"
    },
    {
      "pitch": 66,
      "velocity": 94,
      "onset": 95604,
      "duration": 52,
      "id_score": 20.56,
      "voice_tag": "Background (Solid / Harmony)",
      "hue": 33.7,
      "sat": 51.6,
      "lightness": 64.5,
      "tonal_distance": 3.7,
      "regime_state": "TRANSITION SPIKE!"
    },
    {
      "pitch": 76,
      "velocity": 92,
      "onset": 95609,
      "duration": 46,
      "id_score": 1835.17,
      "voice_tag": "Voice 1 (Liquid / Melody)",
      "hue": 33.7,
      "sat": 51.7,
      "lightness": 64.5,
      "tonal_distance": 3.7,
      "regime_state": "Undefined / Gray Void"
    },
    {
      "pitch": 69,
      "velocity": 88,
      "onset": 95619,
      "duration": 41,
      "id_score": 557.8,
      "voice_tag": "Voice 1 (Liquid / Melody)",
      "hue": 33.9,
      "sat": 51.7,
      "lightness": 64.5,
      "tonal_distance": 3.9,
      "regime_state": "Stable"
    },
    {
      "pitch": 60,
      "velocity": 87,
      "onset": 95625,
      "duration": 41,
      "id_score": 1027.56,
      "voice_tag": "Voice 1 (Liquid / Melody)",
      "hue": 33.8,
      "sat": 51.6,
      "lightness": 64.5,
      "tonal_distance": 3.8,
      "regime_state": "Stable"
    },
    {
      "pitch": 76,
      "velocity": 98,
      "onset": 96031,
      "duration": 197,
      "id_score": 38.52,
      "voice_tag": "Background (Solid / Harmony)",
      "hue": 45.3,
      "sat": 52.9,
      "lightness": 64.9,
      "tonal_distance": 14.7,
      "regime_state": "TRANSITION SPIKE!"
    },
    {
      "pitch": 62,
      "velocity": 80,
      "onset": 96057,
      "duration": 1005,
      "id_score": 350.49,
      "voice_tag": "Voice 1 (Liquid / Melody)",
      "hue": 45.5,
      "sat": 52.9,
      "lightness": 64.9,
      "tonal_distance": 14.5,
      "regime_state": "Stable"
    },
    {
      "pitch": 71,
      "velocity": 74,
      "onset": 96057,
      "duration": 937,
      "id_score": 0.0,
      "voice_tag": "Background (Solid / Harmony)",
      "hue": 45.5,
      "sat": 52.9,
      "lightness": 64.9,
      "tonal_distance": 14.5,
      "regime_state": "Stable"
    },
    {
      "pitch": 67,
      "velocity": 70,
      "onset": 96062,
      "duration": 968,
      "id_score": 492.39,
      "voice_tag": "Voice 1 (Liquid / Melody)",
      "hue": 45.3,
      "sat": 52.9,
      "lightness": 64.9,
      "tonal_distance": 14.7,
      "regime_state": "Stable"
    },
    {
      "pitch": 55,
      "velocity": 70,
      "onset": 96067,
      "duration": 979,
      "id_score": 1322.83,
      "voice_tag": "Voice 1 (Liquid / Melody)",
      "hue": 46.0,
      "sat": 53.4,
      "lightness": 64.9,
      "tonal_distance": 14.0,
      "regime_state": "Stable"
    },
    {
      "pitch": 74,
      "velocity": 79,
      "onset": 96203,
      "duration": 130,
      "id_score": 107.18,
      "voice_tag": "Voice 1 (Liquid / Melody)",
      "hue": 51.0,
      "sat": 52.4,
      "lightness": 65.6,
      "tonal_distance": 9.0,
      "regime_state": "TRANSITION SPIKE!"
    },
    {
      "pitch": 72,
      "velocity": 85,
      "onset": 96338,
      "duration": 57,
      "id_score": 11.9,
      "voice_tag": "Background (Solid / Harmony)",
      "hue": 47.6,
      "sat": 53.4,
      "lightness": 66.5,
      "tonal_distance": 12.4,
      "regime_state": "Stable"
    },
    {
      "pitch": 74,
      "velocity": 88,
      "onset": 96432,
      "duration": 572,
      "id_score": 18.18,
      "voice_tag": "Background (Solid / Harmony)",
      "hue": 53.0,
      "sat": 52.4,
      "lightness": 67.2,
      "tonal_distance": 7.0,
      "regime_state": "TRANSITION SPIKE!"
    },
    {
      "pitch": 57,
      "velocity": 84,
      "onset": 97619,
      "duration": 62,
      "id_score": 9.47,
      "voice_tag": "Background (Solid / Harmony)",
      "hue": 47.6,
      "sat": 59.1,
      "lightness": 67.0,
      "tonal_distance": 12.4,
      "regime_state": "TRANSITION SPIKE!"
    },
    {
      "pitch": 60,
      "velocity": 67,
      "onset": 97625,
      "duration": 62,
      "id_score": 263.78,
      "voice_tag": "Voice 1 (Liquid / Melody)",
      "hue": 47.5,
      "sat": 59.1,
      "lightness": 67.1,
      "tonal_distance": 12.5,
      "regime_state": "Stable"
    },
    {
      "pitch": 64,
      "velocity": 86,
      "onset": 97625,
      "duration": 52,
      "id_score": 0.0,
      "voice_tag": "Background (Solid / Harmony)",
      "hue": 47.5,
      "sat": 59.1,
      "lightness": 67.1,
      "tonal_distance": 12.5,
      "regime_state": "Stable"
    },
    {
      "pitch": 72,
      "velocity": 81,
      "onset": 97625,
      "duration": 57,
      "id_score": 0.0,
      "voice_tag": "Background (Solid / Harmony)",
      "hue": 47.5,
      "sat": 59.1,
      "lightness": 67.1,
      "tonal_distance": 12.5,
      "regime_state": "Stable"
    },
    {
      "pitch": 62,
      "velocity": 96,
      "onset": 98026,
      "duration": 62,
      "id_score": 19.48,
      "voice_tag": "Background (Solid / Harmony)",
      "hue": 46.5,
      "sat": 57.0,
      "lightness": 66.7,
      "tonal_distance": 13.5,
      "regime_state": "TRANSITION SPIKE!"
    },
    {
      "pitch": 65,
      "velocity": 91,
      "onset": 98031,
      "duration": 62,
      "id_score": 465.75,
      "voice_tag": "Voice 1 (Liquid / Melody)",
      "hue": 46.4,
      "sat": 57.0,
      "lightness": 66.7,
      "tonal_distance": 13.6,
      "regime_state": "Undefined / Gray Void"
    },
    {
      "pitch": 57,
      "velocity": 86,
      "onset": 98046,
      "duration": 62,
      "id_score": 361.15,
      "voice_tag": "Voice 1 (Liquid / Melody)",
      "hue": 46.5,
      "sat": 56.9,
      "lightness": 66.7,
      "tonal_distance": 13.5,
      "regime_state": "Stable"
    },
    {
      "pitch": 72,
      "velocity": 85,
      "onset": 98046,
      "duration": 62,
      "id_score": 0.0,
      "voice_tag": "Background (Solid / Harmony)",
      "hue": 46.5,
      "sat": 56.9,
      "lightness": 66.7,
      "tonal_distance": 13.5,
      "regime_state": "Stable"
    },
    {
      "pitch": 63,
      "velocity": 103,
      "onset": 98453,
      "duration": 52,
      "id_score": 18.83,
      "voice_tag": "Background (Solid / Harmony)",
      "hue": 42.9,
      "sat": 42.5,
      "lightness": 66.3,
      "tonal_distance": 12.9,
      "regime_state": "TRANSITION SPIKE!"
    },
    {
      "pitch": 66,
      "velocity": 94,
      "onset": 98458,
      "duration": 52,
      "id_score": 488.5,
      "voice_tag": "Voice 1 (Liquid / Melody)",
      "hue": 43.0,
      "sat": 42.6,
      "lightness": 66.3,
      "tonal_distance": 13.0,
      "regime_state": "Stable"
    },
    {
      "pitch": 72,
      "velocity": 86,
      "onset": 98463,
      "duration": 52,
      "id_score": 975.12,
      "voice_tag": "Voice 1 (Liquid / Melody)",
      "hue": 42.9,
      "sat": 42.5,
      "lightness": 66.3,
      "tonal_distance": 12.9,
      "regime_state": "Stable"
    },
    {
      "pitch": 57,
      "velocity": 95,
      "onset": 98468,
      "duration": 41,
      "id_score": 2244.09,
      "voice_tag": "Voice 1 (Liquid / Melody)",
      "hue": 42.8,
      "sat": 42.1,
      "lightness": 66.3,
      "tonal_distance": 12.8,
      "regime_state": "Undefined / Gray Void"
    },
    {
      "pitch": 72,
      "velocity": 104,
      "onset": 98932,
      "duration": 265,
      "id_score": 31.77,
      "voice_tag": "Background (Solid / Harmony)",
      "hue": 46.0,
      "sat": 47.9,
      "lightness": 65.6,
      "tonal_distance": 14.0,
      "regime_state": "TRANSITION SPIKE!"
    },
    {
      "pitch": 64,
      "velocity": 98,
      "onset": 98942,
      "duration": 1140,
      "id_score": 658.48,
      "voice_tag": "Voice 1 (Liquid / Melody)",
      "hue": 46.0,
      "sat": 47.9,
      "lightness": 65.6,
      "tonal_distance": 14.0,
      "regime_state": "Stable"
    },
    {
      "pitch": 59,
      "velocity": 86,
      "onset": 98953,
      "duration": 1187,
      "id_score": 307.8,
      "voice_tag": "Voice 1 (Liquid / Melody)",
      "hue": 45.9,
      "sat": 47.9,
      "lightness": 65.6,
      "tonal_distance": 14.1,
      "regime_state": "Stable"
    },
    {
      "pitch": 67,
      "velocity": 86,
      "onset": 98953,
      "duration": 67,
      "id_score": 0.0,
      "voice_tag": "Background (Solid / Harmony)",
      "hue": 45.9,
      "sat": 47.9,
      "lightness": 65.6,
      "tonal_distance": 14.1,
      "regime_state": "Stable"
    },
    {
      "pitch": 52,
      "velocity": 75,
      "onset": 98958,
      "duration": 1114,
      "id_score": 1771.65,
      "voice_tag": "Voice 1 (Liquid / Melody)",
      "hue": 46.0,
      "sat": 47.9,
      "lightness": 65.6,
      "tonal_distance": 14.0,
      "regime_state": "Stable"
    },
    {
      "pitch": 67,
      "velocity": 31,
      "onset": 99093,
      "duration": 947,
      "id_score": 30.29,
      "voice_tag": "Background (Solid / Harmony)",
      "hue": 51.6,
      "sat": 45.3,
      "lightness": 65.5,
      "tonal_distance": 8.4,
      "regime_state": "TRANSITION SPIKE!"
    },
    {
      "pitch": 71,
      "velocity": 93,
      "onset": 99140,
      "duration": 130,
      "id_score": 73.75,
      "voice_tag": "Voice 1 (Liquid / Melody)",
      "hue": 51.8,
      "sat": 45.2,
      "lightness": 65.6,
      "tonal_distance": 8.2,
      "regime_state": "Stable"
    },
    {
      "pitch": 69,
      "velocity": 86,
      "onset": 99281,
      "duration": 67,
      "id_score": 11.05,
      "voice_tag": "Background (Solid / Harmony)",
      "hue": 55.4,
      "sat": 46.9,
      "lightness": 65.5,
      "tonal_distance": 4.6,
      "regime_state": "TRANSITION SPIKE!"
    },
    {
      "pitch": 71,
      "velocity": 86,
      "onset": 99364,
      "duration": 713,
      "id_score": 19.31,
      "voice_tag": "Background (Solid / Harmony)",
      "hue": 61.3,
      "sat": 44.5,
      "lightness": 65.5,
      "tonal_distance": 1.3,
      "regime_state": "Stable"
    },
    {
      "pitch": 71,
      "velocity": 80,
      "onset": 100505,
      "duration": 161,
      "id_score": 0.0,
      "voice_tag": "Background (Solid / Harmony)",
      "hue": 54.3,
      "sat": 38.2,
      "lightness": 65.0,
      "tonal_distance": 5.7,
      "regime_state": "TRANSITION SPIKE!"
    },
    {
      "pitch": 60,
      "velocity": 56,
      "onset": 100526,
      "duration": 963,
      "id_score": 230.97,
      "voice_tag": "Voice 1 (Liquid / Melody)",
      "hue": 54.3,
      "sat": 38.1,
      "lightness": 65.0,
      "tonal_distance": 5.7,
      "regime_state": "Stable"
    },
    {
      "pitch": 53,
      "velocity": 64,
      "onset": 100531,
      "duration": 989,
      "id_score": 705.51,
      "voice_tag": "Voice 1 (Liquid / Melody)",
      "hue": 54.5,
      "sat": 38.1,
      "lightness": 65.0,
      "tonal_distance": 5.5,
      "regime_state": "Undefined / Gray Void"
    },
    {
      "pitch": 65,
      "velocity": 46,
      "onset": 100541,
      "duration": 1000,
      "id_score": 470.87,
      "voice_tag": "Voice 1 (Liquid / Melody)",
      "hue": 54.6,
      "sat": 38.3,
      "lightness": 65.0,
      "tonal_distance": 5.4,
      "regime_state": "Stable"
    },
    {
      "pitch": 69,
      "velocity": 62,
      "onset": 100682,
      "duration": 140,
      "id_score": 15.93,
      "voice_tag": "Background (Solid / Harmony)",
      "hue": 58.2,
      "sat": 40.3,
      "lightness": 65.0,
      "tonal_distance": 1.8,
      "regime_state": "TRANSITION SPIKE!"
    },
    {
      "pitch": 67,
      "velocity": 72,
      "onset": 100828,
      "duration": 140,
      "id_score": 8.67,
      "voice_tag": "Background (Solid / Harmony)",
      "hue": 56.1,
      "sat": 41.5,
      "lightness": 64.9,
      "tonal_distance": 3.9,
      "regime_state": "Stable"
    },
    {
      "pitch": 69,
      "velocity": 60,
      "onset": 100979,
      "duration": 531,
      "id_score": 7.2,
      "voice_tag": "Background (Solid / Harmony)",
      "hue": 59.3,
      "sat": 43.4,
      "lightness": 64.9,
      "tonal_distance": 0.7,
      "regime_state": "TRANSITION SPIKE!"
    },
    {
      "pitch": 55,
      "velocity": 57,
      "onset": 101968,
      "duration": 1437,
      "id_score": 6.35,
      "voice_tag": "Background (Solid / Harmony)",
      "hue": 40.1,
      "sat": 49.5,
      "lightness": 63.3,
      "tonal_distance": 10.1,
      "regime_state": "TRANSITION SPIKE!"
    },
    {
      "pitch": 48,
      "velocity": 53,
      "onset": 101973,
      "duration": 1395,
      "id_score": 584.25,
      "voice_tag": "Voice 1 (Liquid / Melody)",
      "hue": 40.1,
      "sat": 49.4,
      "lightness": 63.3,
      "tonal_distance": 10.1,
      "regime_state": "Stable"
    },
    {
      "pitch": 60,
      "velocity": 51,
      "onset": 101979,
      "duration": 1364,
      "id_score": 803.15,
      "voice_tag": "Voice 1 (Liquid / Melody)",
      "hue": 40.2,
      "sat": 49.5,
      "lightness": 63.3,
      "tonal_distance": 10.2,
      "regime_state": "Stable"
    },
    {
      "pitch": 65,
      "velocity": 66,
      "onset": 101979,
      "duration": 151,
      "id_score": 0.0,
      "voice_tag": "Background (Solid / Harmony)",
      "hue": 40.2,
      "sat": 49.5,
      "lightness": 63.3,
      "tonal_distance": 10.2,
      "regime_state": "Stable"
    },
    {
      "pitch": 67,
      "velocity": 54,
      "onset": 101984,
      "duration": 1598,
      "id_score": 189.92,
      "voice_tag": "Voice 1 (Liquid / Melody)",
      "hue": 40.3,
      "sat": 49.4,
      "lightness": 63.3,
      "tonal_distance": 10.3,
      "regime_state": "Stable"
    },
    {
      "pitch": 64,
      "velocity": 68,
      "onset": 102177,
      "duration": 177,
      "id_score": 8.88,
      "voice_tag": "Background (Solid / Harmony)",
      "hue": 40.7,
      "sat": 51.8,
      "lightness": 63.3,
      "tonal_distance": 10.7,
      "regime_state": "TRANSITION SPIKE!"
    },
    {
      "pitch": 62,
      "velocity": 69,
      "onset": 102359,
      "duration": 135,
      "id_score": 6.17,
      "voice_tag": "Background (Solid / Harmony)",
      "hue": 47.8,
      "sat": 50.0,
      "lightness": 63.1,
      "tonal_distance": 12.2,
      "regime_state": "TRANSITION SPIKE!"
    },
    {
      "pitch": 64,
      "velocity": 60,
      "onset": 102546,
      "duration": 859,
      "id_score": 5.39,
      "voice_tag": "Background (Solid / Harmony)",
      "hue": 48.1,
      "sat": 53.0,
      "lightness": 63.0,
      "tonal_distance": 11.9,
      "regime_state": "TRANSITION SPIKE!"
    },
    {
      "pitch": 57,
      "velocity": 93,
      "onset": 103645,
      "duration": 52,
      "id_score": 4.66,
      "voice_tag": "Background (Solid / Harmony)",
      "hue": 46.4,
      "sat": 50.8,
      "lightness": 61.2,
      "tonal_distance": 13.6,
      "regime_state": "TRANSITION SPIKE!"
    },
    {
      "pitch": 60,
      "velocity": 95,
      "onset": 103645,
      "duration": 57,
      "id_score": 0.0,
      "voice_tag": "Background (Solid / Harmony)",
      "hue": 46.4,
      "sat": 50.8,
      "lightness": 61.2,
      "tonal_distance": 13.6,
      "regime_state": "TRANSITION SPIKE!"
    },
    {
      "pitch": 50,
      "velocity": 82,
      "onset": 103651,
      "duration": 83,
      "id_score": 1076.12,
      "voice_tag": "Voice 1 (Liquid / Melody)",
      "hue": 46.6,
      "sat": 50.8,
      "lightness": 61.2,
      "tonal_distance": 13.4,
      "regime_state": "Stable"
    },
    {
      "pitch": 65,
      "velocity": 88,
      "onset": 103651,
      "duration": 192,
      "id_score": 0.0,
      "voice_tag": "Background (Solid / Harmony)",
      "hue": 46.6,
      "sat": 50.8,
      "lightness": 61.2,
      "tonal_distance": 13.4,
      "regime_state": "Stable"
    },
    {
      "pitch": 52,
      "velocity": 81,
      "onset": 104020,
      "duration": 62,
      "id_score": 22.47,
      "voice_tag": "Background (Solid / Harmony)",
      "hue": 46.2,
      "sat": 59.6,
      "lightness": 60.2,
      "tonal_distance": 13.8,
      "regime_state": "TRANSITION SPIKE!"
    },
    {
      "pitch": 57,
      "velocity": 83,
      "onset": 104036,
      "duration": 52,
      "id_score": 204.23,
      "voice_tag": "Voice 1 (Liquid / Melody)",
      "hue": 46.3,
      "sat": 60.2,
      "lightness": 60.1,
      "tonal_distance": 13.7,
      "regime_state": "Stable"
    },
    {
      "pitch": 67,
      "velocity": 90,
      "onset": 104036,
      "duration": 83,
      "id_score": 0.0,
      "voice_tag": "Background (Solid / Harmony)",
      "hue": 46.3,
      "sat": 60.2,
      "lightness": 60.1,
      "tonal_distance": 13.7,
      "regime_state": "Stable"
    },
    {
      "pitch": 60,
      "velocity": 75,
      "onset": 104057,
      "duration": 57,
      "id_score": 196.85,
      "voice_tag": "Voice 1 (Liquid / Melody)",
      "hue": 46.2,
      "sat": 60.1,
      "lightness": 60.0,
      "tonal_distance": 13.8,
      "regime_state": "Stable"
    },
    {
      "pitch": 57,
      "velocity": 75,
      "onset": 104239,
      "duration": 78,
      "id_score": 9.73,
      "voice_tag": "Background (Solid / Harmony)",
      "hue": 45.7,
      "sat": 59.8,
      "lightness": 59.4,
      "tonal_distance": 14.3,
      "regime_state": "TRANSITION SPIKE!"
    },
    {
      "pitch": 53,
      "velocity": 83,
      "onset": 104250,
      "duration": 62,
      "id_score": 237.65,
      "voice_tag": "Voice 1 (Liquid / Melody)",
      "hue": 45.6,
      "sat": 59.7,
      "lightness": 59.4,
      "tonal_distance": 14.4,
      "regime_state": "Stable"
    },
    {
      "pitch": 69,
      "velocity": 83,
      "onset": 104250,
      "duration": 83,
      "id_score": 0.0,
      "voice_tag": "Background (Solid / Harmony)",
      "hue": 45.6,
      "sat": 59.7,
      "lightness": 59.4,
      "tonal_distance": 14.4,
      "regime_state": "Stable"
    },
    {
      "pitch": 60,
      "velocity": 48,
      "onset": 104260,
      "duration": 67,
      "id_score": 340.16,
      "voice_tag": "Voice 1 (Liquid / Melody)",
      "hue": 45.8,
      "sat": 59.7,
      "lightness": 59.4,
      "tonal_distance": 14.2,
      "regime_state": "Regime Locked"
    },
    {
      "pitch": 50,
      "velocity": 98,
      "onset": 104484,
      "duration": 57,
      "id_score": 34.45,
      "voice_tag": "Background (Solid / Harmony)",
      "hue": 45.8,
      "sat": 58.7,
      "lightness": 58.8,
      "tonal_distance": 14.2,
      "regime_state": "TRANSITION SPIKE!"
    },
    {
      "pitch": 57,
      "velocity": 101,
      "onset": 104494,
      "duration": 41,
      "id_score": 556.69,
      "voice_tag": "Voice 1 (Liquid / Melody)",
      "hue": 45.7,
      "sat": 58.7,
      "lightness": 58.8,
      "tonal_distance": 14.3,
      "regime_state": "Stable"
    },
    {
      "pitch": 65,
      "velocity": 104,
      "onset": 104494,
      "duration": 57,
      "id_score": 0.0,
      "voice_tag": "Background (Solid / Harmony)",
      "hue": 45.7,
      "sat": 58.7,
      "lightness": 58.8,
      "tonal_distance": 14.3,
      "regime_state": "Stable"
    },
    {
      "pitch": 60,
      "velocity": 95,
      "onset": 104500,
      "duration": 46,
      "id_score": 623.36,
      "voice_tag": "Voice 1 (Liquid / Melody)",
      "hue": 45.7,
      "sat": 58.7,
      "lightness": 58.8,
      "tonal_distance": 14.3,
      "regime_state": "Stable"
    },
    {
      "pitch": 53,
      "velocity": 101,
      "onset": 104932,
      "duration": 41,
      "id_score": 12.89,
      "voice_tag": "Background (Solid / Harmony)",
      "hue": 56.5,
      "sat": 52.1,
      "lightness": 57.7,
      "tonal_distance": 3.5,
      "regime_state": "TRANSITION SPIKE!"
    },
    {
      "pitch": 57,
      "velocity": 105,
      "onset": 104932,
      "duration": 46,
      "id_score": 0.0,
      "voice_tag": "Background (Solid / Harmony)",
      "hue": 56.5,
      "sat": 52.1,
      "lightness": 57.7,
      "tonal_distance": 3.5,
      "regime_state": "TRANSITION SPIKE!"
    },
    {
      "pitch": 62,
      "velocity": 111,
      "onset": 104932,
      "duration": 93,
      "id_score": 0.0,
      "voice_tag": "Background (Solid / Harmony)",
      "hue": 56.5,
      "sat": 52.1,
      "lightness": 57.7,
      "tonal_distance": 3.5,
      "regime_state": "TRANSITION SPIKE!"
    },
    {
      "pitch": 59,
      "velocity": 97,
      "onset": 104942,
      "duration": 36,
      "id_score": 229.13,
      "voice_tag": "Voice 1 (Liquid / Melody)",
      "hue": 57.2,
      "sat": 52.1,
      "lightness": 57.6,
      "tonal_distance": 2.8,
      "regime_state": "Stable"
    },
    {
      "pitch": 64,
      "velocity": 72,
      "onset": 105583,
      "duration": 1307,
      "id_score": 4.72,
      "voice_tag": "Background (Solid / Harmony)",
      "hue": 55.7,
      "sat": 51.5,
      "lightness": 57.1,
      "tonal_distance": 4.3,
      "regime_state": "TRANSITION SPIKE!"
    },
    {
      "pitch": 59,
      "velocity": 43,
      "onset": 105604,
      "duration": 994,
      "id_score": 80.61,
      "voice_tag": "Voice 1 (Liquid / Melody)",
      "hue": 55.9,
      "sat": 51.4,
      "lightness": 57.0,
      "tonal_distance": 4.1,
      "regime_state": "Stable"
    },
    {
      "pitch": 52,
      "velocity": 48,
      "onset": 105609,
      "duration": 1171,
      "id_score": 529.13,
      "voice_tag": "Voice 1 (Liquid / Melody)",
      "hue": 55.9,
      "sat": 51.6,
      "lightness": 57.1,
      "tonal_distance": 4.1,
      "regime_state": "Stable"
    },
    {
      "pitch": 56,
      "velocity": 44,
      "onset": 105609,
      "duration": 1244,
      "id_score": 0.0,
      "voice_tag": "Background (Solid / Harmony)",
      "hue": 55.9,
      "sat": 51.6,
      "lightness": 57.1,
      "tonal_distance": 4.1,
      "regime_state": "Stable"
    },
    {
      "pitch": 52,
      "velocity": 43,
      "onset": 108083,
      "duration": 3296,
      "id_score": 0.55,
      "voice_tag": "Background (Solid / Harmony)",
      "hue": 75.4,
      "sat": 53.0,
      "lightness": 56.5,
      "tonal_distance": 14.6,
      "regime_state": "TRANSITION SPIKE!"
    },
    {
      "pitch": 45,
      "velocity": 39,
      "onset": 108093,
      "duration": 3281,
      "id_score": 214.96,
      "voice_tag": "Voice 1 (Liquid / Melody)",
      "hue": 75.4,
      "sat": 52.9,
      "lightness": 56.6,
      "tonal_distance": 14.6,
      "regime_state": "Stable"
    },
    {
      "pitch": 69,
      "velocity": 67,
      "onset": 108104,
      "duration": 1015,
      "id_score": 1323.69,
      "voice_tag": "Voice 1 (Liquid / Melody)",
      "hue": 75.2,
      "sat": 52.7,
      "lightness": 56.6,
      "tonal_distance": 14.8,
      "regime_state": "Stable"
    },
    {
      "pitch": 61,
      "velocity": 61,
      "onset": 108109,
      "duration": 1484,
      "id_score": 781.31,
      "voice_tag": "Voice 1 (Liquid / Melody)",
      "hue": 75.2,
      "sat": 52.6,
      "lightness": 56.6,
      "tonal_distance": 14.8,
      "regime_state": "Stable"
    },
    {
      "pitch": 71,
      "velocity": 51,
      "onset": 109239,
      "duration": 270,
      "id_score": 4.21,
      "voice_tag": "Background (Solid / Harmony)",
      "hue": 85.0,
      "sat": 50.0,
      "lightness": 57.1,
      "tonal_distance": 5.0,
      "regime_state": "TRANSITION SPIKE!"
    },
    {
      "pitch": 68,
      "velocity": 73,
      "onset": 109510,
      "duration": 62,
      "id_score": 7.21,
      "voice_tag": "Background (Solid / Harmony)",
      "hue": 72.8,
      "sat": 34.5,
      "lightness": 58.1,
      "tonal_distance": 12.8,
      "regime_state": "TRANSITION SPIKE!"
    },
    {
      "pitch": 68,
      "velocity": 77,
      "onset": 109796,
      "duration": 93,
      "id_score": 0.0,
      "voice_tag": "Background (Solid / Harmony)",
      "hue": 76.1,
      "sat": 25.6,
      "lightness": 59.8,
      "tonal_distance": 13.9,
      "regime_state": "TRANSITION SPIKE!"
    },
    {
      "pitch": 62,
      "velocity": 76,
      "onset": 109838,
      "duration": 1447,
      "id_score": 88.34,
      "voice_tag": "Voice 1 (Liquid / Melody)",
      "hue": 107.2,
      "sat": 16.9,
      "lightness": 60.4,
      "tonal_distance": 12.8,
      "regime_state": "Undefined / Gray Void"
    },
    {
      "pitch": 66,
      "velocity": 85,
      "onset": 109864,
      "duration": 265,
      "id_score": 113.26,
      "voice_tag": "Voice 1 (Liquid / Melody)",
      "hue": 108.0,
      "sat": 16.9,
      "lightness": 60.4,
      "tonal_distance": 12.0,
      "regime_state": "Stable"
    },
    {
      "pitch": 64,
      "velocity": 82,
      "onset": 110161,
      "duration": 62,
      "id_score": 4.64,
      "voice_tag": "Background (Solid / Harmony)",
      "hue": 94.8,
      "sat": 22.1,
      "lightness": 61.1,
      "tonal_distance": 4.8,
      "regime_state": "Undefined / Gray Void"
    },
    {
      "pitch": 64,
      "velocity": 69,
      "onset": 110583,
      "duration": 776,
      "id_score": 0.0,
      "voice_tag": "Background (Solid / Harmony)",
      "hue": 92.0,
      "sat": 27.8,
      "lightness": 62.1,
      "tonal_distance": 2.0,
      "regime_state": "TRANSITION SPIKE!"
    },
    {
      "pitch": 52,
      "velocity": 56,
      "onset": 111838,
      "duration": 3291,
      "id_score": 4.22,
      "voice_tag": "Background (Solid / Harmony)",
      "hue": 100.2,
      "sat": 45.3,
      "lightness": 60.0,
      "tonal_distance": 10.2,
      "regime_state": "TRANSITION SPIKE!"
    },
    {
      "pitch": 69,
      "velocity": 75,
      "onset": 111838,
      "duration": 510,
      "id_score": 0.0,
      "voice_tag": "Background (Solid / Harmony)",
      "hue": 100.2,
      "sat": 45.3,
      "lightness": 60.0,
      "tonal_distance": 10.2,
      "regime_state": "TRANSITION SPIKE!"
    },
    {
      "pitch": 45,
      "velocity": 51,
      "onset": 111843,
      "duration": 3276,
      "id_score": 1927.56,
      "voice_tag": "Voice 1 (Liquid / Melody)",
      "hue": 100.3,
      "sat": 45.0,
      "lightness": 60.0,
      "tonal_distance": 10.3,
      "regime_state": "Stable"
    },
    {
      "pitch": 61,
      "velocity": 69,
      "onset": 111843,
      "duration": 1447,
      "id_score": 0.0,
      "voice_tag": "Background (Solid / Harmony)",
      "hue": 100.3,
      "sat": 45.0,
      "lightness": 60.0,
      "tonal_distance": 10.3,
      "regime_state": "Stable"
    },
    {
      "pitch": 71,
      "velocity": 74,
      "onset": 112427,
      "duration": 286,
      "id_score": 11.81,
      "voice_tag": "Background (Solid / Harmony)",
      "hue": 112.6,
      "sat": 49.0,
      "lightness": 60.7,
      "tonal_distance": 7.4,
      "regime_state": "TRANSITION SPIKE!"
    },
    {
      "pitch": 73,
      "velocity": 84,
      "onset": 112697,
      "duration": 390,
      "id_score": 5.96,
      "voice_tag": "Background (Solid / Harmony)",
      "hue": 128.8,
      "sat": 49.1,
      "lightness": 63.6,
      "tonal_distance": 8.8,
      "regime_state": "TRANSITION SPIKE!"
    },
    {
      "pitch": 69,
      "velocity": 66,
      "onset": 112994,
      "duration": 229,
      "id_score": 8.05,
      "voice_tag": "Background (Solid / Harmony)",
      "hue": 121.0,
      "sat": 53.1,
      "lightness": 63.7,
      "tonal_distance": 1.0,
      "regime_state": "TRANSITION SPIKE!"
    },
    {
      "pitch": 66,
      "velocity": 82,
      "onset": 113218,
      "duration": 62,
      "id_score": 9.51,
      "voice_tag": "Background (Solid / Harmony)",
      "hue": 137.1,
      "sat": 48.0,
      "lightness": 63.9,
      "tonal_distance": 12.9,
      "regime_state": "TRANSITION SPIKE!"
    },
    {
      "pitch": 68,
      "velocity": 88,
      "onset": 113531,
      "duration": 62,
      "id_score": 5.02,
      "voice_tag": "Background (Solid / Harmony)",
      "hue": 155.0,
      "sat": 37.1,
      "lightness": 64.3,
      "tonal_distance": 5.0,
      "regime_state": "TRANSITION SPIKE!"
    },
    {
      "pitch": 62,
      "velocity": 85,
      "onset": 113552,
      "duration": 1484,
      "id_score": 197.6,
      "voice_tag": "Voice 1 (Liquid / Melody)",
      "hue": 155.0,
      "sat": 37.5,
      "lightness": 64.3,
      "tonal_distance": 5.0,
      "regime_state": "Undefined / Gray Void"
    },
    {
      "pitch": 66,
      "velocity": 97,
      "onset": 113578,
      "duration": 312,
      "id_score": 129.25,
      "voice_tag": "Voice 1 (Liquid / Melody)",
      "hue": 155.0,
      "sat": 37.3,
      "lightness": 64.3,
      "tonal_distance": 5.0,
      "regime_state": "Stable"
    },
    {
      "pitch": 64,
      "velocity": 78,
      "onset": 113911,
      "duration": 57,
      "id_score": 3.93,
      "voice_tag": "Background (Solid / Harmony)",
      "hue": 138.6,
      "sat": 34.3,
      "lightness": 64.3,
      "tonal_distance": 11.4,
      "regime_state": "TRANSITION SPIKE!"
    },
    {
      "pitch": 64,
      "velocity": 83,
      "onset": 114322,
      "duration": 760,
      "id_score": 0.0,
      "voice_tag": "Background (Solid / Harmony)",
      "hue": 121.7,
      "sat": 33.4,
      "lightness": 64.6,
      "tonal_distance": 1.7,
      "regime_state": "Regime Locked"
    },
    {
      "pitch": 69,
      "velocity": 76,
      "onset": 115494,
      "duration": 135,
      "id_score": 2.94,
      "voice_tag": "Background (Solid / Harmony)",
      "hue": 111.0,
      "sat": 40.4,
      "lightness": 64.7,
      "tonal_distance": 9.0,
      "regime_state": "TRANSITION SPIKE!"
    },
    {
      "pitch": 45,
      "velocity": 66,
      "onset": 115578,
      "duration": 2692,
      "id_score": 148.48,
      "voice_tag": "Voice 1 (Liquid / Melody)",
      "hue": 112.7,
      "sat": 42.0,
      "lightness": 60.8,
      "tonal_distance": 7.3,
      "regime_state": "Stable"
    },
    {
      "pitch": 52,
      "velocity": 72,
      "onset": 115578,
      "duration": 2692,
      "id_score": 0.0,
      "voice_tag": "Background (Solid / Harmony)",
      "hue": 112.7,
      "sat": 42.0,
      "lightness": 60.8,
      "tonal_distance": 7.3,
      "regime_state": "Stable"
    },
    {
      "pitch": 66,
      "velocity": 89,
      "onset": 115625,
      "duration": 83,
      "id_score": 229.62,
      "voice_tag": "Voice 1 (Liquid / Melody)",
      "hue": 125.9,
      "sat": 42.7,
      "lightness": 61.3,
      "tonal_distance": 5.9,
      "regime_state": "Stable"
    },
    {
      "pitch": 61,
      "velocity": 87,
      "onset": 115640,
      "duration": 2609,
      "id_score": 232.15,
      "voice_tag": "Voice 1 (Liquid / Melody)",
      "hue": 126.1,
      "sat": 42.8,
      "lightness": 61.3,
      "tonal_distance": 6.1,
      "regime_state": "Stable"
    },
    {
      "pitch": 64,
      "velocity": 80,
      "onset": 116427,
      "duration": 1817,
      "id_score": 2.56,
      "voice_tag": "Background (Solid / Harmony)",
      "hue": 112.2,
      "sat": 45.2,
      "lightness": 61.5,
      "tonal_distance": 7.8,
      "regime_state": "TRANSITION SPIKE!"
    },
    {
      "pitch": 69,
      "velocity": 74,
      "onset": 119380,
      "duration": 281,
      "id_score": 1.13,
      "voice_tag": "Background (Solid / Harmony)",
      "hue": 96.7,
      "sat": 59.1,
      "lightness": 62.0,
      "tonal_distance": 6.7,
      "regime_state": "TRANSITION SPIKE!"
    },
    {
      "pitch": 45,
      "velocity": 59,
      "onset": 119640,
      "duration": 4255,
      "id_score": 42.88,
      "voice_tag": "Background (Solid / Harmony)",
      "hue": 53.6,
      "sat": 56.7,
      "lightness": 58.0,
      "tonal_distance": 6.4,
      "regime_state": "TRANSITION SPIKE!"
    },
    {
      "pitch": 52,
      "velocity": 53,
      "onset": 119651,
      "duration": 4130,
      "id_score": 265.57,
      "voice_tag": "Voice 1 (Liquid / Melody)",
      "hue": 53.3,
      "sat": 56.6,
      "lightness": 58.0,
      "tonal_distance": 6.7,
      "regime_state": "Stable"
    },
    {
      "pitch": 65,
      "velocity": 74,
      "onset": 119651,
      "duration": 78,
      "id_score": 0.0,
      "voice_tag": "Background (Solid / Harmony)",
      "hue": 53.3,
      "sat": 56.6,
      "lightness": 58.0,
      "tonal_distance": 6.7,
      "regime_state": "Stable"
    },
    {
      "pitch": 60,
      "velocity": 75,
      "onset": 119666,
      "duration": 5510,
      "id_score": 196.85,
      "voice_tag": "Voice 1 (Liquid / Melody)",
      "hue": 53.5,
      "sat": 56.9,
      "lightness": 58.0,
      "tonal_distance": 6.5,
      "regime_state": "Stable"
    },
    {
      "pitch": 64,
      "velocity": 83,
      "onset": 120567,
      "duration": 4572,
      "id_score": 3.09,
      "voice_tag": "Background (Solid / Harmony)",
      "hue": 55.3,
      "sat": 63.7,
      "lightness": 59.2,
      "tonal_distance": 4.7,
      "regime_state": "TRANSITION SPIKE!"
    },
    {
      "pitch": 33,
      "velocity": 84,
      "onset": 124817,
      "duration": 109,
      "id_score": 4.82,
      "voice_tag": "Background (Solid / Harmony)",
      "hue": 73.5,
      "sat": 81.7,
      "lightness": 38.1,
      "tonal_distance": 13.5,
      "regime_state": "TRANSITION SPIKE!"
    }
  ],
  "regimes": [
    {
      "start_time": 78,
      "end_time": 958,
      "state": "TRANSITION SPIKE!",
      "hue": 28.7,
      "saturation": 86.6,
      "v_vec": 100.0
    },
    {
      "start_time": 958,
      "end_time": 1416,
      "state": "Regime Locked",
      "hue": 26.1,
      "saturation": 86.8,
      "v_vec": 4.0
    },
    {
      "start_time": 1416,
      "end_time": 2291,
      "state": "TRANSITION SPIKE!",
      "hue": 0.0,
      "saturation": 100.0,
      "v_vec": 99.5
    },
    {
      "start_time": 2291,
      "end_time": 2744,
      "state": "Stable",
      "hue": 26.2,
      "saturation": 86.8,
      "v_vec": 44.2
    },
    {
      "start_time": 2744,
      "end_time": 3182,
      "state": "Stable",
      "hue": 72.3,
      "saturation": 96.7,
      "v_vec": 30.4
    },
    {
      "start_time": 3182,
      "end_time": 3609,
      "state": "Undefined / Gray Void",
      "hue": 302.8,
      "saturation": 29.3,
      "v_vec": 34.8
    },
    {
      "start_time": 3609,
      "end_time": 4010,
      "state": "Stable",
      "hue": 25.7,
      "saturation": 52.1,
      "v_vec": 35.5
    },
    {
      "start_time": 4010,
      "end_time": 4468,
      "state": "Regime Locked",
      "hue": 90.0,
      "saturation": 100.0,
      "v_vec": 0.0
    },
    {
      "start_time": 4468,
      "end_time": 4656,
      "state": "Stable",
      "hue": 121.8,
      "saturation": 82.4,
      "v_vec": 21.2
    },
    {
      "start_time": 4656,
      "end_time": 5276,
      "state": "Undefined / Gray Void",
      "hue": 200.0,
      "saturation": 17.2,
      "v_vec": 57.3
    },
    {
      "start_time": 5276,
      "end_time": 5723,
      "state": "Stable",
      "hue": 135.0,
      "saturation": 51.8,
      "v_vec": 73.2
    },
    {
      "start_time": 5723,
      "end_time": 6166,
      "state": "Stable",
      "hue": 45.2,
      "saturation": 89.7,
      "v_vec": 49.5
    },
    {
      "start_time": 6166,
      "end_time": 6656,
      "state": "Stable",
      "hue": 29.0,
      "saturation": 86.6,
      "v_vec": 48.4
    },
    {
      "start_time": 6656,
      "end_time": 7083,
      "state": "TRANSITION SPIKE!",
      "hue": 0.0,
      "saturation": 100.0,
      "v_vec": 95.5
    },
    {
      "start_time": 7083,
      "end_time": 7505,
      "state": "Stable",
      "hue": 28.4,
      "saturation": 86.6,
      "v_vec": 47.7
    },
    {
      "start_time": 7505,
      "end_time": 7953,
      "state": "Stable",
      "hue": 28.3,
      "saturation": 86.6,
      "v_vec": 47.4
    },
    {
      "start_time": 7953,
      "end_time": 8421,
      "state": "TRANSITION SPIKE!",
      "hue": 96.6,
      "saturation": 33.0,
      "v_vec": 96.4
    },
    {
      "start_time": 8421,
      "end_time": 8625,
      "state": "Stable",
      "hue": 50.6,
      "saturation": 32.5,
      "v_vec": 25.6
    },
    {
      "start_time": 8625,
      "end_time": 8848,
      "state": "TRANSITION SPIKE!",
      "hue": 318.6,
      "saturation": 66.7,
      "v_vec": 47.7
    },
    {
      "start_time": 8848,
      "end_time": 9078,
      "state": "Stable",
      "hue": 329.4,
      "saturation": 69.5,
      "v_vec": 13.1
    },
    {
      "start_time": 9078,
      "end_time": 9776,
      "state": "TRANSITION SPIKE!",
      "hue": 75.6,
      "saturation": 96.6,
      "v_vec": 54.6
    },
    {
      "start_time": 9776,
      "end_time": 9973,
      "state": "Regime Locked",
      "hue": 106.4,
      "saturation": 83.2,
      "v_vec": 7.8
    },
    {
      "start_time": 9973,
      "end_time": 10192,
      "state": "TRANSITION SPIKE!",
      "hue": 340.4,
      "saturation": 53.1,
      "v_vec": 52.8
    },
    {
      "start_time": 10192,
      "end_time": 10395,
      "state": "Stable",
      "hue": 330.9,
      "saturation": 33.8,
      "v_vec": 20.5
    },
    {
      "start_time": 10395,
      "end_time": 10656,
      "state": "Undefined / Gray Void",
      "hue": 202.8,
      "saturation": 11.6,
      "v_vec": 42.0
    },
    {
      "start_time": 10656,
      "end_time": 11104,
      "state": "Stable",
      "hue": 161.3,
      "saturation": 51.0,
      "v_vec": 31.9
    },
    {
      "start_time": 11104,
      "end_time": 11552,
      "state": "Stable",
      "hue": 42.3,
      "saturation": 88.6,
      "v_vec": 31.1
    },
    {
      "start_time": 11552,
      "end_time": 12026,
      "state": "Stable",
      "hue": 27.6,
      "saturation": 86.7,
      "v_vec": 46.4
    },
    {
      "start_time": 12026,
      "end_time": 12500,
      "state": "TRANSITION SPIKE!",
      "hue": 0.0,
      "saturation": 100.0,
      "v_vec": 97.4
    },
    {
      "start_time": 12500,
      "end_time": 12927,
      "state": "Stable",
      "hue": 27.9,
      "saturation": 86.7,
      "v_vec": 46.8
    },
    {
      "start_time": 12927,
      "end_time": 13395,
      "state": "Stable",
      "hue": 23.5,
      "saturation": 87.2,
      "v_vec": 40.1
    },
    {
      "start_time": 13395,
      "end_time": 13828,
      "state": "Stable",
      "hue": 39.1,
      "saturation": 91.7,
      "v_vec": 17.1
    },
    {
      "start_time": 13828,
      "end_time": 14255,
      "state": "Stable",
      "hue": 347.6,
      "saturation": 72.7,
      "v_vec": 26.5
    },
    {
      "start_time": 14255,
      "end_time": 14671,
      "state": "Stable",
      "hue": 66.4,
      "saturation": 35.0,
      "v_vec": 25.3
    },
    {
      "start_time": 14671,
      "end_time": 14817,
      "state": "Stable",
      "hue": 76.3,
      "saturation": 68.0,
      "v_vec": 23.6
    },
    {
      "start_time": 14817,
      "end_time": 15098,
      "state": "TRANSITION SPIKE!",
      "hue": 94.2,
      "saturation": 56.0,
      "v_vec": 11.5
    },
    {
      "start_time": 15098,
      "end_time": 16203,
      "state": "Stable",
      "hue": 91.6,
      "saturation": 58.7,
      "v_vec": 3.7
    },
    {
      "start_time": 16203,
      "end_time": 16651,
      "state": "Stable",
      "hue": 31.1,
      "saturation": 80.9,
      "v_vec": 35.8
    },
    {
      "start_time": 16651,
      "end_time": 17052,
      "state": "Stable",
      "hue": 40.9,
      "saturation": 46.4,
      "v_vec": 19.0
    },
    {
      "start_time": 17052,
      "end_time": 17479,
      "state": "Stable",
      "hue": 273.4,
      "saturation": 32.4,
      "v_vec": 48.1
    },
    {
      "start_time": 17479,
      "end_time": 17625,
      "state": "Stable",
      "hue": 49.1,
      "saturation": 67.0,
      "v_vec": 37.9
    },
    {
      "start_time": 17625,
      "end_time": 17755,
      "state": "TRANSITION SPIKE!",
      "hue": 66.8,
      "saturation": 55.0,
      "v_vec": 22.2
    },
    {
      "start_time": 17755,
      "end_time": 17880,
      "state": "Stable",
      "hue": 89.3,
      "saturation": 70.4,
      "v_vec": 28.8
    },
    {
      "start_time": 17880,
      "end_time": 19005,
      "state": "TRANSITION SPIKE!",
      "hue": 130.9,
      "saturation": 88.2,
      "v_vec": 58.7
    },
    {
      "start_time": 19005,
      "end_time": 19145,
      "state": "TRANSITION SPIKE!",
      "hue": 347.8,
      "saturation": 38.7,
      "v_vec": 17.6
    },
    {
      "start_time": 19145,
      "end_time": 19286,
      "state": "Stable",
      "hue": 25.2,
      "saturation": 33.2,
      "v_vec": 23.6
    },
    {
      "start_time": 19286,
      "end_time": 20505,
      "state": "TRANSITION SPIKE!",
      "hue": 30.0,
      "saturation": 100.0,
      "v_vec": 33.7
    },
    {
      "start_time": 20505,
      "end_time": 20656,
      "state": "Stable",
      "hue": 6.7,
      "saturation": 92.1,
      "v_vec": 16.3
    },
    {
      "start_time": 20656,
      "end_time": 20796,
      "state": "TRANSITION SPIKE!",
      "hue": 17.8,
      "saturation": 87.0,
      "v_vec": 18.1
    },
    {
      "start_time": 20796,
      "end_time": 20963,
      "state": "Stable",
      "hue": 41.1,
      "saturation": 61.7,
      "v_vec": 38.9
    },
    {
      "start_time": 20963,
      "end_time": 22166,
      "state": "TRANSITION SPIKE!",
      "hue": 104.5,
      "saturation": 96.6,
      "v_vec": 70.7
    },
    {
      "start_time": 22166,
      "end_time": 22562,
      "state": "Stable",
      "hue": 44.3,
      "saturation": 48.1,
      "v_vec": 62.6
    },
    {
      "start_time": 22562,
      "end_time": 22770,
      "state": "Stable",
      "hue": 45.8,
      "saturation": 85.0,
      "v_vec": 27.1
    },
    {
      "start_time": 22770,
      "end_time": 22994,
      "state": "Stable",
      "hue": 43.6,
      "saturation": 71.7,
      "v_vec": 29.9
    },
    {
      "start_time": 22994,
      "end_time": 23468,
      "state": "Stable",
      "hue": 41.3,
      "saturation": 52.5,
      "v_vec": 11.6
    },
    {
      "start_time": 23468,
      "end_time": 24088,
      "state": "Stable",
      "hue": 103.2,
      "saturation": 48.4,
      "v_vec": 123.0
    },
    {
      "start_time": 24088,
      "end_time": 25656,
      "state": "Stable",
      "hue": 60.4,
      "saturation": 42.5,
      "v_vec": 53.2
    },
    {
      "start_time": 25656,
      "end_time": 26145,
      "state": "TRANSITION SPIKE!",
      "hue": 60.0,
      "saturation": 100.0,
      "v_vec": 66.5
    },
    {
      "start_time": 26145,
      "end_time": 26546,
      "state": "Stable",
      "hue": 37.4,
      "saturation": 87.3,
      "v_vec": 38.8
    },
    {
      "start_time": 26546,
      "end_time": 27000,
      "state": "Stable",
      "hue": 28.5,
      "saturation": 86.6,
      "v_vec": 52.3
    },
    {
      "start_time": 27000,
      "end_time": 27468,
      "state": "TRANSITION SPIKE!",
      "hue": 60.0,
      "saturation": 100.0,
      "v_vec": 96.1
    },
    {
      "start_time": 27468,
      "end_time": 27927,
      "state": "Stable",
      "hue": 29.8,
      "saturation": 86.6,
      "v_vec": 50.4
    },
    {
      "start_time": 27927,
      "end_time": 28369,
      "state": "TRANSITION SPIKE!",
      "hue": 90.0,
      "saturation": 100.0,
      "v_vec": 3.8
    },
    {
      "start_time": 28369,
      "end_time": 28796,
      "state": "Stable",
      "hue": 71.0,
      "saturation": 96.8,
      "v_vec": 32.6
    },
    {
      "start_time": 28796,
      "end_time": 29000,
      "state": "Undefined / Gray Void",
      "hue": 302.7,
      "saturation": 3.7,
      "v_vec": 98.1
    },
    {
      "start_time": 29000,
      "end_time": 29223,
      "state": "TRANSITION SPIKE!",
      "hue": 324.5,
      "saturation": 87.0,
      "v_vec": 30.3
    },
    {
      "start_time": 29223,
      "end_time": 29635,
      "state": "Stable",
      "hue": 21.0,
      "saturation": 50.1,
      "v_vec": 36.4
    },
    {
      "start_time": 29635,
      "end_time": 30083,
      "state": "Regime Locked",
      "hue": 90.0,
      "saturation": 100.0,
      "v_vec": 0.0
    },
    {
      "start_time": 30083,
      "end_time": 30276,
      "state": "Stable",
      "hue": 120.6,
      "saturation": 82.9,
      "v_vec": 23.7
    },
    {
      "start_time": 30276,
      "end_time": 30911,
      "state": "Undefined / Gray Void",
      "hue": 192.2,
      "saturation": 16.7,
      "v_vec": 53.4
    },
    {
      "start_time": 30911,
      "end_time": 31354,
      "state": "Stable",
      "hue": 133.1,
      "saturation": 52.3,
      "v_vec": 71.4
    },
    {
      "start_time": 31354,
      "end_time": 31802,
      "state": "Stable",
      "hue": 42.9,
      "saturation": 88.8,
      "v_vec": 30.2
    },
    {
      "start_time": 31802,
      "end_time": 32296,
      "state": "Stable",
      "hue": 28.1,
      "saturation": 86.7,
      "v_vec": 47.1
    },
    {
      "start_time": 32296,
      "end_time": 32718,
      "state": "TRANSITION SPIKE!",
      "hue": 60.0,
      "saturation": 100.0,
      "v_vec": 96.7
    },
    {
      "start_time": 32718,
      "end_time": 33229,
      "state": "Stable",
      "hue": 29.0,
      "saturation": 86.6,
      "v_vec": 51.5
    },
    {
      "start_time": 33229,
      "end_time": 33635,
      "state": "Stable",
      "hue": 13.0,
      "saturation": 90.6,
      "v_vec": 23.5
    },
    {
      "start_time": 33635,
      "end_time": 34083,
      "state": "TRANSITION SPIKE!",
      "hue": 32.7,
      "saturation": 86.7,
      "v_vec": 118.9
    },
    {
      "start_time": 34083,
      "end_time": 34307,
      "state": "Undefined / Gray Void",
      "hue": 53.2,
      "saturation": 27.0,
      "v_vec": 62.1
    },
    {
      "start_time": 34307,
      "end_time": 34526,
      "state": "TRANSITION SPIKE!",
      "hue": 317.0,
      "saturation": 88.9,
      "v_vec": 49.1
    },
    {
      "start_time": 34526,
      "end_time": 34755,
      "state": "Stable",
      "hue": 332.7,
      "saturation": 69.9,
      "v_vec": 28.7
    },
    {
      "start_time": 34755,
      "end_time": 35427,
      "state": "TRANSITION SPIKE!",
      "hue": 102.6,
      "saturation": 79.5,
      "v_vec": 54.0
    },
    {
      "start_time": 35427,
      "end_time": 35625,
      "state": "Stable",
      "hue": 108.0,
      "saturation": 84.0,
      "v_vec": 8.8
    },
    {
      "start_time": 35625,
      "end_time": 35838,
      "state": "TRANSITION SPIKE!",
      "hue": 111.4,
      "saturation": 33.3,
      "v_vec": 50.9
    },
    {
      "start_time": 35838,
      "end_time": 36302,
      "state": "Undefined / Gray Void",
      "hue": 192.0,
      "saturation": 13.1,
      "v_vec": 42.9
    },
    {
      "start_time": 36302,
      "end_time": 36776,
      "state": "Stable",
      "hue": 167.6,
      "saturation": 52.4,
      "v_vec": 32.2
    },
    {
      "start_time": 36776,
      "end_time": 37229,
      "state": "Stable",
      "hue": 41.4,
      "saturation": 88.4,
      "v_vec": 21.7
    },
    {
      "start_time": 37229,
      "end_time": 37703,
      "state": "Stable",
      "hue": 24.3,
      "saturation": 87.0,
      "v_vec": 41.4
    },
    {
      "start_time": 37703,
      "end_time": 38171,
      "state": "TRANSITION SPIKE!",
      "hue": 60.0,
      "saturation": 100.0,
      "v_vec": 102.0
    },
    {
      "start_time": 38171,
      "end_time": 38609,
      "state": "Stable",
      "hue": 29.1,
      "saturation": 86.6,
      "v_vec": 51.4
    },
    {
      "start_time": 38609,
      "end_time": 39062,
      "state": "Stable",
      "hue": 24.5,
      "saturation": 87.0,
      "v_vec": 58.3
    },
    {
      "start_time": 39062,
      "end_time": 39526,
      "state": "Stable",
      "hue": 37.9,
      "saturation": 91.3,
      "v_vec": 8.9
    },
    {
      "start_time": 39526,
      "end_time": 39973,
      "state": "Stable",
      "hue": 347.2,
      "saturation": 71.6,
      "v_vec": 49.8
    },
    {
      "start_time": 39973,
      "end_time": 40411,
      "state": "Stable",
      "hue": 66.3,
      "saturation": 35.3,
      "v_vec": 35.4
    },
    {
      "start_time": 40411,
      "end_time": 40562,
      "state": "Stable",
      "hue": 77.4,
      "saturation": 67.7,
      "v_vec": 65.9
    },
    {
      "start_time": 40562,
      "end_time": 40807,
      "state": "TRANSITION SPIKE!",
      "hue": 86.4,
      "saturation": 69.5,
      "v_vec": 10.9
    },
    {
      "start_time": 40807,
      "end_time": 42020,
      "state": "TRANSITION SPIKE!",
      "hue": 0.0,
      "saturation": 100.0,
      "v_vec": 14.7
    },
    {
      "start_time": 42020,
      "end_time": 42468,
      "state": "Stable",
      "hue": 34.4,
      "saturation": 79.4,
      "v_vec": 35.5
    },
    {
      "start_time": 42468,
      "end_time": 42916,
      "state": "Stable",
      "hue": 41.6,
      "saturation": 45.8,
      "v_vec": 20.3
    },
    {
      "start_time": 42916,
      "end_time": 43348,
      "state": "Undefined / Gray Void",
      "hue": 280.0,
      "saturation": 18.0,
      "v_vec": 33.5
    },
    {
      "start_time": 43348,
      "end_time": 43526,
      "state": "Stable",
      "hue": 49.7,
      "saturation": 65.9,
      "v_vec": 80.6
    },
    {
      "start_time": 43526,
      "end_time": 43671,
      "state": "TRANSITION SPIKE!",
      "hue": 68.8,
      "saturation": 53.9,
      "v_vec": 23.2
    },
    {
      "start_time": 43671,
      "end_time": 43828,
      "state": "Stable",
      "hue": 118.1,
      "saturation": 86.7,
      "v_vec": 65.7
    },
    {
      "start_time": 43828,
      "end_time": 44968,
      "state": "TRANSITION SPIKE!",
      "hue": 150.0,
      "saturation": 100.0,
      "v_vec": 0.7
    },
    {
      "start_time": 44968,
      "end_time": 45119,
      "state": "Stable",
      "hue": 347.8,
      "saturation": 37.5,
      "v_vec": 41.4
    },
    {
      "start_time": 45119,
      "end_time": 45421,
      "state": "TRANSITION SPIKE!",
      "hue": 58.7,
      "saturation": 86.6,
      "v_vec": 25.4
    },
    {
      "start_time": 45421,
      "end_time": 46390,
      "state": "Regime Locked",
      "hue": 59.5,
      "saturation": 86.6,
      "v_vec": 1.2
    },
    {
      "start_time": 46390,
      "end_time": 46557,
      "state": "Stable",
      "hue": 5.3,
      "saturation": 91.8,
      "v_vec": 50.3
    },
    {
      "start_time": 46557,
      "end_time": 46697,
      "state": "TRANSITION SPIKE!",
      "hue": 16.4,
      "saturation": 86.5,
      "v_vec": 17.9
    },
    {
      "start_time": 46697,
      "end_time": 46838,
      "state": "Stable",
      "hue": 89.6,
      "saturation": 86.6,
      "v_vec": 103.3
    },
    {
      "start_time": 46838,
      "end_time": 48453,
      "state": "TRANSITION SPIKE!",
      "hue": 60.0,
      "saturation": 100.0,
      "v_vec": 15.8
    },
    {
      "start_time": 48453,
      "end_time": 48661,
      "state": "Stable",
      "hue": 52.0,
      "saturation": 82.3,
      "v_vec": 28.2
    },
    {
      "start_time": 48661,
      "end_time": 48885,
      "state": "Regime Locked",
      "hue": 42.6,
      "saturation": 71.3,
      "v_vec": 5.9
    },
    {
      "start_time": 48885,
      "end_time": 49343,
      "state": "Stable",
      "hue": 41.5,
      "saturation": 52.0,
      "v_vec": 31.5
    },
    {
      "start_time": 49343,
      "end_time": 49953,
      "state": "Stable",
      "hue": 105.3,
      "saturation": 50.5,
      "v_vec": 41.0
    },
    {
      "start_time": 49953,
      "end_time": 52213,
      "state": "Stable",
      "hue": 60.7,
      "saturation": 43.7,
      "v_vec": 24.2
    },
    {
      "start_time": 52213,
      "end_time": 52859,
      "state": "TRANSITION SPIKE!",
      "hue": 180.0,
      "saturation": 100.0,
      "v_vec": 65.5
    },
    {
      "start_time": 52859,
      "end_time": 53406,
      "state": "Stable",
      "hue": 120.9,
      "saturation": 50.0,
      "v_vec": 85.8
    },
    {
      "start_time": 53406,
      "end_time": 53666,
      "state": "Stable",
      "hue": 139.3,
      "saturation": 66.1,
      "v_vec": 47.3
    },
    {
      "start_time": 53666,
      "end_time": 53973,
      "state": "Undefined / Gray Void",
      "hue": 166.3,
      "saturation": 21.3,
      "v_vec": 48.1
    },
    {
      "start_time": 53973,
      "end_time": 54234,
      "state": "Stable",
      "hue": 247.7,
      "saturation": 71.3,
      "v_vec": 79.8
    },
    {
      "start_time": 54234,
      "end_time": 54572,
      "state": "Undefined / Gray Void",
      "hue": 141.2,
      "saturation": 26.0,
      "v_vec": 82.5
    },
    {
      "start_time": 54572,
      "end_time": 55171,
      "state": "Stable",
      "hue": 61.1,
      "saturation": 56.1,
      "v_vec": 72.1
    },
    {
      "start_time": 55171,
      "end_time": 55703,
      "state": "Stable",
      "hue": 47.5,
      "saturation": 31.7,
      "v_vec": 84.7
    },
    {
      "start_time": 55703,
      "end_time": 56218,
      "state": "TRANSITION SPIKE!",
      "hue": 150.0,
      "saturation": 100.0,
      "v_vec": 79.6
    },
    {
      "start_time": 56218,
      "end_time": 56479,
      "state": "Stable",
      "hue": 133.9,
      "saturation": 63.3,
      "v_vec": 27.0
    },
    {
      "start_time": 56479,
      "end_time": 56755,
      "state": "TRANSITION SPIKE!",
      "hue": 180.0,
      "saturation": 100.0,
      "v_vec": 17.6
    },
    {
      "start_time": 56755,
      "end_time": 57020,
      "state": "Stable",
      "hue": 130.1,
      "saturation": 60.3,
      "v_vec": 47.4
    },
    {
      "start_time": 57020,
      "end_time": 57312,
      "state": "TRANSITION SPIKE!",
      "hue": 259.5,
      "saturation": 70.9,
      "v_vec": 14.2
    },
    {
      "start_time": 57312,
      "end_time": 57578,
      "state": "Stable",
      "hue": 240.1,
      "saturation": 73.2,
      "v_vec": 24.3
    },
    {
      "start_time": 57578,
      "end_time": 57906,
      "state": "Undefined / Gray Void",
      "hue": 125.9,
      "saturation": 26.2,
      "v_vec": 87.3
    },
    {
      "start_time": 57906,
      "end_time": 58494,
      "state": "Stable",
      "hue": 58.5,
      "saturation": 57.5,
      "v_vec": 47.0
    },
    {
      "start_time": 58494,
      "end_time": 59057,
      "state": "Undefined / Gray Void",
      "hue": 50.5,
      "saturation": 26.8,
      "v_vec": 61.2
    },
    {
      "start_time": 59057,
      "end_time": 59583,
      "state": "TRANSITION SPIKE!",
      "hue": 60.0,
      "saturation": 100.0,
      "v_vec": 81.1
    },
    {
      "start_time": 59583,
      "end_time": 60057,
      "state": "Stable",
      "hue": 120.8,
      "saturation": 50.0,
      "v_vec": 87.3
    },
    {
      "start_time": 60057,
      "end_time": 61156,
      "state": "TRANSITION SPIKE!",
      "hue": 300.0,
      "saturation": 100.0,
      "v_vec": 29.3
    },
    {
      "start_time": 61156,
      "end_time": 61765,
      "state": "Undefined / Gray Void",
      "hue": 317.2,
      "saturation": 13.7,
      "v_vec": 87.0
    },
    {
      "start_time": 61765,
      "end_time": 62250,
      "state": "Stable",
      "hue": 123.6,
      "saturation": 50.1,
      "v_vec": 89.8
    },
    {
      "start_time": 62250,
      "end_time": 62520,
      "state": "TRANSITION SPIKE!",
      "hue": 300.0,
      "saturation": 100.0,
      "v_vec": 150.0
    },
    {
      "start_time": 62520,
      "end_time": 62786,
      "state": "Undefined / Gray Void",
      "hue": 233.7,
      "saturation": 26.2,
      "v_vec": 92.6
    },
    {
      "start_time": 62786,
      "end_time": 63036,
      "state": "Stable",
      "hue": 141.3,
      "saturation": 72.6,
      "v_vec": 18.6
    },
    {
      "start_time": 63036,
      "end_time": 63322,
      "state": "TRANSITION SPIKE!",
      "hue": 75.1,
      "saturation": 96.6,
      "v_vec": 24.9
    },
    {
      "start_time": 63322,
      "end_time": 63583,
      "state": "Stable",
      "hue": 91.0,
      "saturation": 68.2,
      "v_vec": 50.8
    },
    {
      "start_time": 63583,
      "end_time": 64531,
      "state": "TRANSITION SPIKE!",
      "hue": 300.0,
      "saturation": 100.0,
      "v_vec": 46.7
    },
    {
      "start_time": 64531,
      "end_time": 65385,
      "state": "Undefined / Gray Void",
      "hue": 314.5,
      "saturation": 11.2,
      "v_vec": 42.3
    },
    {
      "start_time": 65385,
      "end_time": 66182,
      "state": "Stable",
      "hue": 127.0,
      "saturation": 50.4,
      "v_vec": 80.5
    },
    {
      "start_time": 66182,
      "end_time": 66750,
      "state": "TRANSITION SPIKE!",
      "hue": 180.0,
      "saturation": 100.0,
      "v_vec": 67.0
    },
    {
      "start_time": 66750,
      "end_time": 67229,
      "state": "Stable",
      "hue": 123.1,
      "saturation": 50.1,
      "v_vec": 83.9
    },
    {
      "start_time": 67229,
      "end_time": 67489,
      "state": "Stable",
      "hue": 136.1,
      "saturation": 65.2,
      "v_vec": 25.3
    },
    {
      "start_time": 67489,
      "end_time": 67817,
      "state": "Undefined / Gray Void",
      "hue": 153.7,
      "saturation": 24.1,
      "v_vec": 42.9
    },
    {
      "start_time": 67817,
      "end_time": 68062,
      "state": "Stable",
      "hue": 253.6,
      "saturation": 70.7,
      "v_vec": 72.5
    },
    {
      "start_time": 68062,
      "end_time": 68359,
      "state": "Undefined / Gray Void",
      "hue": 130.0,
      "saturation": 26.0,
      "v_vec": 87.8
    },
    {
      "start_time": 68359,
      "end_time": 69005,
      "state": "Stable",
      "hue": 59.0,
      "saturation": 52.9,
      "v_vec": 38.2
    },
    {
      "start_time": 69005,
      "end_time": 69500,
      "state": "Stable",
      "hue": 46.5,
      "saturation": 30.3,
      "v_vec": 39.5
    },
    {
      "start_time": 69500,
      "end_time": 70015,
      "state": "TRANSITION SPIKE!",
      "hue": 150.0,
      "saturation": 100.0,
      "v_vec": 80.8
    },
    {
      "start_time": 70015,
      "end_time": 70270,
      "state": "Stable",
      "hue": 135.0,
      "saturation": 63.7,
      "v_vec": 27.1
    },
    {
      "start_time": 70270,
      "end_time": 70541,
      "state": "TRANSITION SPIKE!",
      "hue": 180.0,
      "saturation": 100.0,
      "v_vec": 17.9
    },
    {
      "start_time": 70541,
      "end_time": 70817,
      "state": "Stable",
      "hue": 130.3,
      "saturation": 61.3,
      "v_vec": 50.7
    },
    {
      "start_time": 70817,
      "end_time": 71130,
      "state": "TRANSITION SPIKE!",
      "hue": 260.1,
      "saturation": 71.0,
      "v_vec": 14.9
    },
    {
      "start_time": 71130,
      "end_time": 71395,
      "state": "Regime Locked",
      "hue": 259.7,
      "saturation": 71.0,
      "v_vec": 0.5
    },
    {
      "start_time": 71395,
      "end_time": 71734,
      "state": "Undefined / Gray Void",
      "hue": 125.9,
      "saturation": 26.2,
      "v_vec": 91.1
    },
    {
      "start_time": 71734,
      "end_time": 72348,
      "state": "Stable",
      "hue": 55.5,
      "saturation": 57.0,
      "v_vec": 48.2
    },
    {
      "start_time": 72348,
      "end_time": 72921,
      "state": "Undefined / Gray Void",
      "hue": 44.8,
      "saturation": 27.7,
      "v_vec": 42.2
    },
    {
      "start_time": 72921,
      "end_time": 73473,
      "state": "TRANSITION SPIKE!",
      "hue": 60.0,
      "saturation": 100.0,
      "v_vec": 82.9
    },
    {
      "start_time": 73473,
      "end_time": 74005,
      "state": "Stable",
      "hue": 125.7,
      "saturation": 50.2,
      "v_vec": 91.6
    },
    {
      "start_time": 74005,
      "end_time": 74302,
      "state": "Stable",
      "hue": 82.9,
      "saturation": 62.7,
      "v_vec": 48.8
    },
    {
      "start_time": 74302,
      "end_time": 74609,
      "state": "TRANSITION SPIKE!",
      "hue": 198.5,
      "saturation": 96.8,
      "v_vec": 136.1
    },
    {
      "start_time": 74609,
      "end_time": 74895,
      "state": "Stable",
      "hue": 210.0,
      "saturation": 100.0,
      "v_vec": 19.9
    },
    {
      "start_time": 74895,
      "end_time": 75270,
      "state": "Undefined / Gray Void",
      "hue": 210.0,
      "saturation": 1.9,
      "v_vec": 98.1
    },
    {
      "start_time": 75270,
      "end_time": 76020,
      "state": "Stable",
      "hue": 73.0,
      "saturation": 46.3,
      "v_vec": 23.7
    },
    {
      "start_time": 76020,
      "end_time": 76578,
      "state": "Stable",
      "hue": 122.8,
      "saturation": 50.1,
      "v_vec": 84.2
    },
    {
      "start_time": 76578,
      "end_time": 77229,
      "state": "TRANSITION SPIKE!",
      "hue": 300.0,
      "saturation": 100.0,
      "v_vec": 114.0
    },
    {
      "start_time": 77229,
      "end_time": 78041,
      "state": "Undefined / Gray Void",
      "hue": 288.3,
      "saturation": 4.8,
      "v_vec": 48.5
    },
    {
      "start_time": 78041,
      "end_time": 78765,
      "state": "Stable",
      "hue": 126.5,
      "saturation": 50.3,
      "v_vec": 80.9
    },
    {
      "start_time": 78765,
      "end_time": 79479,
      "state": "TRANSITION SPIKE!",
      "hue": 90.0,
      "saturation": 100.0,
      "v_vec": 150.1
    },
    {
      "start_time": 79479,
      "end_time": 82177,
      "state": "TRANSITION SPIKE!",
      "hue": 0.0,
      "saturation": 100.0,
      "v_vec": 41.5
    },
    {
      "start_time": 82177,
      "end_time": 82604,
      "state": "Stable",
      "hue": 26.9,
      "saturation": 86.7,
      "v_vec": 45.3
    },
    {
      "start_time": 82604,
      "end_time": 83057,
      "state": "Stable",
      "hue": 22.8,
      "saturation": 87.3,
      "v_vec": 39.0
    },
    {
      "start_time": 83057,
      "end_time": 83515,
      "state": "TRANSITION SPIKE!",
      "hue": 60.0,
      "saturation": 100.0,
      "v_vec": 104.3
    },
    {
      "start_time": 83515,
      "end_time": 83947,
      "state": "Stable",
      "hue": 28.1,
      "saturation": 86.7,
      "v_vec": 52.9
    },
    {
      "start_time": 83947,
      "end_time": 84781,
      "state": "TRANSITION SPIKE!",
      "hue": 188.4,
      "saturation": 43.4,
      "v_vec": 5.3
    },
    {
      "start_time": 84781,
      "end_time": 84973,
      "state": "Undefined / Gray Void",
      "hue": 216.7,
      "saturation": 7.9,
      "v_vec": 36.6
    },
    {
      "start_time": 84973,
      "end_time": 85213,
      "state": "TRANSITION SPIKE!",
      "hue": 291.1,
      "saturation": 34.1,
      "v_vec": 32.9
    },
    {
      "start_time": 85213,
      "end_time": 85604,
      "state": "TRANSITION SPIKE!",
      "hue": 90.0,
      "saturation": 100.0,
      "v_vec": 20.2
    },
    {
      "start_time": 85604,
      "end_time": 86041,
      "state": "Regime Locked",
      "hue": 90.0,
      "saturation": 100.0,
      "v_vec": 0.0
    },
    {
      "start_time": 86041,
      "end_time": 86270,
      "state": "Stable",
      "hue": 118.9,
      "saturation": 81.2,
      "v_vec": 21.9
    },
    {
      "start_time": 86270,
      "end_time": 86880,
      "state": "Undefined / Gray Void",
      "hue": 195.3,
      "saturation": 14.1,
      "v_vec": 53.5
    },
    {
      "start_time": 86880,
      "end_time": 87296,
      "state": "Stable",
      "hue": 126.6,
      "saturation": 54.5,
      "v_vec": 65.0
    },
    {
      "start_time": 87296,
      "end_time": 87723,
      "state": "Stable",
      "hue": 39.8,
      "saturation": 87.9,
      "v_vec": 42.1
    },
    {
      "start_time": 87723,
      "end_time": 88161,
      "state": "Stable",
      "hue": 24.3,
      "saturation": 87.0,
      "v_vec": 41.3
    },
    {
      "start_time": 88161,
      "end_time": 88609,
      "state": "TRANSITION SPIKE!",
      "hue": 0.0,
      "saturation": 100.0,
      "v_vec": 102.1
    },
    {
      "start_time": 88609,
      "end_time": 89020,
      "state": "Stable",
      "hue": 25.1,
      "saturation": 86.9,
      "v_vec": 42.5
    },
    {
      "start_time": 89020,
      "end_time": 89416,
      "state": "Stable",
      "hue": 24.9,
      "saturation": 87.0,
      "v_vec": 42.2
    },
    {
      "start_time": 89416,
      "end_time": 89833,
      "state": "TRANSITION SPIKE!",
      "hue": 60.0,
      "saturation": 100.0,
      "v_vec": 101.2
    },
    {
      "start_time": 89833,
      "end_time": 90062,
      "state": "Stable",
      "hue": 51.6,
      "saturation": 35.0,
      "v_vec": 31.8
    },
    {
      "start_time": 90062,
      "end_time": 90270,
      "state": "TRANSITION SPIKE!",
      "hue": 300.0,
      "saturation": 100.0,
      "v_vec": 49.9
    },
    {
      "start_time": 90270,
      "end_time": 90500,
      "state": "Stable",
      "hue": 333.2,
      "saturation": 69.2,
      "v_vec": 56.6
    },
    {
      "start_time": 90500,
      "end_time": 91151,
      "state": "TRANSITION SPIKE!",
      "hue": 119.9,
      "saturation": 91.1,
      "v_vec": 53.4
    },
    {
      "start_time": 91151,
      "end_time": 91369,
      "state": "Stable",
      "hue": 107.8,
      "saturation": 84.6,
      "v_vec": 19.5
    },
    {
      "start_time": 91369,
      "end_time": 91588,
      "state": "TRANSITION SPIKE!",
      "hue": 300.0,
      "saturation": 100.0,
      "v_vec": 50.4
    },
    {
      "start_time": 91588,
      "end_time": 91786,
      "state": "Stable",
      "hue": 336.2,
      "saturation": 31.1,
      "v_vec": 77.1
    },
    {
      "start_time": 91786,
      "end_time": 92046,
      "state": "Undefined / Gray Void",
      "hue": 182.2,
      "saturation": 11.0,
      "v_vec": 41.3
    },
    {
      "start_time": 92046,
      "end_time": 92473,
      "state": "Stable",
      "hue": 157.7,
      "saturation": 50.5,
      "v_vec": 31.5
    },
    {
      "start_time": 92473,
      "end_time": 92906,
      "state": "Stable",
      "hue": 46.3,
      "saturation": 90.2,
      "v_vec": 24.7
    },
    {
      "start_time": 92906,
      "end_time": 93395,
      "state": "Stable",
      "hue": 24.0,
      "saturation": 87.1,
      "v_vec": 40.9
    },
    {
      "start_time": 93395,
      "end_time": 93869,
      "state": "TRANSITION SPIKE!",
      "hue": 0.0,
      "saturation": 100.0,
      "v_vec": 102.4
    },
    {
      "start_time": 93869,
      "end_time": 94302,
      "state": "Stable",
      "hue": 28.9,
      "saturation": 86.6,
      "v_vec": 48.3
    },
    {
      "start_time": 94302,
      "end_time": 94750,
      "state": "Stable",
      "hue": 26.2,
      "saturation": 86.8,
      "v_vec": 55.7
    },
    {
      "start_time": 94750,
      "end_time": 95197,
      "state": "TRANSITION SPIKE!",
      "hue": 330.0,
      "saturation": 100.0,
      "v_vec": 14.1
    },
    {
      "start_time": 95197,
      "end_time": 95619,
      "state": "Stable",
      "hue": 346.6,
      "saturation": 74.0,
      "v_vec": 8.9
    },
    {
      "start_time": 95619,
      "end_time": 96057,
      "state": "Stable",
      "hue": 66.9,
      "saturation": 36.4,
      "v_vec": 27.2
    },
    {
      "start_time": 96057,
      "end_time": 96203,
      "state": "Stable",
      "hue": 75.8,
      "saturation": 68.7,
      "v_vec": 72.7
    },
    {
      "start_time": 96203,
      "end_time": 96432,
      "state": "TRANSITION SPIKE!",
      "hue": 85.4,
      "saturation": 70.2,
      "v_vec": 11.7
    },
    {
      "start_time": 96432,
      "end_time": 97625,
      "state": "TRANSITION SPIKE!",
      "hue": 90.0,
      "saturation": 100.0,
      "v_vec": 13.7
    },
    {
      "start_time": 97625,
      "end_time": 98046,
      "state": "Stable",
      "hue": 39.7,
      "saturation": 78.0,
      "v_vec": 78.3
    },
    {
      "start_time": 98046,
      "end_time": 98468,
      "state": "Stable",
      "hue": 46.9,
      "saturation": 47.3,
      "v_vec": 21.4
    },
    {
      "start_time": 98468,
      "end_time": 98942,
      "state": "Undefined / Gray Void",
      "hue": 274.8,
      "saturation": 14.6,
      "v_vec": 38.5
    },
    {
      "start_time": 98942,
      "end_time": 99140,
      "state": "Stable",
      "hue": 51.1,
      "saturation": 67.5,
      "v_vec": 48.5
    },
    {
      "start_time": 99140,
      "end_time": 99364,
      "state": "Stable",
      "hue": 65.3,
      "saturation": 57.2,
      "v_vec": 21.4
    },
    {
      "start_time": 99364,
      "end_time": 100541,
      "state": "Stable",
      "hue": 123.9,
      "saturation": 77.7,
      "v_vec": 18.7
    },
    {
      "start_time": 100541,
      "end_time": 100682,
      "state": "Stable",
      "hue": 349.6,
      "saturation": 33.9,
      "v_vec": 15.9
    },
    {
      "start_time": 100682,
      "end_time": 100828,
      "state": "TRANSITION SPIKE!",
      "hue": 29.8,
      "saturation": 30.7,
      "v_vec": 22.4
    },
    {
      "start_time": 100828,
      "end_time": 100979,
      "state": "Stable",
      "hue": 15.3,
      "saturation": 67.0,
      "v_vec": 38.1
    },
    {
      "start_time": 100979,
      "end_time": 101973,
      "state": "TRANSITION SPIKE!",
      "hue": 30.0,
      "saturation": 100.0,
      "v_vec": 71.6
    },
    {
      "start_time": 101973,
      "end_time": 102177,
      "state": "Stable",
      "hue": 5.0,
      "saturation": 91.9,
      "v_vec": 24.9
    },
    {
      "start_time": 102177,
      "end_time": 103651,
      "state": "TRANSITION SPIKE!",
      "hue": 44.4,
      "saturation": 70.7,
      "v_vec": 17.3
    },
    {
      "start_time": 103651,
      "end_time": 104036,
      "state": "Stable",
      "hue": 42.7,
      "saturation": 49.5,
      "v_vec": 21.3
    },
    {
      "start_time": 104036,
      "end_time": 104260,
      "state": "Stable",
      "hue": 45.7,
      "saturation": 84.2,
      "v_vec": 9.2
    },
    {
      "start_time": 104260,
      "end_time": 104494,
      "state": "Regime Locked",
      "hue": 45.1,
      "saturation": 71.9,
      "v_vec": 6.0
    },
    {
      "start_time": 104494,
      "end_time": 104942,
      "state": "Stable",
      "hue": 44.4,
      "saturation": 52.1,
      "v_vec": 13.2
    },
    {
      "start_time": 104942,
      "end_time": 105604,
      "state": "Stable",
      "hue": 104.6,
      "saturation": 49.7,
      "v_vec": 22.7
    },
    {
      "start_time": 105604,
      "end_time": 108093,
      "state": "Stable",
      "hue": 62.9,
      "saturation": 47.4,
      "v_vec": 52.9
    },
    {
      "start_time": 108093,
      "end_time": 109239,
      "state": "Stable",
      "hue": 105.4,
      "saturation": 70.8,
      "v_vec": 24.6
    },
    {
      "start_time": 109239,
      "end_time": 109864,
      "state": "TRANSITION SPIKE!",
      "hue": 300.0,
      "saturation": 100.0,
      "v_vec": 70.2
    },
    {
      "start_time": 109864,
      "end_time": 110161,
      "state": "Stable",
      "hue": 210.7,
      "saturation": 35.7,
      "v_vec": 35.7
    },
    {
      "start_time": 110161,
      "end_time": 110583,
      "state": "Undefined / Gray Void",
      "hue": 138.8,
      "saturation": 25.9,
      "v_vec": 37.0
    },
    {
      "start_time": 110583,
      "end_time": 111843,
      "state": "TRANSITION SPIKE!",
      "hue": 77.2,
      "saturation": 96.7,
      "v_vec": 98.3
    },
    {
      "start_time": 111843,
      "end_time": 112427,
      "state": "Stable",
      "hue": 103.2,
      "saturation": 71.4,
      "v_vec": 45.1
    },
    {
      "start_time": 112427,
      "end_time": 113578,
      "state": "TRANSITION SPIKE!",
      "hue": 300.0,
      "saturation": 100.0,
      "v_vec": 72.9
    },
    {
      "start_time": 113578,
      "end_time": 113911,
      "state": "Stable",
      "hue": 211.8,
      "saturation": 35.9,
      "v_vec": 35.9
    },
    {
      "start_time": 113911,
      "end_time": 114322,
      "state": "TRANSITION SPIKE!",
      "hue": 60.0,
      "saturation": 100.0,
      "v_vec": 132.8
    },
    {
      "start_time": 114322,
      "end_time": 115578,
      "state": "Regime Locked",
      "hue": 60.0,
      "saturation": 100.0,
      "v_vec": 0.0
    },
    {
      "start_time": 115578,
      "end_time": 116427,
      "state": "Stable",
      "hue": 128.7,
      "saturation": 52.5,
      "v_vec": 17.4
    },
    {
      "start_time": 116427,
      "end_time": 119651,
      "state": "TRANSITION SPIKE!",
      "hue": 90.0,
      "saturation": 100.0,
      "v_vec": 94.6
    },
    {
      "start_time": 119651,
      "end_time": 120567,
      "state": "Stable",
      "hue": 40.6,
      "saturation": 65.1,
      "v_vec": 57.2
    },
    {
      "start_time": 120567,
      "end_time": 124926,
      "state": "TRANSITION SPIKE!",
      "hue": 90.0,
      "saturation": 100.0,
      "v_vec": 44.2
    }
  ],
  "stats": {
    "total_notes": 628,
    "total_regimes": 245,
    "melody_notes": 265,
    "background_notes": 363
  }
}